<svg xmlns="http://www.w3.org/2000/svg" viewBox="0 0 331.19 254.79"><defs><style>.cls-1{fill:#8e6c55;}.cls-2{fill:#f7883c;}.cls-2,.cls-3,.cls-4,.cls-5,.cls-6,.cls-7,.cls-8{fill-rule:evenodd;}.cls-3{fill:#dd732c;}.cls-4{fill:#f9b282;}.cls-5{fill:#fff;}.cls-6{fill:#d14242;}.cls-7{fill:#e25252;}.cls-8{fill:#ce4141;}.cls-9{fill:#9b7861;}</style></defs><title>Asset 3</title><g id="Layer_2" data-name="Layer 2"><g id="Layer_1-2" data-name="Layer 1"><path class="cls-1" d="M115.87,249.9a865.59,865.59,0,0,1-4-123.9l-15.1-.88-15.1-.87c-.14,2.39-3.23,58,4.09,128.51C90.75,254.18,106.42,257.71,115.87,249.9Z"/><path class="cls-1" d="M245.06,249.9a865.59,865.59,0,0,1-4-123.9l-15.1-.88-15.1-.87c-.14,2.39-3.23,58,4.09,128.51C219.94,254.18,235.61,257.71,245.06,249.9Z"/><path class="cls-2" d="M331.19,6.93c0,2.74,0,5.44-.15,8.15-.09,2.32-.25,4.63-.44,6.92q-.51,6.16-1.51,12.14C324.2,63.69,314.62,88,301.86,107.8c-33.18,51.35-88,71.72-138.94,71.72S57.16,159.15,24,107.8C13.62,91.76,5.36,72.68,0,50.25a216.12,216.12,0,0,0,21.63,9.61h0c4.74,1.81,9.82,3.57,15.28,5.25A264.18,264.18,0,0,0,95.84,75.93c1.84.13,3.71.25,5.59.33,1.53.09,3.08.15,4.64.21,2.32.09,4.66.13,7,.16q9.68.11,19.65-.23c6.13-.19,12.34-.52,18.56-1a467.64,467.64,0,0,0,56.06-7.36A363.62,363.62,0,0,0,250.58,57h0c6.15-2,12.11-4.16,17.81-6.48C299,38.12,322.32,21.26,331,0h0C331.12,2.33,331.18,4.63,331.19,6.93Z"/><path class="cls-3" d="M268.4,50.54,199.58,101.7c-8.59,6.38-20,5.14-27.3-3l-21-23.28a467.64,467.64,0,0,0,56.06-7.36A363.62,363.62,0,0,0,250.58,57h0C256.74,55,262.7,52.86,268.4,50.54Z"/><path class="cls-4" d="M95.84,75.93l-22.4,23a15.18,15.18,0,0,1-22.92-1.36L21.64,59.87A258.11,258.11,0,0,0,95.84,75.93Z"/><path class="cls-4" d="M250.58,57l-68.65,45.39a20.19,20.19,0,0,1-25.33-2.47L132.75,76.4a474.61,474.61,0,0,0,74.62-8.32A363.62,363.62,0,0,0,250.58,57Z"/><path class="cls-5" d="M132.75,76.4l-14.7,43.27a4,4,0,0,1-7.63,0L95.84,75.93c1.84.13,3.71.25,5.59.33,3.81.21,7.7.32,11.67.37Q122.78,76.74,132.75,76.4Z"/><path class="cls-6" d="M112.6,83.89v12C105.81,104.28,93,107.65,84.48,109a7.52,7.52,0,0,1-8.66-7.43V78a7.54,7.54,0,0,1,7.88-7.51,40.34,40.34,0,0,1,28.43,12.89C112.44,83.68,112.6,83.89,112.6,83.89Z"/><path class="cls-6" d="M115.81,83.89s9.63-12.61,28.88-13.45A7.55,7.55,0,0,1,152.58,78v23.61a7.52,7.52,0,0,1-8.66,7.43c-8.56-1.34-21.33-4.7-28.11-13.14Z"/><path class="cls-7" d="M116.27,83.33v4.9c6.78,8.44,19.55,11.81,28.11,13.14a7.51,7.51,0,0,0,8.2-4.82V78a7.54,7.54,0,0,0-7.89-7.51A40.33,40.33,0,0,0,116.27,83.33Z"/><path class="cls-8" d="M122.78,86.24v6.31a4.09,4.09,0,0,1-4.09,4.1h-9a4.09,4.09,0,0,1-4.09-4.1V86.24a4.1,4.1,0,0,1,4.09-4.1h9A4.1,4.1,0,0,1,122.78,86.24Z"/><path class="cls-9" d="M311.22,91.19A164.5,164.5,0,0,1,301.71,108c-24.19,37.46-59.88,58.43-97.2,67a185.69,185.69,0,0,1-41.73,4.69c-48.41,0-100.26-18.36-133.76-64.2q-2.67-3.64-5.17-7.52-1.92-3-3.73-6.06h0S128,193.3,311.22,91.19Z"/></g></g></svg>