<svg xmlns="http://www.w3.org/2000/svg" viewBox="0 0 331.19 254.8"><defs><style>.cls-1{fill:#323232;}.cls-2{fill:#4abcb9;}.cls-10,.cls-2,.cls-8{fill-rule:evenodd;}.cls-10,.cls-3,.cls-5{fill:#2f8982;}.cls-3{opacity:0.44;}.cls-4{opacity:0.46;}.cls-6,.cls-8{fill:#fff;}.cls-7{fill:#e8e8e8;}.cls-9{fill:#444;}</style></defs><title>Asset 2</title><g id="Layer_2" data-name="Layer 2"><g id="Layer_1-2" data-name="Layer 1"><path class="cls-1" d="M113.33,249.9a867.34,867.34,0,0,1-4-123.9l-15.1-.87-15.1-.88c-.14,2.4-3.22,58,4.09,128.52C88.21,254.18,103.89,257.72,113.33,249.9Z"/><path class="cls-1" d="M236.87,249.9a867.34,867.34,0,0,1-4-123.9l-15.1-.87-15.1-.88c-.14,2.4-3.23,58,4.09,128.52C211.75,254.18,227.42,257.72,236.87,249.9Z"/><path class="cls-2" d="M331.19,6.93c0,2.74,0,5.44-.15,8.15-.09,2.32-.25,4.63-.44,6.92q-.51,6.16-1.51,12.14C324.2,63.69,314.62,88,301.86,107.8a151.1,151.1,0,0,1-63.79,55.57q-2.19,1-4.4,2a159.56,159.56,0,0,1-16.86,6.2c-1.46.45-2.91.88-4.37,1.28a183.84,183.84,0,0,1-49.52,6.69c-37.27,0-76.58-10.89-108-36.82q-1.75-1.42-3.46-2.93a150.69,150.69,0,0,1-14.8-15c-1-1.18-2-2.39-3-3.62q-2.32-2.88-4.56-5.93v0q-2.62-3.6-5.11-7.43c-.43-.68-.87-1.36-1.3-2C12.93,90.14,5.13,71.73,0,50.25a216.12,216.12,0,0,0,21.63,9.61h0c3,1.16,6.24,2.31,9.59,3.42,1.14.39,2.3.77,3.48,1.15l2.21.68c4.93,1.52,10.15,2.95,15.66,4.25q1.76.42,3.57.81l.29.07h0a269.42,269.42,0,0,0,39.4,5.67c1.84.13,3.71.25,5.59.33,1.53.09,3.08.15,4.64.21,2.32.09,4.66.13,7,.16q9.68.11,19.65-.23c6.13-.19,12.34-.52,18.56-1a472.35,472.35,0,0,0,52.93-6.76l3.13-.6c1.39-.28,2.78-.55,4.17-.85s3.05-.63,4.56-1c6.05-1.29,12-2.73,17.84-4.3,1.51-.41,3-.82,4.5-1.25,4.12-1.16,8.18-2.39,12.14-3.69h0c6.15-2,12.11-4.16,17.81-6.48C299,38.12,322.32,21.26,331,0h0C331.12,2.33,331.18,4.63,331.19,6.93Z"/><path class="cls-3" d="M54.94,142.7q-1.75-1.42-3.46-2.93a150.69,150.69,0,0,1-14.8-15c-1-1.18-2-2.39-3-3.62-.34-.48-.66-1-1-1.43v0c-.11-23,.84-41.46,2-55.29l2.21.68c4.93,1.52,10.15,2.95,15.66,4.25q1.76.42,3.57.81A654.1,654.1,0,0,0,54.94,142.7Z"/><g class="cls-4"><path class="cls-5" d="M238.07,163.37q-2.19,1-4.4,2a159.56,159.56,0,0,1-16.86,6.2c-3.3-46.22-2.43-81.45-.71-105.29,6.05-1.29,12-2.73,17.84-4.3,1.51-.41,3-.82,4.5-1.25C236.55,82.21,235.1,116.72,238.07,163.37Z"/></g><path class="cls-6" d="M51.48,139.77c-3.66-3.23-7.23-6.67-10.64-10.34-1.42-1.5-2.8-3.05-4.16-4.63-2.62-3-5.13-6.21-7.58-9.55v0c-.11-21.75.9-39.1,2.13-51.94,1.85.63,3.74,1.23,5.69,1.83s3.82,1.15,5.79,1.71q4.77,1.33,9.87,2.54A564.94,564.94,0,0,0,51.48,139.77Z"/><path class="cls-7" d="M51.48,139.77c-3.66-3.23-7.23-6.67-10.64-10.34-.1-25.75.77-46.64,1.87-62.6q4.77,1.33,9.87,2.54A564.94,564.94,0,0,0,51.48,139.77Z"/><path class="cls-6" d="M233.67,165.35c-3.95,1.71-7.93,3.25-12,4.62-3.06,1.05-6.16,2-9.26,2.86-4-47.37-2.86-82.73-.9-105.6,3.16-.65,6.31-1.33,9.42-2.06,4.39-1,8.72-2.07,13-3.21C231.83,82.26,230,117.08,233.67,165.35Z"/><path class="cls-7" d="M233.67,165.35c-3.95,1.71-7.93,3.25-12,4.62-3.42-46.21-2.51-81.28-.74-104.8,4.39-1,8.72-2.07,13-3.21C231.83,82.26,230,117.08,233.67,165.35Z"/><path class="cls-8" d="M132.75,76.27l-14.7,30.87c-1.24,2.6-6.41,2.59-7.63,0L95.84,75.94c1.85.09,3.71.17,5.59.23,3.81.15,7.71.23,11.68.26C119.55,76.48,126.12,76.43,132.75,76.27Z"/><path class="cls-9" d="M311.36,91a164.5,164.5,0,0,1-9.51,16.81c-24.19,37.46-59.88,58.43-97.2,67a185.69,185.69,0,0,1-41.73,4.69c-48.41,0-100.26-18.36-133.76-64.2q-2.67-3.64-5.17-7.52-1.92-3-3.73-6.06h0S128.09,193.1,311.36,91Z"/><path class="cls-10" d="M204.24,68.68c-18.3,64.79-71.49,7.72-71.49,7.72,6.13-.19,12.34-.52,18.56-1A472.35,472.35,0,0,0,204.24,68.68Z"/><path class="cls-10" d="M95.84,75.93s-30.78,44.85-39.4-5.67A269.42,269.42,0,0,0,95.84,75.93Z"/></g></g></svg>