<svg xmlns="http://www.w3.org/2000/svg" viewBox="0 0 368.39 458.61"><defs><style>.cls-1{isolation:isolate;}.cls-10,.cls-2{fill:#323232;}.cls-3{fill:#f77ff7;}.cls-10,.cls-3,.cls-4,.cls-5{fill-rule:evenodd;}.cls-4{fill:#d05bd3;}.cls-5,.cls-6{fill:#c6c4bd;}.cls-5{opacity:0.34;}.cls-14,.cls-5,.cls-6,.cls-9{mix-blend-mode:multiply;}.cls-6{opacity:0.56;}.cls-7,.cls-8{fill:#fff;}.cls-8{opacity:0.71;}.cls-9{fill:#d8d8d8;opacity:0.31;}.cls-11,.cls-14{fill:#444;}.cls-12{fill:#4abcb9;}.cls-13{fill:#303030;}.cls-14{opacity:0.25;}</style></defs><title>Asset 9</title><g class="cls-1"><g id="Layer_2" data-name="Layer 2"><g id="Layer_1-2" data-name="Layer 1"><polygon class="cls-2" points="10.79 189.75 67.51 189.75 72.14 205.85 10.79 204.92 10.79 189.75"/><path class="cls-3" d="M368.39,286c0,2.75,0,5.45-.15,8.15q-.15,3.49-.44,6.92-.53,6.18-1.51,12.14c-3.59,21.66-9.69,40.54-17.73,56.85a164.5,164.5,0,0,1-9.51,16.81c-24.19,37.46-59.88,58.43-97.2,67a185.69,185.69,0,0,1-41.73,4.69c-48.41,0-100.26-18.36-133.76-64.2q-2.67-3.65-5.17-7.52-1.92-3-3.73-6.06c-9.51-16.22-17-35.33-21.63-57.59-.17-.78-.33-1.58-.49-2.37-.5-2.5-1-5.06-1.39-7.64a155.49,155.49,0,0,1-2-19.06c-.12-2.7-.15-5.4-.15-8.15.09-21.15,3.86-43.46,10.52-65.57q2.82-9.39,6.32-18.7c.85-2.3,1.76-4.58,2.68-6.87a308.31,308.31,0,0,1,29.4-55.75c1.94-2.92,4-5.81,6-8.64,1.58-2.21,3.2-4.38,4.84-6.52,26.49-34.63,59.09-60.23,92.23-66.74a83.65,83.65,0,0,1,16.32-1.64c33.69,0,67.82,21.42,96.43,53.68,5.53,6.23,10.85,12.86,15.93,19.82,2.4,3.29,4.72,6.63,7,10a310.8,310.8,0,0,1,29.39,55.75c.91,2.29,1.79,4.57,2.67,6.85,2.62,7,5,14,7,21.12a244,244,0,0,1,9.29,49.94C368.19,277.24,368.37,281.66,368.39,286Z"/><path class="cls-4" d="M368.39,286c0,2.74,0,5.44-.15,8.15q-.15,3.48-.44,6.92-.53,6.16-1.51,12.14c-4.9,29.55-14.47,53.9-27.23,73.66-33.18,51.35-87.95,71.71-138.94,71.71S94.36,438.25,61.19,386.9c-11.29-17.48-20.1-38.56-25.36-63.65-.17-.79-.33-1.58-.48-2.38a209.83,209.83,0,0,0,20,9.43h0c4.85,2,10.05,3.94,15.64,5.78A252,252,0,0,0,131.24,348c1.89.14,3.79.27,5.71.36,1.57.09,3.15.16,4.75.23,2.37.1,4.77.14,7.19.18,6.6.07,13.32,0,20.1-.25q9.42-.33,19-1.06a447,447,0,0,0,57.35-8.12,352.67,352.67,0,0,0,44.21-12.19h0c6.29-2.2,12.38-4.59,18.21-7.15,27.42-12,49.14-27.74,60.09-47.23Q368.36,279.48,368.39,286Z"/><path class="cls-4" d="M113.92,308s32.56,28.66,71.22,0S89,281.83,113.92,308Z"/><path class="cls-5" d="M368.39,286c0,2.74,0,5.44-.15,8.15q-.15,3.48-.44,6.92-.53,6.16-1.51,12.13c-4.9,29.56-14.48,53.91-27.24,73.67-24.19,37.45-59.88,58.42-97.2,67C379.48,253,183.79,57.23,183.79,57.23a83.75,83.75,0,0,1,16.33-1.64c40.19,0,81,30.49,112.36,73.51,2.4,3.29,4.72,6.62,7,10a309.44,309.44,0,0,1,29.39,55.74c.92,2.29,1.8,4.57,2.68,6.85,2.62,7,5,14.05,7,21.13a243.31,243.31,0,0,1,9.3,49.93Q368.36,279.47,368.39,286Z"/><path class="cls-6" d="M296.55,109.27c-113.3,53.74-185.24,25-205,14.7,26.49-34.63,59.09-60.23,92.23-66.74a83.65,83.65,0,0,1,16.32-1.64C233.81,55.59,267.94,77,296.55,109.27Z"/><path class="cls-7" d="M87.41,159.18a4.58,4.58,0,0,1-1.84-.37,4.73,4.73,0,0,1-2.52-6.19c11.78-28,32.22-46.3,33.09-47.06a4.72,4.72,0,1,1,6.26,7.07c-.24.22-19.74,17.74-30.64,43.66A4.71,4.71,0,0,1,87.41,159.18Z"/><path class="cls-8" d="M126.05,213.37a51.28,51.28,0,0,1-51.28,51.28h-.84A51.33,51.33,0,0,1,26.05,229.4a51.36,51.36,0,0,1,59.2-66.25,50.38,50.38,0,0,1,8,2.39,51.3,51.3,0,0,1,32.76,47.83Z"/><circle class="cls-8" cx="217.96" cy="213.37" r="51.28" transform="translate(-56.71 80.74) rotate(-18.61)"/><polygon class="cls-2" points="41.46 164 41.47 164 41.46 164 41.46 164"/><path class="cls-2" d="M353.28,199.75l-3.07-7.61a3.81,3.81,0,0,0-3.54-2.39H292.21s-13.69-.49-20-7.83c-4.29-4.95-12.42-11.35-17.29-15q-1.87-1.5-3.87-2.85l-.08-.06h0a59.35,59.35,0,0,0-75,7.47c-5.2,4.86-9.69,10.19-14.32,15.4-5.88,6.61-9.36,3.37-15.23,3.37s-9.35,3.24-15.22-3.37c-4.64-5.21-9.13-10.54-14.33-15.4A59.61,59.61,0,0,0,74.6,154c-12.19,0-24.25,3.68-33.13,10,0,0,.13,0,.08.06-1.33.9-2.53,1.85-3.78,2.85-4.87,3.66-13.21,10.06-17.5,15C13.91,189.26,0,189.75,0,189.75v15.17s8.32-.49,11,2.7c1.59,1.87,3.3,10.91,6.1,20.37a59.91,59.91,0,0,0,3.47,9.74,41,41,0,0,0,4.6,8.31h0a59.36,59.36,0,0,0,103.63-8.18l0-.06.14-.23c4.26-7.23,8.55-27,10.49-30.19s6.85-3.43,6.85-3.43,4.9.25,6.85,3.43,6.23,23,10.49,30.19l.14.23s0,0,0,.06A59.36,59.36,0,0,0,267.52,246h0a40.47,40.47,0,0,0,4.56-8.31A58.5,58.5,0,0,0,275.5,228c2.79-9.46,4.37-18.5,6-20.37,2.69-3.19,10.75-2.7,10.75-2.7V205h57.53A3.82,3.82,0,0,0,353.28,199.75ZM76.46,264.62A51.28,51.28,0,1,1,126,215.05,51.28,51.28,0,0,1,76.46,264.62Zm143.18,0a51.28,51.28,0,1,1,49.57-49.57A51.28,51.28,0,0,1,219.64,264.62Z"/><path class="cls-9" d="M114,180.33,73.93,264.64a51.11,51.11,0,0,1-31.46-11.45l42.78-90a50.38,50.38,0,0,1,8,2.39A51.35,51.35,0,0,1,114,180.33Z"/><path class="cls-9" d="M93.29,165.54l-43.9,92.39A51.48,51.48,0,0,1,26.05,229.4l30.37-63.93a51.8,51.8,0,0,1,28.83-2.32A50.38,50.38,0,0,1,93.29,165.54Z"/><path class="cls-9" d="M257.21,180.33l-40.06,84.31a51.11,51.11,0,0,1-31.46-11.45l42.78-90a50.38,50.38,0,0,1,8,2.39A51.49,51.49,0,0,1,257.21,180.33Z"/><path class="cls-9" d="M236.51,165.54l-43.9,92.39a50.68,50.68,0,0,1-6.92-4.74,51.29,51.29,0,0,1-16.42-23.79l30.37-63.93a51.8,51.8,0,0,1,28.83-2.32A50.38,50.38,0,0,1,236.51,165.54Z"/><path class="cls-10" d="M82.6,288.89c-18.56,11.19-43.34,3.26-49.2-8.7-7.49-15.28,7.54-25.43,21.32-24.43,17.87,1.3,12-10-.12-11.31-20.45-2.27-31.55,19.86-27.6,37,1.94,8.42,7.34,16.24,16.55,22.5,25.32,17.21,87.35,11.85,103.89-14.14C164,315.8,226,321.16,251.33,304c9.21-6.26,14.61-14.08,16.55-22.5,3.95-17.14-7.15-39.27-27.6-37-12.13,1.35-18,12.61-.12,11.31,13.78-1,28.81,9.15,21.32,24.43-5.86,12-30.64,19.89-49.2,8.7C195,278.49,161,234,147.44,259.67,133.86,234,99.85,278.49,82.6,288.89Z"/><path class="cls-11" d="M252.46,125.18c-2.39,1-4.76,2-7.14,2.92-78,30.59-145.52,11.63-159.28-7.32-14.18-19.54,27.82-41,27.82-41s0,0,0,0c5-19.28,85.67-3,119.89-9.24a32.88,32.88,0,0,0,9.52-3c6.93-3.68,17-3.53,26.14-.64C293.16,74.33,310.88,100.17,252.46,125.18Z"/><path class="cls-12" d="M268.65,96.27c-10.88,9.46-26.37,15-43.12,18-44.47,8-97.89-1.64-97.89-1.64-23-6.93-16.4-20.84-16.4-20.84s1.06-4.8,2.62-12c0,0,0,0,0,0,.18-.81.36-1.65.55-2.52,3.29-15.16,8.27-38.52,10.69-51.6C128.89,5.12,161.67-1.81,176.47.39,180.86,1,190,2.26,200.79,3.64,215.85,5.57,234,7.84,246.4,9.38a19.35,19.35,0,0,1,16.74,16.28l6.28,41.21.27,1.74L272.34,86A11.31,11.31,0,0,1,268.65,96.27Z"/><path class="cls-11" d="M269.69,68.61a2.73,2.73,0,0,1-.25.23c-39.74,34.55-141,16.31-141,16.31-7.21-2.17-11.51-5-14-7.94,3.29-15.16,8.27-38.52,10.69-51.6a22,22,0,0,1,5.43-10.75l.1-.13c10.86-12.06,34-16.1,45.83-14.34C187,2,225.16,6.74,246.4,9.38a19.08,19.08,0,0,1,6.06,1.8h0a19.32,19.32,0,0,1,10.67,14.48Z"/><path class="cls-13" d="M252.46,11.18C227.31,6.83,185,24.35,151.27,26.86c-31.88,2.39-21.92-10.58-20.73-12l.1-.13c10.86-12.06,34-16.1,45.83-14.34C187,2,225.16,6.74,246.4,9.38A19.08,19.08,0,0,1,252.46,11.18Z"/><path class="cls-14" d="M252.46,125.18c-2.39,1-4.76,2-7.14,2.92-7.81-10.29-19.79-13.88-19.79-13.88,4.93-16.87,7.5-31.33,8.23-43.73,2.38-40.18-14.57-58.59-33-66.85C215.85,5.57,234,7.84,246.4,9.38a19.35,19.35,0,0,1,16.74,16.28l6.28,41.21C293.16,74.33,310.88,100.17,252.46,125.18Z"/></g></g></g></svg>