<svg xmlns="http://www.w3.org/2000/svg" viewBox="0 0 374.06 442.59"><defs><style>.cls-1{isolation:isolate;}.cls-2,.cls-8{fill:#323232;}.cls-3{fill:#515151;}.cls-4{fill:#191919;}.cls-5{fill:#f27c7c;}.cls-12,.cls-5,.cls-6,.cls-8{fill-rule:evenodd;}.cls-6{fill:#c65c5c;}.cls-7,.cls-9{fill:#fff;}.cls-9{opacity:0.71;}.cls-10,.cls-11{fill:#bcbcbc;mix-blend-mode:multiply;}.cls-10{opacity:0.13;}.cls-11{opacity:0.32;}.cls-12{fill:#494949;}</style></defs><title>Asset 16</title><g class="cls-1"><g id="Layer_2" data-name="Layer 2"><g id="Layer_1-2" data-name="Layer 1"><path class="cls-2" d="M308,41.88h0a12.46,12.46,0,0,1-.3,1.72c-2.52,10.09-11.35,29.55-33.4,32.11-16.74,2-33.82-9-41.08-14.41-2.3-1.71-3.62-2.86-3.62-2.86s-.11-.87-.24-2.41c-.15-1.72-.31-4.29-.33-7.38C229,32.54,232.74,2,262.35.13,300.64-2.27,309.4,30,308,41.88Z"/><path class="cls-3" d="M229.55,50.34c.33-2.48.78-4.69,1.29-7s1.12-4.53,1.81-6.75A70.72,70.72,0,0,1,238,23.71a38.81,38.81,0,0,1,8.56-11,24.52,24.52,0,0,1,5.8-3.78,23.8,23.8,0,0,1,6.55-1.88A22.34,22.34,0,0,0,247.76,14a36.32,36.32,0,0,0-6.61,11.22,66.27,66.27,0,0,0-3.4,12.64c-.37,2.16-.65,4.33-.86,6.5s-.35,4.41-.35,6.42Z"/><path class="cls-3" d="M235.74,51c.6-1.44,1.18-2.65,1.81-3.93s1.28-2.5,1.95-3.73q2-3.68,4.33-7.16A92.46,92.46,0,0,1,254.15,23.1a69.2,69.2,0,0,1,12.7-10.61A53.52,53.52,0,0,1,281.76,5.8a52.71,52.71,0,0,0-13.89,8.11A66.74,66.74,0,0,0,256.8,25.38a88.44,88.44,0,0,0-8.45,13.44Q246.53,42.35,245,46c-.5,1.21-1,2.43-1.44,3.66s-.89,2.5-1.21,3.62Z"/><path class="cls-4" d="M308,41.88h0a12.46,12.46,0,0,1-.3,1.72c-2.52,10.09-11.35,29.55-33.4,32.11-16.74,2-33.82-9-41.08-14.41A49.53,49.53,0,0,1,229.39,56c-2.25-3.63-2.76-6.38-.33-7.38,1.39-.57,3.75-.58,7.29.15C267.24,55.12,271.49,32.74,288,23,304.4,13.3,308,41.26,308,41.88Z"/><polygon class="cls-2" points="8.38 166.24 8.38 179.61 71.16 180.53 62.81 166.24 8.38 166.24"/><path class="cls-5" d="M374.05,270c0,2.74,0,5.44-.15,8.14-.09,2.33-.24,4.64-.43,6.92q-.53,6.18-1.52,12.14c-4.89,29.56-14.47,53.91-27.23,73.67-.62,1-1.24,1.9-1.88,2.84-24.14,35.67-58.95,55.8-95.32,64.18a185.75,185.75,0,0,1-41.73,4.69c-49.66,0-102.91-19.31-136.28-67.75l0,0c-.9-1.29-1.77-2.6-2.63-3.93-11.3-17.48-20.1-38.56-25.37-63.66q-.26-1.17-.48-2.37c-.5-2.5-1-5.06-1.4-7.64a157.48,157.48,0,0,1-2-19.06c-.11-2.7-.15-5.4-.15-8.14.1-21.16,3.87-43.47,10.52-65.57q2.82-9.41,6.33-18.7c.85-2.31,1.76-4.59,2.67-6.88a308.94,308.94,0,0,1,29.4-55.75c1.94-2.92,4-5.81,6-8.64q2.39-3.31,4.84-6.52a249.39,249.39,0,0,1,22-25.21C140.88,61.19,165,46,189.46,41.2a83.75,83.75,0,0,1,16.33-1.64c33.68,0,67.82,21.42,96.42,53.68,5.53,6.23,10.86,12.87,15.93,19.82,2.41,3.29,4.72,6.63,7,10a310.16,310.16,0,0,1,29.39,55.75c.92,2.29,1.8,4.57,2.68,6.85.55,1.5,1.11,3,1.64,4.51q3,8.26,5.38,16.62a243.28,243.28,0,0,1,9.29,49.93Q374,263.43,374.05,270Z"/><path class="cls-6" d="M374.06,270c0,2.74,0,5.45-.15,8.15-.09,2.33-.25,4.63-.43,6.92q-.53,6.17-1.52,12.14c-4.89,29.55-14.47,53.9-27.23,73.66-33.18,51.36-88,71.72-138.93,71.72S100,422.23,66.86,370.87c-11.29-17.48-20.09-38.56-25.36-63.65-.17-.78-.33-1.58-.48-2.37a212.42,212.42,0,0,0,20,9.42h0c4.85,2,10.05,4,15.64,5.79A252.05,252.05,0,0,0,136.91,332c1.89.14,3.79.27,5.72.37l4.74.23c2.37.09,4.78.14,7.2.17,6.59.07,13.31,0,20.09-.25q9.42-.33,19-1.06A445.25,445.25,0,0,0,251,323.33a351,351,0,0,0,44.21-12.19h0c6.29-2.2,12.38-4.59,18.21-7.14,27.42-12,49.14-27.75,60.09-47.23Q374,263.45,374.06,270Z"/><path class="cls-6" d="M119.59,292s32.56,28.66,71.22,0S94.7,265.8,119.59,292Z"/><path class="cls-7" d="M93.08,143.16a4.68,4.68,0,0,1-1.83-.37,4.73,4.73,0,0,1-2.53-6.19c11.78-28,32.22-46.31,33.09-47.07a4.73,4.73,0,0,1,6.26,7.08c-.24.21-19.74,17.73-30.64,43.65A4.71,4.71,0,0,1,93.08,143.16Z"/><path class="cls-8" d="M31.72,277.35c63.33,36.09,94.9,15,117.62,2.61,22.73,12.36,54.29,33.48,117.62-2.61-47.63,1.11-77.62-24.21-106.1-27.13a28,28,0,0,0-11.52,1.64,28,28,0,0,0-11.52-1.64C109.35,253.14,79.36,278.46,31.72,277.35Z"/><path class="cls-9" d="M111.34,241.5A56.52,56.52,0,0,1,56.2,259.25a61.25,61.25,0,0,1-6.2-1.78l-.9-.33A44.12,44.12,0,0,1,30.41,244.4c-7.78-9-10.89-20-12.92-28.12C14.3,203.49,13,181,23.88,171.87c9.47-7.86,27.66-8.92,39.79-9.4l5.12-.18a109.87,109.87,0,0,1,19.3,1.34q3.18.47,6.47,1.13c7.8,1.6,15.71,4.06,21.79,7.69a24.31,24.31,0,0,1,8.61,8C134.05,195.58,126.39,224.52,111.34,241.5Z"/><path class="cls-9" d="M282.2,216.28c-3,11.84-8.23,29.76-26.93,38.88a47.67,47.67,0,0,1-4.68,2A57.19,57.19,0,0,1,224,260.28a54.13,54.13,0,0,1-8.6-1.73,57.12,57.12,0,0,1-27-17.05c-15.05-17-22.71-45.92-13.63-61s44.24-18.68,56.18-18.17l1.61.06c7.35.28,18.23.54,27.93,2.78a51.52,51.52,0,0,1,6.46,1.88,29.72,29.72,0,0,1,8.9,4.86c5.35,4.45,7.76,12.14,8.44,20.32A77.52,77.52,0,0,1,282.2,216.28Z"/><path class="cls-10" d="M116.35,172.45,81.06,259.37a56.69,56.69,0,0,1-24.86-.12,61.25,61.25,0,0,1-6.2-1.78l38.09-93.84q3.18.47,6.47,1.13C102.36,166.36,110.27,168.82,116.35,172.45Z"/><path class="cls-11" d="M94.56,164.76,56.2,259.25a61.25,61.25,0,0,1-6.2-1.78l-.9-.33A44.12,44.12,0,0,1,30.41,244.4l33.26-81.93,5.12-.18a109.87,109.87,0,0,1,19.3,1.34Q91.27,164.1,94.56,164.76Z"/><path class="cls-11" d="M266.91,167l-43,93.27a54.13,54.13,0,0,1-8.6-1.73,56.55,56.55,0,0,1-23-13l40.17-83.23c7.35.28,18.23.54,27.93,2.78A51.52,51.52,0,0,1,266.91,167Z"/><path class="cls-11" d="M284.25,192.19l-29,63a47.67,47.67,0,0,1-4.68,2A57.19,57.19,0,0,1,224,260.28a54.13,54.13,0,0,1-8.6-1.73l45.09-93.42a51.52,51.52,0,0,1,6.46,1.88,29.72,29.72,0,0,1,8.9,4.86C281.16,176.32,283.57,184,284.25,192.19Z"/><path class="cls-12" d="M358.85,190.21C317.33,226.5,304,32.27,229.63,76.24S130,82.69,130.87,77.65s-11.61,5.09-11.61,5.09h0C140.88,61.2,165,46,189.46,41.2a83.74,83.74,0,0,1,16.33-1.63c33.68,0,67.82,21.42,96.43,53.68,5.53,6.23,10.85,12.86,15.93,19.82,2.4,3.29,4.71,6.63,7,10a309.19,309.19,0,0,1,29.39,55.75c.92,2.29,1.8,4.56,2.68,6.84Q358,188,358.85,190.21Z"/><path class="cls-2" d="M354.36,175.82l-3.24-7.67a3.12,3.12,0,0,0-2.88-1.91H298.68s-5-.49-10.78-1.24-32.78-7.92-49.21-7.92c-25.73,0-35.17,2.16-47.28,5.69s-18.89,8.39-22.42,7.89-13.1-2.15-19.16-2.15-15.63,1.64-19.16,2.15-10.34-4.36-22.45-7.89-21.61-5.69-47.34-5.69c-16.43,0-43.79,7.16-49.59,7.92S0,166.24,0,166.24v13.37a7.78,7.78,0,0,1,6.56,6.06c1.26,5.55,2.28,29.54,8.32,44.14,6.86,16.57,17.79,28.76,36.71,34.06s38.87,1.49,51.78-7.32c9.61-6.56,18.66-16.32,25.51-30A125.75,125.75,0,0,0,140,194a8.42,8.42,0,0,1-.89-1.22c.28.4.57.8.89,1.22,0,0,8.49-5.65,19.7,0a125.75,125.75,0,0,0,11.11,32.54c6.85,13.7,15.88,23.46,25.5,30,12.91,8.81,32.82,12.62,51.74,7.32s29.79-17.49,36.64-34.06c6.05-14.6,6.69-38.59,7.95-44.14a7.42,7.42,0,0,1,6.05-6.06l52.77.56A3.13,3.13,0,0,0,354.36,175.82Zm-243,65.68a56.53,56.53,0,0,1-62.22,15.64c-22.54-8.24-28.42-28.08-31.62-40.86S13,181,23.88,171.88s33.48-9.11,44.91-9.59c11.94-.5,47.08,3,56.17,18.16S126.39,224.52,111.33,241.5ZM282.2,216.28c-3.19,12.78-9.08,32.62-31.61,40.86a56.55,56.55,0,0,1-62.23-15.64c-15.05-17-22.71-45.92-13.62-61.05s44.23-18.66,56.17-18.16c11.42.48,34,.5,44.9,9.59S285.4,203.49,282.2,216.28Z"/></g></g></g></svg>