<svg xmlns="http://www.w3.org/2000/svg" viewBox="0 0 377.17 452.55"><defs><style>.cls-1{isolation:isolate;}.cls-14,.cls-2{fill:#493b35;}.cls-3{fill:#323232;}.cls-4{fill:#7afcca;}.cls-4,.cls-5,.cls-6,.cls-7{fill-rule:evenodd;}.cls-5{fill:#57d3a1;}.cls-6{fill:#473933;}.cls-7{fill:#c6c4bd;opacity:0.34;}.cls-10,.cls-11,.cls-13,.cls-14,.cls-7{mix-blend-mode:multiply;}.cls-16,.cls-8{fill:#fff;}.cls-8{opacity:0.71;}.cls-10,.cls-11,.cls-9{fill:#bcbcbc;}.cls-10{opacity:0.32;}.cls-11{opacity:0.13;}.cls-12,.cls-13{fill:#66554c;}.cls-13{opacity:0.23;}.cls-14{opacity:0.17;}.cls-15{fill:#f2edeb;}</style></defs><title>Asset 13</title><g class="cls-1"><g id="Layer_2" data-name="Layer 2"><g id="Layer_1-2" data-name="Layer 1"><path class="cls-2" d="M132.78,83s-70,21.63-70,82.13S133.47,123.78,132.78,83Z"/><path class="cls-3" d="M23.41,168.6H63.8c4.59,0,8.76,2.28,10.68,5.85h0c3.5,6.48-1.77,13.94-10.1,14.29L22,190.53Z"/><path class="cls-4" d="M377.17,280c0,2.74,0,5.44-.15,8.15q-.15,3.48-.44,6.92-.52,6.16-1.51,12.13c-4.9,29.56-14.48,53.91-27.24,73.67-24.19,37.45-59.88,58.42-97.2,67a185.75,185.75,0,0,1-41.73,4.69c-51,0-105.77-20.36-138.93-71.71-11.3-17.48-20.1-38.56-25.36-63.65-.17-.79-.34-1.58-.49-2.38-.5-2.5-1-5.05-1.4-7.64a155.54,155.54,0,0,1-1.94-19.05c-.12-2.71-.15-5.41-.15-8.15.09-21.16,3.86-43.47,10.52-65.57Q54,205,57.47,195.7c.85-2.31,1.76-4.59,2.68-6.88a307.59,307.59,0,0,1,29.4-55.74c1.94-2.93,4-5.82,6-8.65,27.32-37.9,61.89-66.34,97.07-73.26a83.75,83.75,0,0,1,16.33-1.64c40.19,0,81,30.49,112.36,73.51,2.4,3.29,4.72,6.62,7,10a310.12,310.12,0,0,1,29.4,55.74c.91,2.29,1.79,4.57,2.67,6.85,2.62,7,5,14.05,7,21.13a243.31,243.31,0,0,1,9.3,49.93Q377.14,273.4,377.17,280Z"/><path class="cls-5" d="M377.17,280c0,2.74,0,5.44-.15,8.15q-.15,3.48-.44,6.92-.52,6.16-1.51,12.14c-4.9,29.55-14.47,53.9-27.23,73.66-33.18,51.35-87.95,71.71-138.94,71.71S103.14,432.19,70,380.84c-11.29-17.48-20.1-38.56-25.36-63.65-.17-.79-.33-1.58-.48-2.38a209.83,209.83,0,0,0,20,9.43h0c4.85,2,10.05,3.94,15.64,5.78A252,252,0,0,0,140,342c1.89.14,3.79.27,5.71.36,1.57.09,3.15.16,4.75.23,2.37.1,4.77.14,7.19.18,6.6.07,13.32,0,20.1-.25q9.42-.33,19-1.06a447,447,0,0,0,57.35-8.12,352.67,352.67,0,0,0,44.21-12.19h0c6.29-2.2,12.38-4.59,18.21-7.15,27.42-12,49.14-27.74,60.09-47.23Q377.14,273.4,377.17,280Z"/><path class="cls-5" d="M128.22,301.93s32.56,28.66,71.22,0S103.33,275.77,128.22,301.93Z"/><path class="cls-6" d="M238.1,273.26c10.84-2.66,15.16,16.65,3.24,17-6.75.19-17.15-7-40.9-19.72A36.52,36.52,0,0,0,175,267c-5.52,1.22-12.6,5.51-14.82,6.92-2.22-1.41-9.3-5.7-14.82-6.92a36.52,36.52,0,0,0-25.44,3.5C96.16,283.19,85.77,290.42,79,290.23c-11.92-.32-7.61-19.63,3.24-17-8.94-7.49-28-1.13-27.34,16.67.43,11.52,8.89,24.48,25.61,28.08,22.59,4.86,44.63,0,79.65-18.81,35,18.81,57,23.67,79.65,18.81,16.72-3.6,25.18-16.56,25.61-28.08C266.1,272.13,247,265.77,238.1,273.26Z"/><path class="cls-7" d="M377.17,280c0,2.74,0,5.44-.15,8.15q-.15,3.48-.44,6.92-.52,6.16-1.51,12.13c-4.9,29.56-14.48,53.91-27.24,73.67-24.19,37.45-59.88,58.42-97.2,67C388.26,246.92,192.57,51.17,192.57,51.17a83.75,83.75,0,0,1,16.33-1.64c40.19,0,81,30.49,112.36,73.51,2.4,3.29,4.72,6.62,7,10a310.12,310.12,0,0,1,29.4,55.74c.91,2.29,1.79,4.57,2.67,6.85,2.62,7,5,14.05,7,21.13a243.31,243.31,0,0,1,9.3,49.93Q377.14,273.4,377.17,280Z"/><path class="cls-8" d="M123.09,235.44c-6.59,12.41-17.69,18.75-34.33,20.86-2.62.33-5.32.53-8.05.61a96.54,96.54,0,0,1-22.39-2,66.71,66.71,0,0,1-11-3.23,37.6,37.6,0,0,1-5.16-2.51c-4-2.36-7-7-9.38-12.39a103.12,103.12,0,0,1-5.86-19.57c-2.11-10-5.8-31.7,4.49-38.83,8.07-5.58,25.69-7.12,41.18-7,4.31,0,8.46.18,12.19.41,2.91.18,6.57.48,10.58,1,3.75.45,7.8,1.08,11.79,1.89,7.47,1.52,14.73,3.73,19.43,6.87A12.84,12.84,0,0,1,131,186C136.31,196.07,128.45,225.39,123.09,235.44Z"/><path class="cls-9" d="M25.1,178.91c0-1.56-4-2.82-8.9-2.82s-8.89,1.26-8.89,2.82,4,2.81,8.89,2.81S25.1,180.46,25.1,178.91Z"/><path class="cls-8" d="M285.82,217.21c-2.11,10-6.4,26.7-15.23,32C264.24,253,254,255.65,243,256.59a91.48,91.48,0,0,1-19-.29c-1.49-.19-2.94-.41-4.34-.67a56.27,56.27,0,0,1-10.75-3,36.15,36.15,0,0,1-16.35-12.5,40.87,40.87,0,0,1-2.9-4.67c-5.34-10.05-13.21-39.37-7.92-49.41S215,172.56,228,171.78c2-.13,4.15-.23,6.37-.3a189.16,189.16,0,0,1,23.58.6,95.85,95.85,0,0,1,11.55,1.74c4.83,1.07,9,2.55,11.86,4.56a14.21,14.21,0,0,1,5.09,6.93C290,194.89,287.45,209.49,285.82,217.21Z"/><path class="cls-9" d="M296.56,176.09c-4.91,0-8.89,1.26-8.89,2.82s4,2.81,8.89,2.81,8.9-1.26,8.9-2.81S301.48,176.09,296.56,176.09Z"/><path class="cls-10" d="M269.47,173.82l-49.8,81.81c-12.15-2.23-21-7.13-27.1-15.52l41.77-68.63C245.68,171.11,259.15,171.52,269.47,173.82Z"/><path class="cls-11" d="M126.6,181.51l-45.89,75.4a96.54,96.54,0,0,1-22.39-2,66.71,66.71,0,0,1-11-3.23l48-78.93c3.75.45,7.8,1.08,11.79,1.89C114.64,176.16,121.9,178.37,126.6,181.51Z"/><path class="cls-10" d="M107.17,174.64,58.32,254.91a54.18,54.18,0,0,1-16.14-5.74c-4-2.36-7-7-9.38-12.39l39.81-65.41c4.31,0,8.46.18,12.19.41A168.19,168.19,0,0,1,107.17,174.64Z"/><path class="cls-11" d="M286.42,185.31,243,256.59a91.48,91.48,0,0,1-19-.29c-1.49-.19-2.94-.41-4.34-.67a56.27,56.27,0,0,1-10.75-3l49-80.53a95.85,95.85,0,0,1,11.55,1.74c4.83,1.07,9,2.55,11.86,4.56A14.21,14.21,0,0,1,286.42,185.31Z"/><path class="cls-12" d="M350,171.36l-18.72-2.76a91.14,91.14,0,0,0-17.64-36.89c-1-1.21-2-2.42-3.08-3.61a75,75,0,0,0-36-22.22,80.2,80.2,0,0,0-18.25-2.3q-2.76-.1-5.7-.12h0C196.84,103.06,103,119.63,94.09,37.6a0,0,0,0,1,0,0h0a140.54,140.54,0,0,1,0-28.36,10.08,10.08,0,0,1,15.81-7.34c8,5.71,19.95,11.05,36.63,10.75C177.3,12.07,251,8.17,276.81,57.28a0,0,0,0,1,0,0c.88,1.67,1.71,3.41,2.47,5.22a77.19,77.19,0,0,1,3.86,11.56,15.94,15.94,0,0,0,10,11.15A79.64,79.64,0,0,1,317.05,99a84,84,0,0,1,20.77,26.2C344,137.08,348.54,152.17,350,171.36Z"/><path class="cls-3" d="M356.51,174.45h0a10.08,10.08,0,0,0-9.15-5.85H312.77c-39.63-12.68-102.23-7.39-127.07.8-9.21,3-20.07,7.35-29.32,7.35s-20.11-4.32-29.32-7.35c-24.83-8.19-87.44-13.48-127.06-.8l1.19,21.93s7.2-1.59,9.57,6.34,7.9,40.59,18,53.36c12.54,15.85,39.54,16.46,57.8,15.67,24.58-1,40.68-12,47.54-30.46s10.75-34.35,15.15-39.36a10.2,10.2,0,0,1,14.27,0c4.4,5,8.27,20.86,15.14,39.36s23,29.41,47.55,30.46c18.26.79,45.26.18,57.8-15.67,10.09-12.77,15.61-45.44,18-53.36s9.58-6.34,9.58-6.34l36.28-1.79A10.08,10.08,0,0,0,356.51,174.45ZM7.31,178.91c0-1.56,4-2.82,8.89-2.82s8.9,1.26,8.9,2.82-4,2.81-8.9,2.81S7.31,180.46,7.31,178.91ZM123.1,235.44c-6.61,12.41-17.7,18.75-34.34,20.86s-36.54-1.14-46.58-7.13c-8.83-5.26-13.12-21.92-15.24-32s-5.81-31.7,4.5-38.83,36.2-7.66,53.36-6.61c12.94.8,40.94,4.23,46.22,14.27S128.44,225.39,123.1,235.44Zm162.72-18.23c-2.11,10-6.4,26.7-15.23,32-10,6-29.94,9.25-46.58,7.13s-27.74-8.45-34.34-20.86c-5.35-10.05-13.21-39.36-7.93-49.4S215,172.57,228,171.77c17.16-1.05,43.06-.53,53.36,6.61S287.94,207.17,285.82,217.21Zm10.74-35.49c-4.91,0-8.89-1.26-8.89-2.81s4-2.82,8.89-2.82,8.9,1.26,8.9,2.82S301.48,181.72,296.56,181.72Z"/><path class="cls-13" d="M337.82,125.24c-7.53-6.37-20.3-13.53-24.22,6.47-1-1.21-2-2.42-3.08-3.61a75,75,0,0,0-36-22.22c-6.29-1.75-14.5-2.35-23.95-2.42h0C191.35,103,83.39,123.19,94.13,9.2a10,10,0,0,1,1.29-4.08s-1.4,55,31.19,52.19,75.3-8.15,121.06,21.48c25.2,16.32,31.26.89,31.62-16.26a77.19,77.19,0,0,1,3.86,11.56,15.94,15.94,0,0,0,10,11.15A79.64,79.64,0,0,1,317.05,99,84,84,0,0,1,337.82,125.24Z"/><path class="cls-13" d="M269.47,98s-5,2.36-13.2,5.58q-2.76-.1-5.7-.12h0C196.84,103.06,103,119.63,94.09,37.6c.3,1.71,10.87,59.07,72,53.48C228.2,85.41,233.22,110,269.47,98Z"/><path class="cls-14" d="M310.52,128.1a75,75,0,0,0-36-22.22c-6.29-1.75-14.5-2.35-23.95-2.42,45.08-3.67,26.25-46.15,26.25-46.15a74.85,74.85,0,0,1,6.33,16.78,15.94,15.94,0,0,0,10,11.15A79.64,79.64,0,0,1,317.05,99C296.74,102.7,310.52,128.1,310.52,128.1Z"/><path class="cls-15" d="M260.24,76.3a1.17,1.17,0,0,1-1.69,1.56c-6.08-4.65-15-10.94-20.26-12.11-8.51-1.89,12.22-10.45,24-1.33C272.85,72.68,249.19,58.72,260.24,76.3Z"/><path class="cls-15" d="M247.51,58s11.81-2.46,15.83,4S266.65,50.15,247.51,58Z"/><path class="cls-15" d="M253.41,53a14.16,14.16,0,0,1,11.9,5c5.12,5.91,9.14-5-1.73-9.22S271.61,53.7,253.41,53Z"/><path class="cls-16" d="M95.38,153.12A4.72,4.72,0,0,1,91,146.56c11.77-28,32.22-46.3,33.08-47.06a4.72,4.72,0,1,1,6.27,7.07c-.24.22-19.74,17.74-30.64,43.66A4.72,4.72,0,0,1,95.38,153.12Z"/></g></g></g></svg>