<svg xmlns="http://www.w3.org/2000/svg" viewBox="0 0 331.19 254.8"><defs><style>.cls-1{isolation:isolate;}.cls-2{fill:#60737f;}.cls-3{fill:#f4f4f4;}.cls-3,.cls-4,.cls-5,.cls-6,.cls-7{fill-rule:evenodd;}.cls-4{fill:#f7883c;}.cls-5{fill:#dd752f;opacity:0.21;mix-blend-mode:multiply;}.cls-6{fill:#c6c4bd;}.cls-7{fill:#494949;}.cls-8{fill:#738791;}</style></defs><title>Asset 4</title><g class="cls-1"><g id="Layer_2" data-name="Layer 2"><g id="Layer_1-2" data-name="Layer 1"><path class="cls-2" d="M115.76,249.9a867.34,867.34,0,0,1-4-123.9l-15.1-.87-15.1-.88c-.14,2.39-3.23,58,4.09,128.52C90.64,254.18,106.31,257.71,115.76,249.9Z"/><path class="cls-2" d="M249.4,249.9a864.63,864.63,0,0,1-4-123.9l-15.11-.87-15.1-.88c-.13,2.39-3.22,58,4.1,128.52C224.29,254.18,240,257.71,249.4,249.9Z"/><path class="cls-3" d="M331.19,6.93c0,2.74,0,5.44-.15,8.15-.09,2.32-.25,4.63-.44,6.92q-.51,6.16-1.51,12.14a213.61,213.61,0,0,1-11.68,43.13,172.59,172.59,0,0,1-15.55,30.53,150.68,150.68,0,0,1-47.7,46.89,156.36,156.36,0,0,1-16.09,8.68q-2.19,1-4.4,2a159.56,159.56,0,0,1-16.86,6.2c-1.46.45-2.91.88-4.37,1.28a183.84,183.84,0,0,1-49.52,6.69,186,186,0,0,1-43.83-5.18,168.49,168.49,0,0,1-32.34-11.43A153.27,153.27,0,0,1,54.94,142.7q-1.75-1.42-3.46-2.93a150.69,150.69,0,0,1-14.8-15c-1-1.18-2-2.39-3-3.62q-2.32-2.88-4.56-5.93v0q-2.62-3.6-5.11-7.43c-.43-.68-.87-1.36-1.3-2-2.2-3.53-4.31-7.2-6.3-11A191.45,191.45,0,0,1,0,50.25a216.12,216.12,0,0,0,21.63,9.61h0c3,1.16,6.24,2.31,9.59,3.42,1.14.39,2.3.77,3.48,1.15l2.21.68c4.93,1.52,10.15,2.95,15.66,4.25q1.76.42,3.57.81l.29.07h0q7,1.56,14.62,2.8l2.57.4q6.09.95,12.54,1.61h.09c3.12.34,6.32.62,9.58.85,1.12.08,2.23.15,3.37.21q1.1.08,2.22.12c1.53.09,3.08.15,4.64.21,1.86.07,3.73.11,5.63.14l1.4,0c1.57,0,3.14,0,4.73,0,2.28,0,4.58,0,6.88-.06,2.67,0,5.34-.1,8-.2q5.15-.16,10.35-.45c2.73-.14,5.46-.31,8.21-.51.93-.07,1.87-.13,2.8-.21a469.94,469.94,0,0,0,50.13-6.55l3.13-.6c1.39-.28,2.78-.55,4.17-.85s3.05-.63,4.56-1c6.05-1.29,12-2.73,17.84-4.3,1.51-.41,3-.82,4.5-1.25,4.12-1.16,8.18-2.39,12.14-3.69h0c6.15-2,12.11-4.16,17.81-6.48l1.16-.48q3.92-1.61,7.66-3.33c1.27-.58,2.51-1.16,3.74-1.76l0,0q3.12-1.48,6.09-3.06C308.36,30.65,324.2,16.68,331,0h0C331.12,2.33,331.18,4.63,331.19,6.93Z"/><path class="cls-4" d="M124.88,168.66l-5.79,5.68a168.49,168.49,0,0,1-32.34-11.43L88,156.64l12.81-64.07L94.64,85,93,83l6.22-6.86q1.1.08,2.22.12l2,.1.5,0,2.18.08h.37c1.74.07,3.49.1,5.26.13L117.5,83l-1.06,1.3h0l-.07.09-6.69,8.17,0,.08Z"/><path class="cls-5" d="M106.44,76.48v80.16H88l12.81-64.07L94.64,85,93,83l6.22-6.86q1.1.08,2.22.12l2,.1.5,0,2.18.08Z"/><path class="cls-6" d="M154.11,75.23,133.85,97.48l-27.78-21c2.32.09,4.66.13,7,.16q9.68.11,19.65-.23,5.15-.16,10.35-.45c2.73-.14,5.46-.31,8.21-.51C152.24,75.37,153.18,75.31,154.11,75.23Z"/><path class="cls-6" d="M101.43,76.26,82.33,92l-11.27-19,2.57.4c7,1.08,14.45,1.92,22.21,2.47C97.68,76.06,99.55,76.18,101.43,76.26Z"/><path class="cls-7" d="M254.16,154.69a156.36,156.36,0,0,1-16.09,8.68q-2.19,1-4.4,2a159.56,159.56,0,0,1-16.86,6.2c-1.46.45-2.91.88-4.37,1.28a183.84,183.84,0,0,1-49.52,6.69c-37.27,0-76.58-10.89-108-36.82q-1.75-1.42-3.46-2.93a150.69,150.69,0,0,1-14.8-15c-1-1.18-2-2.39-3-3.62q-2.32-2.88-4.56-5.93v0q-2.62-3.6-5.11-7.43c-.43-.68-.87-1.36-1.3-2-2.2-3.53-4.31-7.2-6.3-11-2.56-14.64-3.62-32.21,5.24-34.88h0c3,1.16,6.24,2.31,9.59,3.42,1.14.39,2.3.77,3.48,1.15l2.21.68c4.93,1.52,10.15,2.95,15.66,4.25q1.76.42,3.57.81l.29.07h0c5.46,1.21,11.19,2.29,17.19,3.2l32.85,70.1L143.1,76c2.73-.14,5.46-.31,8.21-.51a472.35,472.35,0,0,0,52.93-6.76l3.13-.6c1.39-.28,2.78-.55,4.17-.85s3.05-.63,4.56-1c6.05-1.29,12-2.73,17.84-4.3,1.51-.41,3-.82,4.5-1.25,4.12-1.16,8.18-2.39,12.14-3.69h0c6.15-2,12.11-4.16,17.81-6.48l1.16-.48C261.28,57.4,249.79,80.77,254.16,154.69Z"/><path class="cls-8" d="M300,110.64c-24.14,35.67-59,55.8-95.32,64.18a185.75,185.75,0,0,1-41.73,4.69c-49.66,0-102.91-19.31-136.28-67.75C28,113.52,94.25,198.06,300,110.64Z"/></g></g></g></svg>