<?xml version="1.0" encoding="utf-8"?>
<!-- Generator: Adobe Illustrator 21.0.0, SVG Export Plug-In . SVG Version: 6.00 Build 0)  -->
<svg version="1.1" id="Layer_1" xmlns="http://www.w3.org/2000/svg" xmlns:xlink="http://www.w3.org/1999/xlink" x="0px" y="0px"
	 width="1400px" height="980px" viewBox="0 0 1400 980" enable-background="new 0 0 1400 980" xml:space="preserve">
<g>
	<ellipse opacity="0.27" fill="#738791" cx="1140.6" cy="866.3" rx="123.8" ry="35.5"/>
	<path fill="#494949" d="M1102.2,813.2c0,0-5.8-2.9-11.2,0.8c-5.4,3.7-13.2,10.3-18.9,11.1c-5.7,0.8,10.4,17.6,17.3,13.8
		C1096.4,835,1109.7,822,1102.2,813.2z"/>
	<path fill="#F4F4F4" d="M1079.7,809.6l0.5,11.4c0.1,1.8,1.4,3.3,3.1,3.8c3,0.7,7.5,1.4,11-0.4c1.4-0.7,2.2-2.2,2.2-3.8l-0.6-13.4
		c-0.1-2.6-2.6-4.4-5.1-3.8l-8.1,2C1080.9,805.9,1079.6,807.7,1079.7,809.6z"/>
	<path fill="#F27C7C" d="M1110.2,849.8c-0.8,1.1-1.8,2.3-3.1,3.6v0c-2.7,2.7-6.3,5.4-10.1,6.3c-5.7,1.3-9.9,2.4-14.5,6.3
		c-0.3,0.3-0.7,0.6-1.1,0.9c-5.6,4.2-19.7,12.4-31.3,12.4c-12.5,0-21.3-2.3-20.3-9.9c0,0,0-0.3,0.2-0.9c0.1-0.3,0.2-0.6,0.3-0.9
		c1.1-2.9,4.6-9.2,15.6-16.5c0,0,0.4-0.2,1-0.6c1.3-0.9,3.7-2.5,5.5-4.4c0.5-0.5,1-1.1,1.4-1.7c0,0,8.5-13.1,14.4-19
		c1.9-1.9,3.5-3.1,4.4-2.9c4,0.9,14.6,2.6,13.7,8.5c-0.8,5.9,21.3-10.6,15.9-17.9c0,0,2.1-1.3,3.7,5.6c0.4,1.7,1,3.3,1.7,5.1
		c0.7,1.7,1.4,3.4,2,5.3c1.3,4.1,2.1,8.8,0.7,14.8C1110.3,843.9,1112.6,846.6,1110.2,849.8z"/>
	<path fill="#D8D0CA" d="M1066.1,849.7c-2,2.2-5.2-1.2-7.6-3.5c-1.5-1.4-4.2-0.8-6.1-0.1c0.5-0.5,1-1.1,1.4-1.7
		c0,0,8.5-13.1,14.4-19c8.9-0.1,11,1.9,13.2,3.2C1084,830.1,1068.1,847.5,1066.1,849.7z"/>
	<path fill="#D8D0CA" d="M1110.2,849.8c-0.8,1.1-1.8,2.3-3.1,3.6v0c-2.7,2.7-6.3,5.4-10.1,6.3c-5.7,1.3-9.9,2.4-14.5,6.3
		c-0.3,0.3-0.7,0.6-1.1,0.9c-5.6,4.2-19.7,12.4-31.3,12.4c-12.5,0-21.3-2.3-20.3-9.9c0,0,0-0.3,0.2-0.9c0.1-0.3,0.2-0.6,0.3-0.9
		c3.6,10.4,22,2.9,34.6,1.4c17.7-2.1,22.8-23,35.2-27.8c6-2.3,8.6-7.4,9.6-12.1c1.3,4.1,2.1,8.8,0.7,14.8
		C1110.3,843.9,1112.6,846.6,1110.2,849.8z"/>
	<path fill="#494949" d="M1110.2,849.8c-0.8,1.1-1.8,2.3-3.1,3.6c-2-3.5-1.4-11.9,0.6-15.4c2-3.5,0-14.2,0-14.2
		c2.1,5.4,4.8,11.4,2.6,20.1C1110.3,843.9,1112.6,846.6,1110.2,849.8z"/>
	<path fill="#EDEDED" d="M1081.5,866.9c-5.6,4.2-19.7,12.4-31.3,12.4c-12.5,0-21.3-2.3-20.3-9.9c0,0,0-0.3,0.2-0.9
		c0.7-2.4,3.6-9.3,15.9-17.4c0,0,0.4-0.2,1-0.6c1.8-0.6,3.6-0.9,5.1-0.7c6.8,1.1,6.8,20.5,23.1,16.9
		C1078.1,866.1,1080.1,866.2,1081.5,866.9z"/>
	<path fill="#494949" d="M1110.2,849.8c-2.4,3.2-7.6,8.6-13.2,9.9s-9.9,2.4-14.5,6.3c-4.6,3.9-19.9,13.3-32.4,13.3
		s-21.3-2.3-20.3-9.9c0,0,0-0.3,0.2-0.9c0.2,0.5,5.3,10.2,24.3,6.8c19.5-3.5,24.4-14,39.8-19.2c15.3-5.2,16.2-12.2,16.2-12.2
		S1112.6,846.6,1110.2,849.8z"/>
	<g>
		<path fill="#EDEDED" d="M1067.2,844.7c-0.1,0-0.2,0-0.2,0c-5.5-1.5-14.1,0-14.2,0c-0.5,0.1-0.9-0.2-1-0.7c-0.1-0.5,0.2-0.9,0.7-1
			c0.4-0.1,9.1-1.6,14.9,0c0.5,0.1,0.7,0.6,0.6,1C1067.9,844.5,1067.6,844.7,1067.2,844.7z"/>
	</g>
	<g>
		<path fill="#EDEDED" d="M1069.6,841.1c-0.1,0-0.2,0-0.2,0c-5.5-1.5-14.1,0-14.2,0c-0.5,0.1-0.9-0.2-1-0.7c-0.1-0.5,0.2-0.9,0.7-1
			c0.4-0.1,9.1-1.6,14.9,0c0.5,0.1,0.7,0.6,0.6,1C1070.3,840.8,1070,841.1,1069.6,841.1z"/>
	</g>
	<g>
		<path fill="#EDEDED" d="M1072.1,837.4c-0.1,0-0.2,0-0.2,0c-5.5-1.5-14.1,0-14.2,0c-0.5,0.1-0.9-0.2-1-0.7c-0.1-0.5,0.2-0.9,0.7-1
			c0.4-0.1,9.1-1.6,14.9,0c0.5,0.1,0.7,0.6,0.6,1C1072.9,837.1,1072.5,837.4,1072.1,837.4z"/>
	</g>
	<g>
		<path fill="#EDEDED" d="M1074,834.4c-0.1,0-0.2,0-0.2,0c-5.5-1.5-14.1,0-14.2,0c-0.5,0.1-0.9-0.2-1-0.7c-0.1-0.5,0.2-0.9,0.7-1
			c0.4-0.1,9.1-1.6,14.9,0c0.5,0.1,0.7,0.6,0.6,1C1074.7,834.1,1074.4,834.4,1074,834.4z"/>
	</g>
	<g>
		<path fill="#EDEDED" d="M1076.9,830.1c-0.1,0-0.2,0-0.2,0c-5.5-1.5-14.1,0-14.2,0c-0.5,0.1-0.9-0.2-1-0.7c-0.1-0.5,0.2-0.9,0.7-1
			c0.4-0.1,9.1-1.6,14.9,0c0.5,0.1,0.7,0.6,0.6,1C1077.6,829.9,1077.2,830.1,1076.9,830.1z"/>
	</g>
	<g>
		<path fill="#EDEDED" d="M1071.1,836.2c-0.3,0-0.6-0.2-0.7-0.4c-1.4-2.6-7.4-7.8-7.4-7.8c-0.4-0.3-0.4-0.8-0.1-1.2
			c0.3-0.4,0.8-0.4,1.2-0.1c0.3,0.2,6.3,5.4,7.8,8.3c0.2,0.4,0.1,0.9-0.3,1.1C1071.4,836.1,1071.2,836.2,1071.1,836.2z"/>
	</g>
	<g>
		<path fill="#EDEDED" d="M1069.3,840.7c-0.3,0-0.6-0.2-0.7-0.4c-1.4-2.6-7.4-7.8-7.4-7.8c-0.4-0.3-0.4-0.8-0.1-1.2s0.8-0.4,1.2-0.1
			c0.3,0.2,6.3,5.4,7.8,8.3c0.2,0.4,0.1,0.9-0.3,1.1C1069.5,840.7,1069.4,840.7,1069.3,840.7z"/>
	</g>
	<g>
		<path fill="#EDEDED" d="M1066.1,844c-0.3,0-0.6-0.2-0.7-0.4c-1.4-2.6-7.4-7.8-7.4-7.8c-0.4-0.3-0.4-0.8-0.1-1.2s0.8-0.4,1.2-0.1
			c0.3,0.2,6.3,5.4,7.8,8.3c0.2,0.4,0.1,0.9-0.3,1.1C1066.4,844,1066.3,844,1066.1,844z"/>
	</g>
	<g>
		<path fill="#EDEDED" d="M1064.2,847.8c-0.3,0-0.6-0.2-0.7-0.4c-1.4-2.6-7.4-7.8-7.4-7.8c-0.4-0.3-0.4-0.8-0.1-1.2
			c0.3-0.4,0.8-0.4,1.2-0.1c0.3,0.2,6.3,5.4,7.8,8.3c0.2,0.4,0.1,0.9-0.3,1.1C1064.4,847.7,1064.3,847.8,1064.2,847.8z"/>
	</g>
	<path fill="#494949" d="M1238.8,814.3c0,0-6.5-3.2-12.5,0.9c-6.1,4.2-14.7,11.5-21,12.4c-6.4,0.9,11.6,19.6,19.3,15.3
		C1232.3,838.7,1247.1,824.2,1238.8,814.3z"/>
	<path fill="#F4F4F4" d="M1213.7,810.3l0.6,12.7c0.1,2,1.5,3.7,3.5,4.2c3.3,0.8,8.4,1.5,12.3-0.4c1.6-0.8,2.5-2.5,2.4-4.2l-0.6-14.9
		c-0.1-2.9-2.9-5-5.7-4.2l-9,2.3C1215.1,806.2,1213.6,808.2,1213.7,810.3z"/>
	<path fill="#F27C7C" d="M1247.7,855.2c-0.9,1.2-2.1,2.6-3.5,4v0c-3,3-7,6-11.3,7c-6.3,1.4-11,2.7-16.1,7c-0.3,0.3-0.8,0.6-1.2,1
		c-6.2,4.7-22,13.8-35,13.8c-13.9,0-23.8-2.5-22.7-11c0,0,0-0.3,0.2-1c0.1-0.3,0.2-0.6,0.3-1c1.2-3.3,5.2-10.3,17.4-18.4
		c0,0,0.4-0.3,1.1-0.7c1.5-1,4.2-2.8,6.1-4.9c0.6-0.6,1.1-1.2,1.5-1.9c0,0,9.5-14.6,16.1-21.2c2.1-2.1,3.9-3.4,5-3.2
		c4.4,1,16.2,2.9,15.3,9.5c-0.9,6.6,23.7-11.8,17.7-19.9c0,0,2.4-1.5,4.2,6.2c0.4,1.9,1.1,3.7,1.9,5.7c0.7,1.9,1.5,3.8,2.2,5.9
		c1.5,4.6,2.4,9.8,0.7,16.5C1247.8,848.6,1250.4,851.6,1247.7,855.2z"/>
	<path fill="#D8D0CA" d="M1198.6,855.1c-2.2,2.5-5.8-1.4-8.5-3.9c-1.7-1.6-4.7-0.9-6.8-0.1c0.6-0.6,1.1-1.2,1.5-1.9
		c0,0,9.5-14.6,16.1-21.2c10-0.1,12.2,2.1,14.8,3.6C1218.5,833.2,1200.8,852.6,1198.6,855.1z"/>
	<path fill="#D8D0CA" d="M1247.7,855.2c-0.9,1.2-2.1,2.6-3.5,4v0c-3,3-7,6-11.3,7c-6.3,1.4-11,2.7-16.1,7c-0.3,0.3-0.8,0.6-1.2,1
		c-6.2,4.7-22,13.8-35,13.8c-13.9,0-23.8-2.5-22.7-11c0,0,0-0.3,0.2-1c0.1-0.3,0.2-0.6,0.3-1c4,11.6,24.5,3.2,38.6,1.5
		c19.7-2.4,25.4-25.7,39.2-31c6.7-2.6,9.5-8.3,10.7-13.5c1.5,4.6,2.4,9.8,0.7,16.5C1247.8,848.6,1250.4,851.6,1247.7,855.2z"/>
	<path fill="#494949" d="M1247.7,855.2c-0.9,1.2-2.1,2.6-3.5,4c-2.2-4-1.6-13.2,0.6-17.2c2.2-3.9,0-15.8,0-15.8
		c2.4,6,5.3,12.7,2.9,22.4C1247.8,848.6,1250.4,851.6,1247.7,855.2z"/>
	<path fill="#EDEDED" d="M1215.7,874.2c-6.2,4.7-22,13.8-35,13.8c-13.9,0-23.8-2.5-22.7-11c0,0,0-0.3,0.2-1
		c0.8-2.6,4-10.3,17.7-19.4c0,0,0.4-0.3,1.1-0.7c2-0.7,4-1,5.7-0.7c7.6,1.2,7.5,22.9,25.8,18.9
		C1211.9,873.3,1214.2,873.5,1215.7,874.2z"/>
	<path fill="#494949" d="M1247.7,855.2c-2.7,3.6-8.4,9.6-14.7,11c-6.3,1.4-11,2.7-16.1,7c-5.1,4.3-22.2,14.8-36.2,14.8
		c-13.9,0-23.8-2.5-22.7-11c0,0,0-0.3,0.2-1c0.3,0.5,5.9,11.4,27.1,7.6c21.8-3.9,27.3-15.6,44.4-21.4c17.1-5.8,18.1-13.6,18.1-13.6
		S1250.4,851.6,1247.7,855.2z"/>
	<g>
		<path fill="#EDEDED" d="M1199.8,849.5c-0.1,0-0.2,0-0.3,0c-6.1-1.7-15.7,0-15.8,0c-0.5,0.1-1-0.2-1.1-0.8c-0.1-0.5,0.2-1,0.8-1.1
			c0.4-0.1,10.1-1.8,16.7,0c0.5,0.1,0.8,0.7,0.7,1.2C1200.6,849.2,1200.2,849.5,1199.8,849.5z"/>
	</g>
	<g>
		<path fill="#EDEDED" d="M1202.4,845.4c-0.1,0-0.2,0-0.3,0c-6.1-1.7-15.7,0-15.8,0c-0.5,0.1-1-0.2-1.1-0.8c-0.1-0.5,0.2-1,0.8-1.1
			c0.4-0.1,10.1-1.8,16.7,0c0.5,0.1,0.8,0.7,0.7,1.2C1203.2,845.2,1202.8,845.4,1202.4,845.4z"/>
	</g>
	<g>
		<path fill="#EDEDED" d="M1205.3,841.3c-0.1,0-0.2,0-0.3,0c-6.1-1.7-15.7,0-15.8,0c-0.5,0.1-1-0.2-1.1-0.8c-0.1-0.5,0.2-1,0.8-1.1
			c0.4-0.1,10.1-1.8,16.7,0c0.5,0.1,0.8,0.7,0.7,1.2C1206.1,841.1,1205.7,841.3,1205.3,841.3z"/>
	</g>
	<g>
		<path fill="#EDEDED" d="M1207.4,838c-0.1,0-0.2,0-0.3,0c-6.1-1.7-15.7,0-15.8,0c-0.5,0.1-1-0.2-1.1-0.8c-0.1-0.5,0.2-1,0.8-1.1
			c0.4-0.1,10.1-1.8,16.7,0c0.5,0.1,0.8,0.7,0.7,1.2C1208.2,837.7,1207.8,838,1207.4,838z"/>
	</g>
	<g>
		<path fill="#EDEDED" d="M1210.5,833.2c-0.1,0-0.2,0-0.3,0c-6.1-1.7-15.7,0-15.8,0c-0.5,0.1-1-0.2-1.1-0.8c-0.1-0.5,0.2-1,0.8-1.1
			c0.4-0.1,10.1-1.8,16.7,0c0.5,0.1,0.8,0.7,0.7,1.2C1211.3,833,1211,833.2,1210.5,833.2z"/>
	</g>
	<g>
		<path fill="#EDEDED" d="M1204.1,840c-0.3,0-0.7-0.2-0.8-0.5c-1.6-2.9-8.2-8.7-8.3-8.7c-0.4-0.3-0.4-0.9-0.1-1.3
			c0.3-0.4,0.9-0.4,1.3-0.1c0.3,0.2,7,6.1,8.7,9.2c0.2,0.5,0.1,1-0.4,1.3C1204.4,839.9,1204.3,840,1204.1,840z"/>
	</g>
	<g>
		<path fill="#EDEDED" d="M1202.1,845c-0.3,0-0.7-0.2-0.8-0.5c-1.6-2.9-8.2-8.7-8.3-8.7c-0.4-0.3-0.4-0.9-0.1-1.3
			c0.3-0.4,0.9-0.4,1.3-0.1c0.3,0.2,7,6.1,8.7,9.2c0.2,0.5,0.1,1-0.4,1.3C1202.4,845,1202.2,845,1202.1,845z"/>
	</g>
	<g>
		<path fill="#EDEDED" d="M1198.6,848.7c-0.3,0-0.7-0.2-0.8-0.5c-1.6-2.9-8.2-8.7-8.3-8.7c-0.4-0.3-0.4-0.9-0.1-1.3
			c0.3-0.4,0.9-0.4,1.3-0.1c0.3,0.2,7,6.1,8.7,9.2c0.2,0.5,0.1,1-0.4,1.3C1198.9,848.7,1198.7,848.7,1198.6,848.7z"/>
	</g>
	<g>
		<path fill="#EDEDED" d="M1196.4,852.9c-0.3,0-0.7-0.2-0.8-0.5c-1.6-2.9-8.2-8.7-8.3-8.7c-0.4-0.3-0.4-0.9-0.1-1.3
			c0.3-0.4,0.9-0.4,1.3-0.1c0.3,0.2,7,6.1,8.7,9.2c0.2,0.5,0.1,1-0.4,1.3C1196.7,852.9,1196.5,852.9,1196.4,852.9z"/>
	</g>
	<path fill="#60737F" d="M1104.7,804.8c-7.1-68.1-4-123.3-4-123.9l-15.1-0.9l-15.1-0.9c-0.1,2.4-3.2,58,4.1,128.5
		C1079.6,809.1,1095.3,812.7,1104.7,804.8z"/>
	<path fill="#60737F" d="M1238.4,804.8c-7.1-68.1-4-123.3-4-123.9l-15.1-0.9l-15.1-0.9c-0.1,2.4-3.2,58,4.1,128.5
		C1213.2,809.1,1228.9,812.7,1238.4,804.8z"/>
	<path fill="#323232" d="M1254.1,333.8C1254.1,333.8,1254.1,333.8,1254.1,333.8c-0.1,0.6-0.2,1.2-0.3,1.7
		c-2.5,10.1-11.3,29.5-33.4,32.1c-16.7,1.9-33.8-9-41.1-14.4c-2.3-1.7-3.6-2.9-3.6-2.9s-0.1-0.9-0.2-2.4c-0.1-1.7-0.3-4.3-0.3-7.4
		c-0.1-16.1,3.7-46.7,33.3-48.5C1246.7,289.6,1255.5,321.8,1254.1,333.8z"/>
	<g>
		<path fill="#515151" d="M1175.6,342.2c0.3-2.5,0.8-4.7,1.3-7c0.5-2.3,1.1-4.5,1.8-6.7c1.4-4.4,3.1-8.8,5.3-12.9
			c2.3-4.1,5-8,8.6-11c1.8-1.5,3.7-2.8,5.8-3.8c2.1-1,4.3-1.6,6.5-1.9c-2.2,0.6-4.3,1.5-6.1,2.7c-1.9,1.2-3.5,2.7-5,4.3
			c-2.9,3.2-5,7.2-6.6,11.2c-1.6,4.1-2.7,8.3-3.4,12.6c-0.4,2.2-0.7,4.3-0.9,6.5c-0.2,2.1-0.3,4.4-0.3,6.4L1175.6,342.2z"/>
	</g>
	<g>
		<path fill="#515151" d="M1181.8,342.9c0.6-1.4,1.2-2.6,1.8-3.9c0.6-1.3,1.3-2.5,1.9-3.7c1.4-2.4,2.8-4.8,4.3-7.2
			c3.1-4.6,6.5-9,10.3-13.1c3.8-4,8.1-7.6,12.7-10.6c4.6-3,9.7-5.3,14.9-6.7c-5.1,2-9.7,4.7-13.9,8.1c-4.2,3.4-7.8,7.3-11.1,11.5
			c-3.2,4.2-6,8.7-8.4,13.4c-1.2,2.3-2.3,4.7-3.3,7.2c-0.5,1.2-1,2.4-1.4,3.7c-0.4,1.2-0.9,2.5-1.2,3.6L1181.8,342.9z"/>
	</g>
	<path fill="#191919" d="M1254.1,333.8C1254.1,333.8,1254.1,333.8,1254.1,333.8c-0.1,0.6-0.2,1.2-0.3,1.7
		c-2.5,10.1-11.3,29.5-33.4,32.1c-16.7,1.9-33.8-9-41.1-14.4c-1.6-1.9-2.9-3.7-3.9-5.3c-2.2-3.6-2.8-6.4-0.3-7.4
		c1.4-0.6,3.7-0.6,7.3,0.2c30.9,6.3,35.1-16.1,51.7-25.8C1250.5,305.2,1254,333.1,1254.1,333.8z"/>
	<polygon fill="#323232" points="954.5,458.1 954.5,471.5 1017.2,472.4 1008.9,458.1 	"/>
	<path fill-rule="evenodd" clip-rule="evenodd" fill="#F27C7C" d="M1320.1,561.9c0,2.7,0,5.4-0.1,8.1c-0.1,2.3-0.2,4.6-0.4,6.9
		c-0.3,4.1-0.8,8.2-1.5,12.1c-4.9,29.6-14.5,53.9-27.2,73.7c-0.6,1-1.2,1.9-1.9,2.8c-24.1,35.7-58.9,55.8-95.3,64.2
		c-13.8,3.2-27.9,4.7-41.7,4.7c-49.7,0-102.9-19.3-136.3-67.8c0,0,0,0,0,0c-0.9-1.3-1.8-2.6-2.6-3.9c-11.3-17.5-20.1-38.6-25.4-63.7
		c-0.2-0.8-0.3-1.6-0.5-2.4c-0.5-2.5-1-5.1-1.4-7.6c-1-6.2-1.7-12.5-2-19.1c-0.1-2.7-0.2-5.4-0.2-8.1c0.1-21.2,3.9-43.5,10.5-65.6
		c1.9-6.3,4-12.5,6.3-18.7c0.8-2.3,1.8-4.6,2.7-6.9c7.9-19.6,17.9-38.5,29.4-55.8c1.9-2.9,4-5.8,6-8.6c1.6-2.2,3.2-4.4,4.8-6.5
		c7-9.1,14.3-17.6,22-25.2c21.6-21.5,45.8-36.7,70.2-41.5c5.4-1.1,10.9-1.6,16.3-1.6c33.7,0,67.8,21.4,96.4,53.7
		c5.5,6.2,10.9,12.9,15.9,19.8c2.4,3.3,4.7,6.6,7,10c11.5,17.3,21.5,36.2,29.4,55.8c0.9,2.3,1.8,4.6,2.7,6.8c0.5,1.5,1.1,3,1.6,4.5
		c2,5.5,3.8,11.1,5.4,16.6c4.9,16.8,8.1,33.6,9.3,49.9C1319.9,553.1,1320.1,557.5,1320.1,561.9z"/>
	<path fill-rule="evenodd" clip-rule="evenodd" fill="#C65C5C" d="M1320.1,561.9c0,2.7,0,5.4-0.2,8.1c-0.1,2.3-0.2,4.6-0.4,6.9
		c-0.3,4.1-0.9,8.2-1.5,12.1c-4.9,29.6-14.5,53.9-27.2,73.7c-33.2,51.4-87.9,71.7-138.9,71.7s-105.8-20.4-138.9-71.7
		c-11.3-17.5-20.1-38.6-25.4-63.7c-0.2-0.8-0.3-1.6-0.5-2.4c5.7,3.1,12.4,6.3,20,9.4l0,0c4.8,2,10,3.9,15.6,5.8
		c16.8,5.6,37,10.2,60.3,11.9c1.9,0.1,3.8,0.3,5.7,0.4c1.6,0.1,3.1,0.2,4.7,0.2c2.4,0.1,4.8,0.1,7.2,0.2c6.6,0.1,13.3,0,20.1-0.3
		c6.3-0.2,12.6-0.6,19-1.1c19.2-1.5,38.6-4.2,57.4-8.1c15.4-3.2,30.3-7.3,44.2-12.2h0c6.3-2.2,12.4-4.6,18.2-7.1
		c27.4-12,49.1-27.7,60.1-47.2C1320,553.1,1320.1,557.5,1320.1,561.9z"/>
	<path fill-rule="evenodd" clip-rule="evenodd" fill="#F4F4F4" d="M1320.1,561.9c0,2.7,0,5.4-0.2,8.1c-0.1,2.3-0.2,4.6-0.4,6.9
		c-0.3,4.1-0.9,8.2-1.5,12.1c-2.6,15.8-6.6,30.2-11.7,43.1c-4.4,11.2-9.6,21.4-15.6,30.5c-13.1,20.2-29.5,35.6-47.7,46.9
		c-5.2,3.2-10.6,6.1-16.1,8.7c-1.5,0.7-2.9,1.4-4.4,2c-5.5,2.4-11.2,4.5-16.9,6.2c-1.5,0.5-2.9,0.9-4.4,1.3
		c-16.3,4.6-33.1,6.7-49.5,6.7c-14.5,0-29.3-1.6-43.8-5.2c-11-2.7-21.9-6.5-32.3-11.4c-11.2-5.3-21.9-12-31.8-20.2
		c-1.2-1-2.3-1.9-3.5-2.9c-5.2-4.6-10.1-9.5-14.8-15c-1-1.2-2-2.4-3-3.6c-1.6-1.9-3.1-3.9-4.6-5.9c0,0,0,0,0,0
		c-1.7-2.4-3.5-4.9-5.1-7.4c-0.4-0.7-0.9-1.4-1.3-2.1c-2.2-3.5-4.3-7.2-6.3-11c-6.8-13.1-12.4-27.9-16.4-44.5
		c6.1,3.1,13.3,6.4,21.6,9.6l0,0c3,1.2,6.2,2.3,9.6,3.4c1.1,0.4,2.3,0.8,3.5,1.1c0.7,0.2,1.5,0.5,2.2,0.7c4.9,1.5,10.2,2.9,15.7,4.3
		c1.2,0.3,2.4,0.5,3.6,0.8c0.1,0,0.2,0,0.3,0.1v0c4.7,1,9.5,2,14.6,2.8c0.9,0.1,1.7,0.3,2.6,0.4c4.1,0.6,8.2,1.2,12.5,1.6
		c0,0,0.1,0,0.1,0c3.1,0.3,6.3,0.6,9.6,0.9c1.1,0.1,2.2,0.2,3.4,0.2c0.7,0,1.5,0.1,2.2,0.1c1.5,0.1,3.1,0.2,4.6,0.2
		c1.9,0.1,3.7,0.1,5.6,0.1c0.5,0,0.9,0,1.4,0c1.6,0,3.1,0,4.7,0c2.3,0,4.6,0,6.9-0.1c2.7,0,5.3-0.1,8-0.2c3.4-0.1,6.9-0.3,10.4-0.5
		c2.7-0.1,5.5-0.3,8.2-0.5c0.9-0.1,1.9-0.1,2.8-0.2c16.8-1.3,33.7-3.5,50.1-6.6c1-0.2,2.1-0.4,3.1-0.6c1.4-0.3,2.8-0.5,4.2-0.8
		c1.5-0.3,3.1-0.6,4.6-1c6.1-1.3,12-2.7,17.8-4.3c1.5-0.4,3-0.8,4.5-1.2c4.1-1.2,8.2-2.4,12.1-3.7h0c6.2-2,12.1-4.2,17.8-6.5
		c0.4-0.2,0.8-0.3,1.2-0.5c2.6-1.1,5.2-2.2,7.7-3.3c1.3-0.6,2.5-1.2,3.7-1.8c0,0,0,0,0,0c2.1-1,4.1-2,6.1-3.1
		c21.3-11.2,37.1-25.2,43.9-41.9l0,0C1320.1,557.3,1320.1,559.6,1320.1,561.9z"/>
	<path fill-rule="evenodd" clip-rule="evenodd" fill="#F7883C" d="M1113.8,723.6l-5.8,5.7c-11-2.7-21.9-6.5-32.3-11.4l1.3-6.3
		l12.8-64.1l-6.2-7.5l-1.7-2l6.2-6.9c0.7,0,1.5,0.1,2.2,0.1c0.7,0,1.3,0.1,2,0.1c0.2,0,0.3,0,0.5,0c0.7,0,1.5,0.1,2.2,0.1
		c0.1,0,0.2,0,0.4,0c1.7,0.1,3.5,0.1,5.3,0.1l5.8,6.4l-1.1,1.3l0,0l-0.1,0.1l-6.7,8.2l0,0.1L1113.8,723.6z"/>
	<path fill-rule="evenodd" clip-rule="evenodd" fill="#DD752F" d="M1106.5,637.9l-1.1,1.3l0,0l-0.1,0.1l-1.3,1.6l-5.4,6.6
		c-0.8,1-2,1.5-3.2,1.5h-2.4c-1.2,0-2.4-0.5-3.2-1.5l-0.1-0.1l-6.2-7.5l-1.7-2l6.2-6.9c0.7,0,1.5,0.1,2.2,0.1c0.7,0,1.3,0.1,2,0.1
		c0.2,0,0.3,0,0.5,0c0.7,0,1.5,0.1,2.2,0.1c0.1,0,0.2,0,0.4,0c1.7,0.1,3.5,0.1,5.3,0.1L1106.5,637.9z"/>
	<path opacity="0.21" fill-rule="evenodd" clip-rule="evenodd" fill="#DD752F" d="M1095.4,631.4v80.2H1077l12.8-64.1l-6.2-7.5
		l-1.7-2l6.2-6.9c0.7,0,1.5,0.1,2.2,0.1c0.7,0,1.3,0.1,2,0.1c0.2,0,0.3,0,0.5,0c0.7,0,1.5,0.1,2.2,0.1
		C1095.1,631.4,1095.3,631.4,1095.4,631.4z"/>
	<path opacity="0.21" fill-rule="evenodd" clip-rule="evenodd" fill="#DD752F" d="M1090.4,631.2c0.7,0,1.3,0.1,2,0.1l-8.7,8.7
		l-1.7-2l6.2-6.9C1088.9,631.1,1089.6,631.2,1090.4,631.2z"/>
	<path fill-rule="evenodd" clip-rule="evenodd" fill="#C6C4BD" d="M1143.1,630.2l-20.3,22.2l-27.8-21c2.3,0.1,4.7,0.1,7,0.2
		c6.4,0.1,13,0,19.6-0.2c3.4-0.1,6.9-0.3,10.4-0.5c2.7-0.1,5.5-0.3,8.2-0.5C1141.2,630.3,1142.1,630.3,1143.1,630.2z"/>
	<path fill-rule="evenodd" clip-rule="evenodd" fill="#C6C4BD" d="M1090.4,631.2l-19.1,15.8l-11.3-19c0.9,0.1,1.7,0.3,2.6,0.4
		c7,1.1,14.4,1.9,22.2,2.5C1086.6,631,1088.5,631.1,1090.4,631.2z"/>
	<path fill-rule="evenodd" clip-rule="evenodd" fill="#C65C5C" d="M1065.7,583.8c0,0,32.6,28.7,71.2,0
		C1175.6,555.2,1040.8,557.7,1065.7,583.8z"/>
	<g>
		<path fill="#FFFFFF" d="M1039.2,435c-0.6,0-1.2-0.1-1.8-0.4c-2.4-1-3.5-3.8-2.5-6.2c11.8-28,32.2-46.3,33.1-47.1
			c2-1.7,4.9-1.5,6.7,0.4c1.7,2,1.5,4.9-0.4,6.7c-0.2,0.2-19.7,17.7-30.6,43.7C1042.8,433.9,1041,435,1039.2,435z"/>
	</g>
	<path fill-rule="evenodd" clip-rule="evenodd" fill="#323232" d="M977.8,569.2c63.3,36.1,94.9,15,117.6,2.6
		c22.7,12.4,54.3,33.5,117.6-2.6c-47.6,1.1-77.6-24.2-106.1-27.1c-4.6-0.5-8.9,0.8-11.5,1.6c-2.6-0.9-6.9-2.1-11.5-1.6
		C1055.4,545,1025.4,570.3,977.8,569.2z"/>
	<path opacity="0.71" fill="#FFFFFF" d="M1057.4,533.4c-8.1,9.2-18.8,15.3-30.3,17.9c-8,1.8-16.5,1.8-24.9-0.1
		c-2.1-0.5-4.1-1.1-6.2-1.8c-0.3-0.1-0.6-0.2-0.9-0.3c-8.2-3-14.2-7.6-18.7-12.7c-7.8-9-10.9-20-12.9-28.1
		c-3.2-12.8-4.5-35.3,6.4-44.4c9.5-7.9,27.7-8.9,39.8-9.4c1.9-0.1,3.6-0.1,5.1-0.2c4.2-0.2,11.4,0.2,19.3,1.3
		c2.1,0.3,4.3,0.7,6.5,1.1c7.8,1.6,15.7,4.1,21.8,7.7c3.7,2.2,6.7,4.9,8.6,8C1080.1,487.5,1072.5,516.4,1057.4,533.4z"/>
	<path opacity="0.71" fill="#FFFFFF" d="M1228.3,508.2c-3,11.8-8.2,29.8-26.9,38.9c-1.5,0.7-3,1.4-4.7,2c-8.8,3.2-17.9,4.2-26.6,3.1
		c-2.9-0.3-5.8-0.9-8.6-1.7c-8.5-2.4-16.4-6.8-23-13c-1.4-1.3-2.7-2.6-4-4.1c-15.1-17-22.7-45.9-13.6-61
		c9.1-15.1,44.2-18.7,56.2-18.2c0.5,0,1.1,0,1.6,0.1c7.3,0.3,18.2,0.5,27.9,2.8c2.2,0.5,4.4,1.1,6.5,1.9c3.4,1.2,6.4,2.8,8.9,4.9
		c5.4,4.5,7.8,12.1,8.4,20.3C1231.1,492.6,1229.9,501.6,1228.3,508.2z"/>
	<path fill-rule="evenodd" clip-rule="evenodd" fill="#494949" d="M1243.1,709.6c-5.2,3.2-10.6,6.1-16.1,8.7c-1.5,0.7-2.9,1.4-4.4,2
		c-5.5,2.4-11.2,4.5-16.9,6.2c-1.5,0.5-2.9,0.9-4.4,1.3c-16.3,4.6-33.1,6.7-49.5,6.7c-37.3,0-76.6-10.9-108-36.8
		c-1.2-1-2.3-1.9-3.5-2.9c-5.2-4.6-10.1-9.5-14.8-15c-1-1.2-2-2.4-3-3.6c-1.6-1.9-3.1-3.9-4.6-5.9c0,0,0,0,0,0
		c-1.7-2.4-3.5-4.9-5.1-7.4c-0.4-0.7-0.9-1.4-1.3-2.1c-2.2-3.5-4.3-7.2-6.3-11c-2.6-14.6-3.6-32.2,5.2-34.9l0,0
		c3,1.2,6.2,2.3,9.6,3.4c1.1,0.4,2.3,0.8,3.5,1.1c0.7,0.2,1.5,0.5,2.2,0.7c4.9,1.5,10.2,2.9,15.7,4.3c1.2,0.3,2.4,0.5,3.6,0.8
		c0.1,0,0.2,0,0.3,0.1v0c5.5,1.2,11.2,2.3,17.2,3.2l32.8,70.1l36.6-67.6c2.7-0.1,5.5-0.3,8.2-0.5c17.7-1.3,35.6-3.5,52.9-6.8
		c1-0.2,2.1-0.4,3.1-0.6c1.4-0.3,2.8-0.5,4.2-0.8c1.5-0.3,3.1-0.6,4.6-1c6.1-1.3,12-2.7,17.8-4.3c1.5-0.4,3-0.8,4.5-1.2
		c4.1-1.2,8.2-2.4,12.1-3.7h0c6.2-2,12.1-4.2,17.8-6.5c0.4-0.2,0.8-0.3,1.2-0.5C1250.2,612.3,1238.7,635.7,1243.1,709.6z"/>
	<path opacity="0.13" fill="#BCBCBC" d="M1062.4,464.3l-35.3,86.9c-8,1.8-16.5,1.8-24.9-0.1c-2.1-0.5-4.1-1.1-6.2-1.8l38.1-93.8
		c2.1,0.3,4.3,0.7,6.5,1.1C1048.4,458.2,1056.4,460.7,1062.4,464.3z"/>
	<path opacity="0.32" fill="#BCBCBC" d="M1040.6,456.6l-38.4,94.5c-2.1-0.5-4.1-1.1-6.2-1.8c-0.3-0.1-0.6-0.2-0.9-0.3
		c-8.2-3-14.2-7.6-18.7-12.7l33.3-81.9c1.9-0.1,3.6-0.1,5.1-0.2c4.2-0.2,11.4,0.2,19.3,1.3C1036.3,455.8,1038.5,456.2,1040.6,456.6z
		"/>
	<path opacity="0.32" fill="#BCBCBC" d="M1213,458.9l-42.9,93.3c-2.9-0.3-5.8-0.9-8.6-1.7c-8.5-2.4-16.4-6.8-23-13l40.2-83.2
		c7.3,0.3,18.2,0.5,27.9,2.8C1208.8,457.5,1210.9,458.1,1213,458.9z"/>
	<path opacity="0.32" fill="#BCBCBC" d="M1230.3,484.1l-29,63c-1.5,0.7-3,1.4-4.7,2c-8.8,3.2-17.9,4.2-26.6,3.1
		c-2.9-0.3-5.8-0.9-8.6-1.7l45.1-93.4c2.2,0.5,4.4,1.1,6.5,1.9c3.4,1.2,6.4,2.8,8.9,4.9C1227.3,468.2,1229.7,475.9,1230.3,484.1z"/>
	<path fill-rule="evenodd" clip-rule="evenodd" fill="#494949" d="M1304.9,482.1c-41.5,36.3-54.9-157.9-129.2-114
		c-74.3,44-99.6,6.4-98.8,1.4c0.9-5-11.6,5.1-11.6,5.1l0,0c21.6-21.5,45.8-36.7,70.2-41.5c5.4-1.1,10.9-1.6,16.3-1.6
		c33.7,0,67.8,21.4,96.4,53.7c5.5,6.2,10.9,12.9,15.9,19.8c2.4,3.3,4.7,6.6,7,10c11.5,17.3,21.5,36.2,29.4,55.7
		c0.9,2.3,1.8,4.6,2.7,6.8C1303.9,479.1,1304.4,480.6,1304.9,482.1z"/>
	<path fill="#738791" d="M1288.9,665.6c-24.1,35.7-58.9,55.8-95.3,64.2c-13.8,3.2-27.9,4.7-41.7,4.7c-49.7,0-102.9-19.3-136.3-67.8
		C1017,668.5,1083.2,753,1288.9,665.6z"/>
	<path opacity="0.34" fill-rule="evenodd" clip-rule="evenodd" fill="#C6C4BD" d="M1320.1,561.9c0,2.7,0,5.4-0.2,8.1
		c-0.1,2.3-0.2,4.6-0.4,6.9c-0.3,4.1-0.9,8.2-1.5,12.1c-4.9,29.6-14.5,53.9-27.2,73.7c-24.2,37.5-59.9,58.4-97.2,67
		c137.6-200.9-58.1-396.7-58.1-396.7c5.4-1.1,10.9-1.6,16.3-1.6c40.2,0,81,30.5,112.4,73.5c2.4,3.3,4.7,6.6,7,10
		c11.5,17.3,21.5,36.2,29.4,55.7c0.9,2.3,1.8,4.6,2.7,6.8c2.6,7,5,14,7,21.1c4.9,16.8,8.1,33.6,9.3,49.9
		C1319.9,553.1,1320.1,557.5,1320.1,561.9z"/>
	<path fill="#323232" d="M1300.5,467.7l-3.2-7.7c-0.5-1.2-1.6-1.9-2.9-1.9h-49.6c0,0-5-0.5-10.8-1.2s-32.8-7.9-49.2-7.9
		c-25.7,0-35.2,2.2-47.3,5.7s-18.9,8.4-22.4,7.9c-3.5-0.5-13.1-2.1-19.2-2.1c-6.1,0-15.6,1.6-19.2,2.1s-10.3-4.4-22.4-7.9
		c-12.1-3.5-21.6-5.7-47.3-5.7c-16.4,0-43.8,7.2-49.6,7.9c-5.8,0.8-11.3,1.2-11.3,1.2v13.4c0,0,5.3,0.5,6.6,6.1
		c1.3,5.5,2.3,29.5,8.3,44.1c6.9,16.6,17.8,28.8,36.7,34.1c18.9,5.3,38.9,1.5,51.8-7.3c9.6-6.6,18.7-16.3,25.5-30
		c8.7-17.3,11.1-32.5,11.1-32.5s-0.4-0.4-0.9-1.2c0.3,0.4,0.6,0.8,0.9,1.2c0,0,8.5-5.7,19.7,0c0,0,2.4,15.2,11.1,32.5
		c6.9,13.7,15.9,23.5,25.5,30c12.9,8.8,32.8,12.6,51.7,7.3c18.9-5.3,29.8-17.5,36.6-34.1c6-14.6,6.7-38.6,7.9-44.1
		c1.3-5.5,6.1-6.1,6.1-6.1l52.8,0.6C1299.8,472.1,1301.3,469.8,1300.5,467.7z M1057.4,533.4c-15.4,17.4-39.7,23.9-62.2,15.6
		c-22.5-8.2-28.4-28.1-31.6-40.9c-3.2-12.8-4.5-35.3,6.4-44.4c10.9-9.1,33.5-9.1,44.9-9.6c11.9-0.5,47.1,3,56.2,18.2
		C1080.1,487.5,1072.5,516.4,1057.4,533.4z M1228.3,508.2c-3.2,12.8-9.1,32.6-31.6,40.9s-46.8,1.8-62.2-15.6
		c-15.1-17-22.7-45.9-13.6-61c9.1-15.1,44.2-18.7,56.2-18.2c11.4,0.5,34,0.5,44.9,9.6C1232.8,472.8,1231.5,495.4,1228.3,508.2z"/>
</g>
<g>
	<ellipse opacity="0.27" fill="#738791" cx="711.3" cy="866.3" rx="123.8" ry="35.5"/>
	<path fill="#1C1C1C" d="M670.9,813.2c0,0-5.8-2.9-11.2,0.8c-5.4,3.7-13.2,10.3-18.9,11.1c-5.7,0.8,10.4,17.6,17.3,13.8
		C665,835,678.3,822,670.9,813.2z"/>
	<path fill="#EDEDED" d="M648.4,809.6l0.5,11.4c0.1,1.8,1.4,3.3,3.1,3.8c3,0.7,7.5,1.4,11-0.4c1.4-0.7,2.2-2.2,2.2-3.8l-0.6-13.4
		c-0.1-2.6-2.6-4.4-5.1-3.8l-8.1,2C649.6,805.9,648.3,807.7,648.4,809.6z"/>
	<path fill="#7AFCCA" d="M678.8,849.8c-0.8,1.1-1.8,2.3-3.1,3.6v0c-2.7,2.7-6.3,5.4-10.1,6.3c-5.7,1.3-9.9,2.4-14.5,6.3
		c-0.3,0.3-0.7,0.6-1.1,0.9c-5.6,4.2-19.7,12.4-31.3,12.4c-12.5,0-21.3-2.3-20.3-9.9c0,0,0-0.3,0.2-0.9c0.1-0.3,0.2-0.6,0.3-0.9
		c1.1-2.9,4.6-9.2,15.6-16.5c0,0,0.4-0.2,1-0.6c1.3-0.9,3.7-2.5,5.5-4.4c0.5-0.5,1-1.1,1.4-1.7c0,0,8.5-13.1,14.4-19
		c1.9-1.9,3.5-3.1,4.4-2.9c4,0.9,14.6,2.6,13.7,8.5c-0.8,5.9,21.3-10.6,15.9-17.9c0,0,2.1-1.3,3.7,5.6c0.4,1.7,1,3.3,1.7,5.1
		c0.7,1.7,1.4,3.4,2,5.3c1.3,4.1,2.1,8.8,0.7,14.8C678.9,843.9,681.3,846.6,678.8,849.8z"/>
	<path fill="#D8D0CA" d="M634.8,849.7c-2,2.2-5.2-1.2-7.6-3.5c-1.5-1.4-4.2-0.8-6.1-0.1c0.5-0.5,1-1.1,1.4-1.7c0,0,8.5-13.1,14.4-19
		c8.9-0.1,11,1.9,13.2,3.2C652.7,830.1,636.8,847.5,634.8,849.7z"/>
	<path fill="#D8D0CA" d="M678.8,849.8c-0.8,1.1-1.8,2.3-3.1,3.6v0c-2.7,2.7-6.3,5.4-10.1,6.3c-5.7,1.3-9.9,2.4-14.5,6.3
		c-0.3,0.3-0.7,0.6-1.1,0.9c-5.6,4.2-19.7,12.4-31.3,12.4c-12.5,0-21.3-2.3-20.3-9.9c0,0,0-0.3,0.2-0.9c0.1-0.3,0.2-0.6,0.3-0.9
		c3.6,10.4,22,2.9,34.6,1.4c17.7-2.1,22.8-23,35.2-27.8c6-2.3,8.6-7.4,9.6-12.1c1.3,4.1,2.1,8.8,0.7,14.8
		C678.9,843.9,681.3,846.6,678.8,849.8z"/>
	<path fill="#F7883C" d="M678.8,849.8c-0.8,1.1-1.8,2.3-3.1,3.6c-2-3.5-1.4-11.9,0.6-15.4c2-3.5,0-14.2,0-14.2
		c2.1,5.4,4.8,11.4,2.6,20.1C678.9,843.9,681.3,846.6,678.8,849.8z"/>
	<path fill="#F7883C" d="M650.1,866.9c-5.6,4.2-19.7,12.4-31.3,12.4c-12.5,0-21.3-2.3-20.3-9.9c0,0,0-0.3,0.2-0.9
		c0.7-2.4,3.6-9.3,15.9-17.4c0,0,0.4-0.2,1-0.6c1.8-0.6,3.6-0.9,5.1-0.7c6.8,1.1,6.8,20.5,23.1,16.9
		C646.7,866.1,648.8,866.2,650.1,866.9z"/>
	<path fill="#323232" d="M678.8,849.8c-2.4,3.2-7.6,8.6-13.2,9.9c-5.7,1.3-9.9,2.4-14.5,6.3s-19.9,13.3-32.4,13.3
		s-21.3-2.3-20.3-9.9c0,0,0-0.3,0.2-0.9c0.2,0.5,5.3,10.2,24.3,6.8c19.5-3.5,24.4-14,39.8-19.2c15.3-5.2,16.2-12.2,16.2-12.2
		S681.3,846.6,678.8,849.8z"/>
	<g>
		<path fill="#F7883C" d="M635.8,844.7c-0.1,0-0.2,0-0.2,0c-5.5-1.5-14.1,0-14.2,0c-0.5,0.1-0.9-0.2-1-0.7s0.2-0.9,0.7-1
			c0.4-0.1,9.1-1.6,14.9,0c0.5,0.1,0.7,0.6,0.6,1C636.5,844.5,636.2,844.7,635.8,844.7z"/>
	</g>
	<g>
		<path fill="#F7883C" d="M638.2,841.1c-0.1,0-0.2,0-0.2,0c-5.5-1.5-14.1,0-14.2,0c-0.5,0.1-0.9-0.2-1-0.7c-0.1-0.5,0.2-0.9,0.7-1
			c0.4-0.1,9.1-1.6,14.9,0c0.5,0.1,0.7,0.6,0.6,1C638.9,840.8,638.6,841.1,638.2,841.1z"/>
	</g>
	<g>
		<path fill="#F7883C" d="M640.8,837.4c-0.1,0-0.2,0-0.2,0c-5.5-1.5-14.1,0-14.2,0c-0.5,0.1-0.9-0.2-1-0.7c-0.1-0.5,0.2-0.9,0.7-1
			c0.4-0.1,9.1-1.6,14.9,0c0.5,0.1,0.7,0.6,0.6,1C641.5,837.1,641.1,837.4,640.8,837.4z"/>
	</g>
	<g>
		<path fill="#F7883C" d="M642.7,834.4c-0.1,0-0.2,0-0.2,0c-5.5-1.5-14.1,0-14.2,0c-0.5,0.1-0.9-0.2-1-0.7c-0.1-0.5,0.2-0.9,0.7-1
			c0.4-0.1,9.1-1.6,14.9,0c0.5,0.1,0.7,0.6,0.6,1C643.4,834.1,643,834.4,642.7,834.4z"/>
	</g>
	<g>
		<path fill="#F7883C" d="M645.5,830.1c-0.1,0-0.2,0-0.2,0c-5.5-1.5-14.1,0-14.2,0c-0.5,0.1-0.9-0.2-1-0.7c-0.1-0.5,0.2-0.9,0.7-1
			c0.4-0.1,9.1-1.6,14.9,0c0.5,0.1,0.7,0.6,0.6,1C646.2,829.9,645.9,830.1,645.5,830.1z"/>
	</g>
	<g>
		<path fill="#F7883C" d="M639.7,836.2c-0.3,0-0.6-0.2-0.7-0.4c-1.4-2.6-7.4-7.8-7.4-7.8c-0.4-0.3-0.4-0.8-0.1-1.2
			c0.3-0.4,0.8-0.4,1.2-0.1c0.3,0.2,6.3,5.4,7.8,8.3c0.2,0.4,0.1,0.9-0.3,1.1C640,836.1,639.9,836.2,639.7,836.2z"/>
	</g>
	<g>
		<path fill="#F7883C" d="M637.9,840.7c-0.3,0-0.6-0.2-0.7-0.4c-1.4-2.6-7.4-7.8-7.4-7.8c-0.4-0.3-0.4-0.8-0.1-1.2s0.8-0.4,1.2-0.1
			c0.3,0.2,6.3,5.4,7.8,8.3c0.2,0.4,0.1,0.9-0.3,1.1C638.2,840.7,638,840.7,637.9,840.7z"/>
	</g>
	<g>
		<path fill="#F7883C" d="M634.8,844c-0.3,0-0.6-0.2-0.7-0.4c-1.4-2.6-7.4-7.8-7.4-7.8c-0.4-0.3-0.4-0.8-0.1-1.2s0.8-0.4,1.2-0.1
			c0.3,0.2,6.3,5.4,7.8,8.3c0.2,0.4,0.1,0.9-0.3,1.1C635,844,634.9,844,634.8,844z"/>
	</g>
	<g>
		<path fill="#F7883C" d="M632.8,847.8c-0.3,0-0.6-0.2-0.7-0.4c-1.4-2.6-7.4-7.8-7.4-7.8c-0.4-0.3-0.4-0.8-0.1-1.2s0.8-0.4,1.2-0.1
			c0.3,0.2,6.3,5.4,7.8,8.3c0.2,0.4,0.1,0.9-0.3,1.1C633.1,847.7,632.9,847.8,632.8,847.8z"/>
	</g>
	<path fill="#1C1C1C" d="M803.7,814.3c0,0-6.5-3.2-12.5,0.9c-6.1,4.2-14.7,11.5-21,12.4c-6.4,0.9,11.6,19.6,19.3,15.3
		S812,824.2,803.7,814.3z"/>
	<path fill="#EDEDED" d="M778.6,810.3l0.6,12.7c0.1,2,1.5,3.7,3.5,4.2c3.3,0.8,8.4,1.5,12.3-0.4c1.6-0.8,2.5-2.5,2.4-4.2l-0.6-14.9
		c-0.1-2.9-2.9-5-5.7-4.2l-9,2.3C779.9,806.2,778.5,808.2,778.6,810.3z"/>
	<path fill="#7AFCCA" d="M812.6,855.2c-0.9,1.2-2.1,2.6-3.5,4v0c-3,3-7,6-11.2,7c-6.3,1.4-11,2.7-16.1,7c-0.3,0.3-0.8,0.6-1.2,1
		c-6.2,4.7-22,13.8-35,13.8c-13.9,0-23.8-2.5-22.7-11c0,0,0-0.3,0.2-1c0.1-0.3,0.2-0.6,0.3-1c1.2-3.3,5.2-10.3,17.4-18.4
		c0,0,0.4-0.3,1.1-0.7c1.5-1,4.2-2.8,6.1-4.9c0.6-0.6,1.1-1.2,1.5-1.9c0,0,9.5-14.6,16.1-21.2c2.1-2.1,3.9-3.4,5-3.2
		c4.4,1,16.2,2.9,15.3,9.5c-0.9,6.6,23.7-11.8,17.7-19.9c0,0,2.4-1.5,4.2,6.2c0.4,1.9,1.1,3.7,1.9,5.7c0.7,1.9,1.5,3.8,2.2,5.9
		c1.5,4.6,2.4,9.8,0.7,16.5C812.7,848.6,815.3,851.6,812.6,855.2z"/>
	<path fill="#D8D0CA" d="M763.4,855.1c-2.2,2.5-5.8-1.4-8.5-3.9c-1.7-1.6-4.7-0.9-6.8-0.1c0.6-0.6,1.1-1.2,1.5-1.9
		c0,0,9.5-14.6,16.1-21.2c10-0.1,12.2,2.1,14.8,3.6C783.4,833.2,765.6,852.6,763.4,855.1z"/>
	<path fill="#D8D0CA" d="M812.6,855.2c-0.9,1.2-2.1,2.6-3.5,4v0c-3,3-7,6-11.2,7c-6.3,1.4-11,2.7-16.1,7c-0.3,0.3-0.8,0.6-1.2,1
		c-6.2,4.7-22,13.8-35,13.8c-13.9,0-23.8-2.5-22.7-11c0,0,0-0.3,0.2-1c0.1-0.3,0.2-0.6,0.3-1c4,11.6,24.5,3.2,38.6,1.5
		c19.7-2.4,25.4-25.7,39.2-31c6.7-2.6,9.5-8.3,10.7-13.5c1.5,4.6,2.4,9.8,0.7,16.5C812.7,848.6,815.3,851.6,812.6,855.2z"/>
	<path fill="#F7883C" d="M812.6,855.2c-0.9,1.2-2.1,2.6-3.5,4c-2.2-4-1.6-13.2,0.6-17.2c2.2-3.9,0-15.8,0-15.8
		c2.4,6,5.3,12.7,2.9,22.4C812.7,848.6,815.3,851.6,812.6,855.2z"/>
	<path fill="#F7883C" d="M780.5,874.2c-6.2,4.7-22,13.8-35,13.8c-13.9,0-23.8-2.5-22.7-11c0,0,0-0.3,0.2-1c0.8-2.6,4-10.3,17.7-19.4
		c0,0,0.4-0.3,1.1-0.7c2-0.7,4-1,5.7-0.7c7.6,1.2,7.5,22.9,25.8,18.9C776.8,873.3,779,873.5,780.5,874.2z"/>
	<path fill="#323232" d="M812.6,855.2c-2.7,3.6-8.4,9.6-14.7,11c-6.3,1.4-11,2.7-16.1,7c-5.1,4.3-22.2,14.8-36.2,14.8
		c-13.9,0-23.8-2.5-22.7-11c0,0,0-0.3,0.2-1c0.3,0.5,5.9,11.4,27.1,7.6c21.8-3.9,27.3-15.6,44.4-21.4c17.1-5.8,18.1-13.6,18.1-13.6
		S815.3,851.6,812.6,855.2z"/>
	<g>
		<path fill="#F7883C" d="M764.6,849.5c-0.1,0-0.2,0-0.3,0c-6.1-1.7-15.7,0-15.8,0c-0.5,0.1-1-0.2-1.1-0.8c-0.1-0.5,0.2-1,0.8-1.1
			c0.4-0.1,10.1-1.8,16.7,0c0.5,0.1,0.8,0.7,0.7,1.2C765.4,849.2,765,849.5,764.6,849.5z"/>
	</g>
	<g>
		<path fill="#F7883C" d="M767.3,845.4c-0.1,0-0.2,0-0.3,0c-6.1-1.7-15.7,0-15.8,0c-0.5,0.1-1-0.2-1.1-0.8c-0.1-0.5,0.2-1,0.8-1.1
			c0.4-0.1,10.1-1.8,16.7,0c0.5,0.1,0.8,0.7,0.7,1.2C768.1,845.2,767.7,845.4,767.3,845.4z"/>
	</g>
	<g>
		<path fill="#F7883C" d="M770.1,841.3c-0.1,0-0.2,0-0.3,0c-6.1-1.7-15.7,0-15.8,0c-0.5,0.1-1-0.2-1.1-0.8c-0.1-0.5,0.2-1,0.8-1.1
			c0.4-0.1,10.1-1.8,16.7,0c0.5,0.1,0.8,0.7,0.7,1.2C770.9,841.1,770.5,841.3,770.1,841.3z"/>
	</g>
	<g>
		<path fill="#F7883C" d="M772.2,838c-0.1,0-0.2,0-0.3,0c-6.1-1.7-15.7,0-15.8,0c-0.5,0.1-1-0.2-1.1-0.8c-0.1-0.5,0.2-1,0.8-1.1
			c0.4-0.1,10.1-1.8,16.7,0c0.5,0.1,0.8,0.7,0.7,1.2C773,837.7,772.6,838,772.2,838z"/>
	</g>
	<g>
		<path fill="#F7883C" d="M775.4,833.2c-0.1,0-0.2,0-0.3,0c-6.1-1.7-15.7,0-15.8,0c-0.5,0.1-1-0.2-1.1-0.8c-0.1-0.5,0.2-1,0.8-1.1
			c0.4-0.1,10.1-1.8,16.7,0c0.5,0.1,0.8,0.7,0.7,1.2C776.2,833,775.8,833.2,775.4,833.2z"/>
	</g>
	<g>
		<path fill="#F7883C" d="M768.9,840c-0.3,0-0.7-0.2-0.8-0.5c-1.6-2.9-8.2-8.7-8.3-8.7c-0.4-0.3-0.4-0.9-0.1-1.3
			c0.3-0.4,0.9-0.4,1.3-0.1c0.3,0.2,7,6.1,8.7,9.2c0.2,0.5,0.1,1-0.4,1.3C769.3,839.9,769.1,840,768.9,840z"/>
	</g>
	<g>
		<path fill="#F7883C" d="M766.9,845c-0.3,0-0.7-0.2-0.8-0.5c-1.6-2.9-8.2-8.7-8.3-8.7c-0.4-0.3-0.4-0.9-0.1-1.3s0.9-0.4,1.3-0.1
			c0.3,0.2,7,6.1,8.7,9.2c0.2,0.5,0.1,1-0.4,1.3C767.2,845,767.1,845,766.9,845z"/>
	</g>
	<g>
		<path fill="#F7883C" d="M763.4,848.7c-0.3,0-0.7-0.2-0.8-0.5c-1.6-2.9-8.2-8.7-8.3-8.7c-0.4-0.3-0.4-0.9-0.1-1.3s0.9-0.4,1.3-0.1
			c0.3,0.2,7,6.1,8.7,9.2c0.2,0.5,0.1,1-0.4,1.3C763.7,848.7,763.6,848.7,763.4,848.7z"/>
	</g>
	<g>
		<path fill="#F7883C" d="M761.2,852.9c-0.3,0-0.7-0.2-0.8-0.5c-1.6-2.9-8.2-8.7-8.3-8.7c-0.4-0.3-0.4-0.9-0.1-1.3s0.9-0.4,1.3-0.1
			c0.3,0.2,7,6.1,8.7,9.2c0.2,0.5,0.1,1-0.4,1.3C761.5,852.9,761.4,852.9,761.2,852.9z"/>
	</g>
	<path fill="#8E6C55" d="M673.6,807.7c-7.1-68.1-4-123.3-4-123.9l-15.1-0.9l-15.1-0.9c-0.1,2.4-3.2,58,4.1,128.5
		C648.5,812,664.2,815.5,673.6,807.7z"/>
	<path fill="#8E6C55" d="M802.8,807.7c-7.1-68.1-4-123.3-4-123.9l-15.1-0.9l-15.1-0.9c-0.1,2.4-3.2,58,4.1,128.5
		C777.7,812,793.4,815.5,802.8,807.7z"/>
	<path fill="#493B35" d="M644.6,367.8c0,0-70,21.6-70,82.1S645.3,408.5,644.6,367.8z"/>
	<path fill="#323232" d="M535.2,453.3h40.4c4.6,0,8.8,2.3,10.7,5.8v0c3.5,6.5-1.8,13.9-10.1,14.3l-42.4,1.8L535.2,453.3z"/>
	<path fill-rule="evenodd" clip-rule="evenodd" fill="#7AFCCA" d="M889,564.7c0,2.7,0,5.4-0.2,8.1c-0.1,2.3-0.2,4.6-0.4,6.9
		c-0.3,4.1-0.9,8.2-1.5,12.1c-4.9,29.6-14.5,53.9-27.2,73.7c-24.2,37.5-59.9,58.4-97.2,67c-13.8,3.2-27.9,4.7-41.7,4.7
		c-51,0-105.8-20.4-138.9-71.7c-11.3-17.5-20.1-38.6-25.4-63.7c-0.2-0.8-0.3-1.6-0.5-2.4c-0.5-2.5-1-5.1-1.4-7.6
		c-1-6.2-1.7-12.6-1.9-19.1c-0.1-2.7-0.2-5.4-0.2-8.1c0.1-21.2,3.9-43.5,10.5-65.6c1.9-6.3,4-12.5,6.3-18.7c0.9-2.3,1.8-4.6,2.7-6.9
		c7.9-19.6,17.9-38.5,29.4-55.7c1.9-2.9,4-5.8,6-8.6c27.3-37.9,61.9-66.3,97.1-73.3c5.4-1.1,10.9-1.6,16.3-1.6
		c40.2,0,81,30.5,112.4,73.5c2.4,3.3,4.7,6.6,7,10c11.5,17.3,21.5,36.2,29.4,55.7c0.9,2.3,1.8,4.6,2.7,6.8c2.6,7,5,14,7,21.1
		c4.9,16.8,8.1,33.6,9.3,49.9C888.8,555.9,889,560.3,889,564.7z"/>
	<path fill-rule="evenodd" clip-rule="evenodd" fill="#57D3A1" d="M889,564.7c0,2.7,0,5.4-0.2,8.1c-0.1,2.3-0.2,4.6-0.4,6.9
		c-0.3,4.1-0.9,8.2-1.5,12.1c-4.9,29.6-14.5,53.9-27.2,73.7c-33.2,51.4-87.9,71.7-138.9,71.7c-51,0-105.8-20.4-138.9-71.7
		c-11.3-17.5-20.1-38.6-25.4-63.7c-0.2-0.8-0.3-1.6-0.5-2.4c5.7,3.1,12.4,6.3,20,9.4l0,0c4.8,2,10,3.9,15.6,5.8
		c16.8,5.6,37,10.2,60.3,11.9c1.9,0.1,3.8,0.3,5.7,0.4c1.6,0.1,3.1,0.2,4.7,0.2c2.4,0.1,4.8,0.1,7.2,0.2c6.6,0.1,13.3,0,20.1-0.3
		c6.3-0.2,12.6-0.6,19-1.1c19.2-1.5,38.6-4.2,57.4-8.1c15.4-3.2,30.3-7.3,44.2-12.2h0c6.3-2.2,12.4-4.6,18.2-7.1
		c27.4-12,49.1-27.7,60.1-47.2C888.8,555.9,889,560.3,889,564.7z"/>
	<path fill-rule="evenodd" clip-rule="evenodd" fill="#F7883C" d="M889,564.7c0,2.7,0,5.4-0.2,8.1c-0.1,2.3-0.2,4.6-0.4,6.9
		c-0.3,4.1-0.9,8.2-1.5,12.1c-4.9,29.6-14.5,53.9-27.2,73.7c-33.2,51.4-87.9,71.7-138.9,71.7c-51,0-105.8-20.4-138.9-71.7
		c-10.4-16-18.6-35.1-24-57.6c6.1,3.1,13.3,6.4,21.6,9.6l0,0c4.7,1.8,9.8,3.6,15.3,5.2c16.5,5.1,36.2,9.2,58.9,10.8
		c1.8,0.1,3.7,0.2,5.6,0.3c1.5,0.1,3.1,0.2,4.6,0.2c2.3,0.1,4.7,0.1,7,0.2c6.4,0.1,13,0,19.6-0.2c6.1-0.2,12.3-0.5,18.6-1
		c18.8-1.3,37.8-3.8,56.1-7.4c15.1-2.9,29.6-6.6,43.2-11.1h0c6.2-2,12.1-4.2,17.8-6.5c30.6-12.4,53.9-29.3,62.6-50.5l0,0
		C888.9,560.1,889,562.4,889,564.7z"/>
	<path fill-rule="evenodd" clip-rule="evenodd" fill="#DD732C" d="M663.9,634.3l-21.6,22.1c-6.5,6.6-17.3,6-22.9-1.4l-24.6-32.1
		c16.5,5.1,36.2,9.2,58.9,10.8c1.8,0.1,3.7,0.2,5.6,0.3C660.7,634.1,662.3,634.2,663.9,634.3z"/>
	<path fill-rule="evenodd" clip-rule="evenodd" fill="#DD732C" d="M826.2,608.3l-68.8,51.2c-8.6,6.4-20,5.1-27.3-3l-21-23.3
		c18.8-1.3,37.8-3.8,56.1-7.4c15.1-2.9,29.6-6.6,43.2-11.1h0C814.5,612.8,820.5,610.6,826.2,608.3z"/>
	<path fill-rule="evenodd" clip-rule="evenodd" fill="#F9B282" d="M653.6,633.7l-22.4,23c-6.5,6.6-17.3,6-22.9-1.4l-28.9-37.7
		C598.4,624.9,623.3,631.6,653.6,633.7z"/>
	<path fill-rule="evenodd" clip-rule="evenodd" fill="#F9B282" d="M808.4,614.8l-68.6,45.4c-8,5.3-18.5,4.2-25.3-2.5l-23.9-23.5
		c24.6-0.8,50.3-3.6,74.6-8.3C780.2,622.9,794.8,619.2,808.4,614.8z"/>
	<path fill-rule="evenodd" clip-rule="evenodd" fill="#FFFFFF" d="M690.5,634.2l-14.7,43.3c-1.2,3.6-6.4,3.6-7.6,0l-14.6-43.7
		c1.8,0.1,3.7,0.2,5.6,0.3c3.8,0.2,7.7,0.3,11.7,0.4C677.3,634.5,683.9,634.4,690.5,634.2z"/>
	<g>
		<path fill-rule="evenodd" clip-rule="evenodd" fill="#D14242" d="M670.4,641.7v12c-6.8,8.4-19.6,11.8-28.1,13.1
			c-4.6,0.7-8.7-2.8-8.7-7.4v-23.6c0-4.3,3.6-7.7,7.9-7.5c16.8,0.7,26.3,10.4,28.4,12.9C670.2,641.5,670.4,641.7,670.4,641.7z"/>
		<path fill-rule="evenodd" clip-rule="evenodd" fill="#E25252" d="M669.9,641.1v4.9c-6.8,8.4-19.6,11.8-28.1,13.1
			c-3.6,0.6-7-1.6-8.2-4.8v-18.6c0-4.3,3.6-7.7,7.9-7.5C658.3,629,667.8,638.7,669.9,641.1z"/>
		<path fill-rule="evenodd" clip-rule="evenodd" fill="#D14242" d="M673.6,641.7c0,0,9.6-12.6,28.9-13.4c4.3-0.2,7.9,3.2,7.9,7.5
			v23.6c0,4.6-4.1,8.1-8.7,7.4c-8.6-1.3-21.3-4.7-28.1-13.1V641.7z"/>
		<path fill-rule="evenodd" clip-rule="evenodd" fill="#E25252" d="M674,641.1v4.9c6.8,8.4,19.6,11.8,28.1,13.1
			c3.6,0.6,7-1.6,8.2-4.8v-18.6c0-4.3-3.6-7.7-7.9-7.5C685.7,629,676.2,638.7,674,641.1z"/>
		<path fill-rule="evenodd" clip-rule="evenodd" fill="#B53131" d="M680.6,644v9c0,2.3-1.8,4.1-4.1,4.1h-9c-2.3,0-4.1-1.8-4.1-4.1
			v-9c0-2.3,1.8-4.1,4.1-4.1h9C678.7,639.9,680.6,641.8,680.6,644z"/>
		<path fill-rule="evenodd" clip-rule="evenodd" fill="#CE4141" d="M680.6,644v6.3c0,2.3-1.8,4.1-4.1,4.1h-9c-2.3,0-4.1-1.8-4.1-4.1
			V644c0-2.3,1.8-4.1,4.1-4.1h9C678.7,639.9,680.6,641.8,680.6,644z"/>
	</g>
	<path fill-rule="evenodd" clip-rule="evenodd" fill="#57D3A1" d="M640,586.7c0,0,32.6,28.7,71.2,0C749.9,558,615.1,560.5,640,586.7
		z"/>
	<path fill-rule="evenodd" clip-rule="evenodd" fill="#473933" d="M749.9,558c10.8-2.7,15.2,16.6,3.2,17c-6.8,0.2-17.1-7-40.9-19.7
		c-9.6-5.1-18.8-5-25.4-3.5c-5.5,1.2-12.6,5.5-14.8,6.9c-2.2-1.4-9.3-5.7-14.8-6.9c-6.6-1.5-15.8-1.6-25.4,3.5
		c-23.8,12.7-34.2,19.9-40.9,19.7c-11.9-0.3-7.6-19.6,3.2-17c-8.9-7.5-28-1.1-27.3,16.7c0.4,11.5,8.9,24.5,25.6,28.1
		c22.6,4.9,44.6,0,79.7-18.8c35,18.8,57.1,23.7,79.7,18.8c16.7-3.6,25.2-16.6,25.6-28.1C777.9,556.9,758.8,550.5,749.9,558z"/>
	<path fill="#9B7861" d="M869,649c-2.9,5.9-6.1,11.5-9.5,16.8c-24.2,37.5-59.9,58.4-97.2,67c-13.8,3.2-27.9,4.7-41.7,4.7
		c-48.4,0-100.3-18.4-133.8-64.2c-1.8-2.4-3.5-4.9-5.2-7.5c-1.3-2-2.5-4-3.7-6.1h0C577.9,659.7,685.7,751.1,869,649z"/>
	<path opacity="0.34" fill-rule="evenodd" clip-rule="evenodd" fill="#C6C4BD" d="M889,564.7c0,2.7,0,5.4-0.2,8.1
		c-0.1,2.3-0.2,4.6-0.4,6.9c-0.3,4.1-0.9,8.2-1.5,12.1c-4.9,29.6-14.5,53.9-27.2,73.7c-24.2,37.5-59.9,58.4-97.2,67
		c137.6-200.9-58.1-396.7-58.1-396.7c5.4-1.1,10.9-1.6,16.3-1.6c40.2,0,81,30.5,112.4,73.5c2.4,3.3,4.7,6.6,7,10
		c11.5,17.3,21.5,36.2,29.4,55.7c0.9,2.3,1.8,4.6,2.7,6.8c2.6,7,5,14,7,21.1c4.9,16.8,8.1,33.6,9.3,49.9
		C888.8,555.9,889,560.3,889,564.7z"/>
	<path opacity="0.71" fill="#FFFFFF" d="M634.9,520.2c-6.6,12.4-17.7,18.8-34.3,20.9c-2.6,0.3-5.3,0.5-8,0.6
		c-7.6,0.2-15.4-0.5-22.4-2c-4-0.8-7.8-1.9-11-3.2c-1.9-0.8-3.6-1.6-5.2-2.5c-4-2.4-7-7-9.4-12.4c-2.9-6.5-4.7-14-5.9-19.6
		c-2.1-10-5.8-31.7,4.5-38.8c8.1-5.6,25.7-7.1,41.2-7c4.3,0,8.5,0.2,12.2,0.4c2.9,0.2,6.6,0.5,10.6,1c3.8,0.5,7.8,1.1,11.8,1.9
		c7.5,1.5,14.7,3.7,19.4,6.9c2,1.3,3.5,2.8,4.4,4.5C648.1,480.8,640.2,510.1,634.9,520.2z"/>
	<ellipse fill="#BCBCBC" cx="528" cy="463.7" rx="8.9" ry="2.8"/>
	<path opacity="0.71" fill="#FFFFFF" d="M797.6,502c-2.1,10-6.4,26.7-15.2,32c-6.4,3.8-16.6,6.5-27.5,7.4c-6.4,0.5-12.9,0.5-19-0.3
		c-1.5-0.2-2.9-0.4-4.3-0.7c-3.9-0.7-7.5-1.7-10.8-3c-6.8-2.7-12.2-6.8-16.3-12.5c-1-1.4-2-3-2.9-4.7c-5.3-10-13.2-39.4-7.9-49.4
		c5.3-10,33.3-13.5,46.2-14.3c2-0.1,4.2-0.2,6.4-0.3c7.4-0.2,15.8-0.2,23.6,0.6c4.1,0.4,8,1,11.5,1.7c4.8,1.1,9,2.6,11.9,4.6
		c2.4,1.6,4,4.1,5.1,6.9C801.8,479.6,799.2,494.2,797.6,502z"/>
	<ellipse fill="#BCBCBC" cx="808.4" cy="463.7" rx="8.9" ry="2.8"/>
	<path opacity="0.32" fill="#BCBCBC" d="M781.3,458.6l-49.8,81.8c-12.2-2.2-21-7.1-27.1-15.5l41.8-68.6
		C757.5,455.9,771,456.3,781.3,458.6z"/>
	<path opacity="0.13" fill="#BCBCBC" d="M638.4,466.3l-45.9,75.4c-7.6,0.2-15.4-0.5-22.4-2c-4-0.8-7.8-1.9-11-3.2l48-78.9
		c3.8,0.5,7.8,1.1,11.8,1.9C626.4,460.9,633.7,463.1,638.4,466.3z"/>
	<path opacity="0.32" fill="#BCBCBC" d="M619,459.4l-48.9,80.3c-6.4-1.3-12.1-3.3-16.1-5.7c-4-2.4-7-7-9.4-12.4l39.8-65.4
		c4.3,0,8.5,0.2,12.2,0.4C602.2,456.9,610.7,457.7,619,459.4z"/>
	<path opacity="0.13" fill="#BCBCBC" d="M798.2,470.1l-43.4,71.3c-6.4,0.5-12.9,0.5-19-0.3c-1.5-0.2-2.9-0.4-4.3-0.7
		c-3.9-0.7-7.5-1.7-10.8-3l49-80.5c4.1,0.4,8,1,11.5,1.7c4.8,1.1,9,2.6,11.9,4.6C795.5,464.8,797.1,467.2,798.2,470.1z"/>
	<path fill="#66554C" d="M861.8,456.1l-18.7-2.8c0,0-3.4-19.2-17.6-36.9c-1-1.2-2-2.4-3.1-3.6c-8.4-9.3-20-17.8-36-22.2
		c-5-1.4-11.2-2.1-18.2-2.3c-1.8-0.1-3.7-0.1-5.7-0.1h0c-53.7-0.4-147.5,16.2-156.5-65.9c0,0,0,0,0,0c0,0,0,0,0,0
		c-0.9-8.4-0.9-17.8,0.1-28.4c0.1-1.5,0.6-2.9,1.3-4.1c2.8-4.9,9.5-6.9,14.5-3.3c8,5.7,19.9,11.1,36.6,10.8
		c30.7-0.5,104.4-4.4,130.2,44.7c0,0,0,0,0,0c0.9,1.7,1.7,3.4,2.5,5.2c1.5,3.6,2.8,7.4,3.9,11.6c1.3,5.2,5,9.3,10,11.1
		c6.2,2.2,15,6.4,23.9,13.8c7.4,6.2,14.8,14.7,20.8,26.2C855.7,421.8,860.3,436.9,861.8,456.1z"/>
	<path fill="#323232" d="M868.3,459.2L868.3,459.2c-1.6-3.6-5.2-5.8-9.1-5.8h-34.6c-39.6-12.7-102.2-7.4-127.1,0.8
		c-9.2,3-20.1,7.4-29.3,7.4c-9.2,0-20.1-4.3-29.3-7.4c-24.8-8.2-87.4-13.5-127.1-0.8l1.2,21.9c0,0,7.2-1.6,9.6,6.3
		c2.4,7.9,7.9,40.6,18,53.4c12.5,15.8,39.5,16.5,57.8,15.7c24.6-1.1,40.7-12,47.5-30.5c6.9-18.5,10.7-34.3,15.1-39.4
		c2.4-2.7,5-2.9,7.1-2.9c2.1,0,4.8,0.2,7.1,2.9c4.4,5,8.3,20.9,15.1,39.4c6.9,18.5,23,29.4,47.5,30.5c18.3,0.8,45.3,0.2,57.8-15.7
		c10.1-12.8,15.6-45.4,18-53.4c2.4-7.9,9.6-6.3,9.6-6.3l36.3-1.8C866.8,473.1,871.3,465.7,868.3,459.2z M519.1,463.7
		c0-1.6,4-2.8,8.9-2.8c4.9,0,8.9,1.3,8.9,2.8c0,1.6-4,2.8-8.9,2.8C523.1,466.5,519.1,465.2,519.1,463.7z M634.9,520.2
		c-6.6,12.4-17.7,18.8-34.3,20.9c-16.6,2.1-36.5-1.1-46.6-7.1c-8.8-5.3-13.1-21.9-15.2-32c-2.1-10-5.8-31.7,4.5-38.8
		c10.3-7.1,36.2-7.7,53.4-6.6c12.9,0.8,40.9,4.2,46.2,14.3C648.1,480.8,640.2,510.1,634.9,520.2z M797.6,502
		c-2.1,10-6.4,26.7-15.2,32c-10,6-29.9,9.2-46.6,7.1c-16.6-2.1-27.7-8.5-34.3-20.9c-5.3-10-13.2-39.4-7.9-49.4
		c5.3-10,33.3-13.5,46.2-14.3c17.2-1.1,43.1-0.5,53.4,6.6C803.4,470.3,799.7,491.9,797.6,502z M808.4,466.5c-4.9,0-8.9-1.3-8.9-2.8
		c0-1.6,4-2.8,8.9-2.8c4.9,0,8.9,1.3,8.9,2.8C817.3,465.2,813.3,466.5,808.4,466.5z"/>
	<path opacity="0.23" fill="#66554C" d="M849.6,410c-7.5-6.4-20.3-13.5-24.2,6.5c-1-1.2-2-2.4-3.1-3.6c-8.4-9.3-20-17.8-36-22.2
		c-6.3-1.8-14.5-2.4-23.9-2.4h0c-59.2-0.4-167.2,19.7-156.4-94.3c0.1-1.5,0.6-2.9,1.3-4.1c0,0-1.4,55,31.2,52.2
		c32.6-2.8,75.3-8.1,121.1,21.5c25.2,16.3,31.3,0.9,31.6-16.3c1.5,3.6,2.8,7.4,3.9,11.6c1.3,5.2,5,9.3,10,11.1
		c6.2,2.2,15,6.4,23.9,13.8C836.2,390,843.7,398.4,849.6,410z"/>
	<path opacity="0.23" fill="#66554C" d="M781.3,382.7c0,0-5,2.4-13.2,5.6c-1.8-0.1-3.7-0.1-5.7-0.1h0
		c-53.7-0.4-147.5,16.2-156.5-65.9c0.3,1.7,10.9,59.1,72,53.5C740,370.2,745,394.7,781.3,382.7z"/>
	<path opacity="0.17" fill="#493B35" d="M822.3,412.8c-8.4-9.3-20-17.8-36-22.2c-6.3-1.8-14.5-2.4-23.9-2.4
		c45.1-3.7,26.2-46.2,26.2-46.2c2.6,5,4.8,10.6,6.3,16.8c1.3,5.2,5,9.3,10,11.1c6.2,2.2,15,6.4,23.9,13.8
		C808.5,387.4,822.3,412.8,822.3,412.8z"/>
	<path fill="#F2EDEB" d="M772,361c0.7,1.1-0.7,2.4-1.7,1.6c-6.1-4.7-15-10.9-20.3-12.1c-8.5-1.9,12.2-10.5,24-1.3
		C784.7,357.4,761,343.5,772,361z"/>
	<path fill="#F2EDEB" d="M759.3,342.7c0,0,11.8-2.5,15.8,4S778.5,334.9,759.3,342.7z"/>
	<path fill="#F2EDEB" d="M765.2,337.7c0,0,6.8-0.9,11.9,5c5.1,5.9,9.1-5-1.7-9.2C764.5,329.2,783.4,338.4,765.2,337.7z"/>
	<g>
		<path fill="#FFFFFF" d="M607.2,437.9c-0.6,0-1.2-0.1-1.8-0.4c-2.4-1-3.5-3.8-2.5-6.2c11.8-28,32.2-46.3,33.1-47.1
			c2-1.7,4.9-1.5,6.7,0.4c1.7,2,1.5,4.9-0.4,6.7c-0.2,0.2-19.7,17.7-30.6,43.7C610.8,436.8,609,437.9,607.2,437.9z"/>
	</g>
</g>
<g>
	<ellipse opacity="0.27" fill="#738791" cx="267.9" cy="866.3" rx="123.8" ry="35.5"/>
	<path fill="#323232" d="M231.5,813.2c0,0-5.8-2.9-11.2,0.8c-5.4,3.7-13.2,10.3-18.9,11.1c-5.7,0.8,10.4,17.6,17.3,13.8
		C225.6,835,238.9,822,231.5,813.2z"/>
	<path fill="#BCBCBC" d="M209,809.6l0.5,11.4c0.1,1.8,1.4,3.3,3.1,3.8c3,0.7,7.5,1.4,11-0.4c1.4-0.7,2.2-2.2,2.2-3.8l-0.6-13.4
		c-0.1-2.6-2.6-4.4-5.1-3.8l-8.1,2C210.2,805.9,208.9,807.7,209,809.6z"/>
	<path fill="#F77FF7" d="M239.5,849.8c-0.8,1.1-1.8,2.3-3.1,3.6v0c-2.7,2.7-6.3,5.4-10.1,6.3c-5.7,1.3-9.9,2.4-14.5,6.3
		c-0.3,0.3-0.7,0.6-1.1,0.9c-5.6,4.2-19.7,12.4-31.3,12.4c-12.5,0-21.3-2.3-20.3-9.9c0,0,0-0.3,0.2-0.9c0.1-0.3,0.2-0.6,0.3-0.9
		c1.1-2.9,4.6-9.2,15.6-16.5c0,0,0.4-0.2,1-0.6c1.3-0.9,3.7-2.5,5.5-4.4c0.5-0.5,1-1.1,1.4-1.7c0,0,8.5-13.1,14.4-19
		c1.9-1.9,3.5-3.1,4.4-2.9c4,0.9,14.6,2.6,13.7,8.5s21.3-10.6,15.9-17.9c0,0,2.1-1.3,3.7,5.6c0.4,1.7,1,3.3,1.7,5.1
		c0.7,1.7,1.4,3.4,2,5.3c1.3,4.1,2.1,8.8,0.7,14.8C239.5,843.9,241.9,846.6,239.5,849.8z"/>
	<path fill="#D8D0CA" d="M195.4,849.7c-2,2.2-5.2-1.2-7.6-3.5c-1.5-1.4-4.2-0.8-6.1-0.1c0.5-0.5,1-1.1,1.4-1.7c0,0,8.5-13.1,14.4-19
		c8.9-0.1,11,1.9,13.2,3.2C213.3,830.1,197.4,847.5,195.4,849.7z"/>
	<path fill="#D8D0CA" d="M239.5,849.8c-0.8,1.1-1.8,2.3-3.1,3.6v0c-2.7,2.7-6.3,5.4-10.1,6.3c-5.7,1.3-9.9,2.4-14.5,6.3
		c-0.3,0.3-0.7,0.6-1.1,0.9c-5.6,4.2-19.7,12.4-31.3,12.4c-12.5,0-21.3-2.3-20.3-9.9c0,0,0-0.3,0.2-0.9c0.1-0.3,0.2-0.6,0.3-0.9
		c3.6,10.4,22,2.9,34.6,1.4c17.7-2.1,22.8-23,35.2-27.8c6-2.3,8.6-7.4,9.6-12.1c1.3,4.1,2.1,8.8,0.7,14.8
		C239.5,843.9,241.9,846.6,239.5,849.8z"/>
	<path fill="#323232" d="M239.5,849.8c-0.8,1.1-1.8,2.3-3.1,3.6c-2-3.5-1.4-11.9,0.6-15.4c2-3.5,0-14.2,0-14.2
		c2.1,5.4,4.8,11.4,2.6,20.1C239.5,843.9,241.9,846.6,239.5,849.8z"/>
	<path fill="#323232" d="M210.7,866.9c-5.6,4.2-19.7,12.4-31.3,12.4c-12.5,0-21.3-2.3-20.3-9.9c0,0,0-0.3,0.2-0.9
		c0.7-2.4,3.6-9.3,15.9-17.4c0,0,0.4-0.2,1-0.6c1.8-0.6,3.6-0.9,5.1-0.7c6.8,1.1,6.8,20.5,23.1,16.9
		C207.4,866.1,209.4,866.2,210.7,866.9z"/>
	<path fill="#F2F2F2" d="M239.5,849.8c-2.4,3.2-7.6,8.6-13.2,9.9c-5.7,1.3-9.9,2.4-14.5,6.3s-19.9,13.3-32.4,13.3
		c-12.5,0-21.3-2.3-20.3-9.9c0,0,0-0.3,0.2-0.9c0.2,0.5,5.3,10.2,24.3,6.8c19.5-3.5,24.4-14,39.8-19.2c15.3-5.2,16.2-12.2,16.2-12.2
		S241.9,846.6,239.5,849.8z"/>
	<g>
		<path fill="#4ABCB9" d="M196.5,844.7c-0.1,0-0.2,0-0.2,0c-5.5-1.5-14.1,0-14.2,0c-0.5,0.1-0.9-0.2-1-0.7s0.2-0.9,0.7-1
			c0.4-0.1,9.1-1.6,14.9,0c0.5,0.1,0.7,0.6,0.6,1C197.2,844.5,196.8,844.7,196.5,844.7z"/>
	</g>
	<g>
		<path fill="#4ABCB9" d="M198.8,841.1c-0.1,0-0.2,0-0.2,0c-5.5-1.5-14.1,0-14.2,0c-0.5,0.1-0.9-0.2-1-0.7c-0.1-0.5,0.2-0.9,0.7-1
			c0.4-0.1,9.1-1.6,14.9,0c0.5,0.1,0.7,0.6,0.6,1C199.6,840.8,199.2,841.1,198.8,841.1z"/>
	</g>
	<g>
		<path fill="#4ABCB9" d="M201.4,837.4c-0.1,0-0.2,0-0.2,0c-5.5-1.5-14.1,0-14.2,0c-0.5,0.1-0.9-0.2-1-0.7c-0.1-0.5,0.2-0.9,0.7-1
			c0.4-0.1,9.1-1.6,14.9,0c0.5,0.1,0.7,0.6,0.6,1C202.1,837.1,201.8,837.4,201.4,837.4z"/>
	</g>
	<g>
		<path fill="#4ABCB9" d="M203.3,834.4c-0.1,0-0.2,0-0.2,0c-5.5-1.5-14.1,0-14.2,0c-0.5,0.1-0.9-0.2-1-0.7c-0.1-0.5,0.2-0.9,0.7-1
			c0.4-0.1,9.1-1.6,14.9,0c0.5,0.1,0.7,0.6,0.6,1C204,834.1,203.7,834.4,203.3,834.4z"/>
	</g>
	<g>
		<path fill="#4ABCB9" d="M206.1,830.1c-0.1,0-0.2,0-0.2,0c-5.5-1.5-14.1,0-14.2,0c-0.5,0.1-0.9-0.2-1-0.7c-0.1-0.5,0.2-0.9,0.7-1
			c0.4-0.1,9.1-1.6,14.9,0c0.5,0.1,0.7,0.6,0.6,1C206.8,829.9,206.5,830.1,206.1,830.1z"/>
	</g>
	<g>
		<path fill="#4ABCB9" d="M200.3,836.2c-0.3,0-0.6-0.2-0.7-0.4c-1.4-2.6-7.4-7.8-7.4-7.8c-0.4-0.3-0.4-0.8-0.1-1.2
			c0.3-0.4,0.8-0.4,1.2-0.1c0.3,0.2,6.3,5.4,7.8,8.3c0.2,0.4,0.1,0.9-0.3,1.1C200.6,836.1,200.5,836.2,200.3,836.2z"/>
	</g>
	<g>
		<path fill="#4ABCB9" d="M198.5,840.7c-0.3,0-0.6-0.2-0.7-0.4c-1.4-2.6-7.4-7.8-7.4-7.8c-0.4-0.3-0.4-0.8-0.1-1.2
			c0.3-0.4,0.8-0.4,1.2-0.1c0.3,0.2,6.3,5.4,7.8,8.3c0.2,0.4,0.1,0.9-0.3,1.1C198.8,840.7,198.6,840.7,198.5,840.7z"/>
	</g>
	<g>
		<path fill="#4ABCB9" d="M195.4,844c-0.3,0-0.6-0.2-0.7-0.4c-1.4-2.6-7.4-7.8-7.4-7.8c-0.4-0.3-0.4-0.8-0.1-1.2
			c0.3-0.4,0.8-0.4,1.2-0.1c0.3,0.2,6.3,5.4,7.8,8.3c0.2,0.4,0.1,0.9-0.3,1.1C195.7,844,195.5,844,195.4,844z"/>
	</g>
	<g>
		<path fill="#4ABCB9" d="M193.4,847.8c-0.3,0-0.6-0.2-0.7-0.4c-1.4-2.6-7.4-7.8-7.4-7.8c-0.4-0.3-0.4-0.8-0.1-1.2
			c0.3-0.4,0.8-0.4,1.2-0.1c0.3,0.2,6.3,5.4,7.8,8.3c0.2,0.4,0.1,0.9-0.3,1.1C193.7,847.7,193.6,847.8,193.4,847.8z"/>
	</g>
	<path fill="#323232" d="M356.7,814.3c0,0-6.5-3.2-12.5,0.9c-6.1,4.2-14.7,11.5-21,12.4c-6.4,0.9,11.6,19.6,19.3,15.3
		S365,824.2,356.7,814.3z"/>
	<path fill="#323232" d="M232.5,813.4c-7.1-68.1-4-123.3-4-123.9l-15.1-0.9l-15.1-0.9c-0.1,2.4-3.2,58,4.1,128.5
		C207.3,817.6,223,821.2,232.5,813.4z"/>
	<path fill="#BCBCBC" d="M331.6,810.3l0.6,12.7c0.1,2,1.5,3.7,3.5,4.2c3.3,0.8,8.4,1.5,12.3-0.4c1.6-0.8,2.5-2.5,2.4-4.2l-0.6-14.9
		c-0.1-2.9-2.9-5-5.7-4.2l-9,2.3C333,806.2,331.5,808.2,331.6,810.3z"/>
	<path fill="#323232" d="M356,813.4c-7.1-68.1-4-123.3-4-123.9l-15.1-0.9l-15.1-0.9c-0.1,2.4-3.2,58,4.1,128.5
		C330.9,817.6,346.6,821.2,356,813.4z"/>
	<polygon fill="#323232" points="92.7,474.1 149.4,474.1 154.1,490.2 92.7,489.3 	"/>
	<path fill-rule="evenodd" clip-rule="evenodd" fill="#F77FF7" d="M450.3,570.4c0,2.8,0,5.4-0.2,8.1c-0.1,2.3-0.3,4.6-0.4,6.9
		c-0.3,4.1-0.8,8.2-1.5,12.1c-3.6,21.7-9.7,40.5-17.7,56.9c-2.9,5.9-6.1,11.5-9.5,16.8c-24.2,37.5-59.9,58.4-97.2,67
		c-13.8,3.2-27.9,4.7-41.7,4.7c-48.4,0-100.3-18.4-133.8-64.2c-1.8-2.4-3.5-4.9-5.2-7.5c-1.3-2-2.5-4-3.7-6.1
		c-9.5-16.2-17-35.3-21.6-57.6c-0.2-0.8-0.3-1.6-0.5-2.4c-0.5-2.5-1-5.1-1.4-7.6c-1-6.2-1.7-12.5-2-19.1c-0.1-2.7-0.2-5.4-0.2-8.1
		c0.1-21.2,3.9-43.5,10.5-65.6c1.9-6.3,4-12.5,6.3-18.7c0.8-2.3,1.8-4.6,2.7-6.9c7.9-19.6,17.9-38.5,29.4-55.8
		c1.9-2.9,3.9-5.8,6-8.6c1.6-2.2,3.2-4.4,4.8-6.5c26.5-34.6,59.1-60.2,92.2-66.7c5.4-1.1,10.9-1.6,16.3-1.6
		c33.7,0,67.8,21.4,96.4,53.7c5.5,6.2,10.9,12.9,15.9,19.8c2.4,3.3,4.7,6.6,7,10c11.5,17.3,21.5,36.2,29.4,55.8
		c0.9,2.3,1.8,4.6,2.7,6.8c2.6,7,5,14,7,21.1c4.9,16.8,8.1,33.6,9.3,49.9C450.1,561.6,450.3,566,450.3,570.4z"/>
	<path fill-rule="evenodd" clip-rule="evenodd" fill="#D05BD3" d="M450.3,570.4c0,2.7,0,5.4-0.2,8.1c-0.1,2.3-0.2,4.6-0.4,6.9
		c-0.3,4.1-0.9,8.2-1.5,12.1c-4.9,29.6-14.5,53.9-27.2,73.7C387.8,722.6,333,743,282.1,743s-105.8-20.4-138.9-71.7
		c-11.3-17.5-20.1-38.6-25.4-63.7c-0.2-0.8-0.3-1.6-0.5-2.4c5.7,3.1,12.4,6.3,20,9.4l0,0c4.8,2,10,3.9,15.6,5.8
		c16.8,5.6,37,10.2,60.3,11.9c1.9,0.1,3.8,0.3,5.7,0.4c1.6,0.1,3.1,0.2,4.7,0.2c2.4,0.1,4.8,0.1,7.2,0.2c6.6,0.1,13.3,0,20.1-0.3
		c6.3-0.2,12.6-0.6,19-1.1c19.2-1.5,38.6-4.2,57.4-8.1c15.4-3.2,30.3-7.3,44.2-12.2h0c6.3-2.2,12.4-4.6,18.2-7.1
		c27.4-12,49.1-27.7,60.1-47.2C450.1,561.6,450.3,566,450.3,570.4z"/>
	<path fill-rule="evenodd" clip-rule="evenodd" fill="#4ABCB9" d="M450.3,570.4c0,2.7,0,5.4-0.2,8.1c-0.1,2.3-0.2,4.6-0.4,6.9
		c-0.3,4.1-0.9,8.2-1.5,12.1c-4.9,29.6-14.5,53.9-27.2,73.7c-16.8,26-39.2,44.1-63.8,55.6c-1.5,0.7-2.9,1.4-4.4,2
		c-5.5,2.4-11.2,4.5-16.9,6.2c-1.5,0.5-2.9,0.9-4.4,1.3c-16.3,4.6-33.1,6.7-49.5,6.7c-37.3,0-76.6-10.9-108-36.8
		c-1.2-1-2.3-1.9-3.5-2.9c-5.2-4.6-10.1-9.5-14.8-15c-1-1.2-2-2.4-3-3.6c-1.6-1.9-3.1-3.9-4.6-5.9c0,0,0,0,0,0
		c-1.7-2.4-3.5-4.9-5.1-7.4c-0.4-0.7-0.9-1.4-1.3-2.1c-9.8-15.6-17.6-34-22.7-55.5c6.1,3.1,13.3,6.4,21.6,9.6l0,0
		c3,1.2,6.2,2.3,9.6,3.4c1.1,0.4,2.3,0.8,3.5,1.1c0.7,0.2,1.5,0.5,2.2,0.7c4.9,1.5,10.2,2.9,15.7,4.3c1.2,0.3,2.4,0.5,3.6,0.8
		c0.1,0,0.2,0,0.3,0.1v0c11.9,2.6,25,4.7,39.4,5.7c1.8,0.1,3.7,0.2,5.6,0.3c1.5,0.1,3.1,0.2,4.6,0.2c2.3,0.1,4.7,0.1,7,0.2
		c6.4,0.1,13,0,19.6-0.2c6.1-0.2,12.3-0.5,18.6-1c17.7-1.3,35.6-3.5,52.9-6.8c1-0.2,2.1-0.4,3.1-0.6c1.4-0.3,2.8-0.5,4.2-0.8
		c1.5-0.3,3.1-0.6,4.6-1c6.1-1.3,12-2.7,17.8-4.3c1.5-0.4,3-0.8,4.5-1.2c4.1-1.2,8.2-2.4,12.1-3.7h0c6.2-2,12.1-4.2,17.8-6.5
		c30.6-12.4,53.9-29.3,62.6-50.5l0,0C450.3,565.8,450.3,568.1,450.3,570.4z"/>
	<path opacity="0.44" fill="#2F8982" d="M174.1,706.2c-1.2-1-2.3-1.9-3.5-2.9c-5.2-4.6-10.1-9.5-14.8-15c-1-1.2-2-2.4-3-3.6
		c-0.3-0.5-0.7-0.9-1-1.4c0,0,0,0,0,0c-0.1-23,0.8-41.5,2-55.3c0.7,0.2,1.5,0.5,2.2,0.7c4.9,1.5,10.2,2.9,15.7,4.3
		c1.2,0.3,2.4,0.5,3.6,0.8C173.9,650.9,173,675.2,174.1,706.2z"/>
	<g opacity="0.46">
		<path fill="#2F8982" d="M357.2,726.8c-1.5,0.7-2.9,1.4-4.4,2c-5.5,2.4-11.2,4.5-16.9,6.2c-3.3-46.2-2.4-81.4-0.7-105.3
			c6.1-1.3,12-2.7,17.8-4.3c1.5-0.4,3-0.8,4.5-1.2C355.7,645.7,354.2,680.2,357.2,726.8z"/>
	</g>
	<path fill="#FFFFFF" d="M170.6,703.2c-3.7-3.2-7.2-6.7-10.6-10.3c-1.4-1.5-2.8-3.1-4.2-4.6c-2.6-3-5.1-6.2-7.6-9.5c0,0,0,0,0,0
		c-0.1-21.8,0.9-39.1,2.1-51.9c1.9,0.6,3.7,1.2,5.7,1.8c1.9,0.6,3.8,1.2,5.8,1.7c3.2,0.9,6.5,1.7,9.9,2.5
		C170.3,649.3,169.3,672.9,170.6,703.2z"/>
	<path fill="#E8E8E8" d="M170.6,703.2c-3.7-3.2-7.2-6.7-10.6-10.3c-0.1-25.8,0.8-46.6,1.9-62.6c3.2,0.9,6.5,1.7,9.9,2.5
		C170.3,649.3,169.3,672.9,170.6,703.2z"/>
	<g>
		<path fill="#FFFFFF" d="M352.8,728.8c-3.9,1.7-7.9,3.2-12,4.6c-3.1,1-6.2,2-9.3,2.9c-4-47.4-2.9-82.7-0.9-105.6
			c3.2-0.7,6.3-1.3,9.4-2.1c4.4-1,8.7-2.1,13-3.2C351,645.7,349.1,680.5,352.8,728.8z"/>
	</g>
	<g>
		<path fill="#E8E8E8" d="M352.8,728.8c-3.9,1.7-7.9,3.2-12,4.6c-3.4-46.2-2.5-81.3-0.7-104.8c4.4-1,8.7-2.1,13-3.2
			C351,645.7,349.1,680.5,352.8,728.8z"/>
	</g>
	<path fill-rule="evenodd" clip-rule="evenodd" fill="#FFFFFF" d="M251.9,639.7l-14.7,30.9c-1.2,2.6-6.4,2.6-7.6,0L215,639.4
		c1.8,0.1,3.7,0.2,5.6,0.2c3.8,0.1,7.7,0.2,11.7,0.3C238.7,639.9,245.2,639.9,251.9,639.7z"/>
	<path fill-rule="evenodd" clip-rule="evenodd" fill="#D05BD3" d="M195.9,592.3c0,0,32.6,28.7,71.2,0
		C305.7,563.7,171,566.2,195.9,592.3z"/>
	<path fill="#444444" d="M430.5,654.4c-2.9,5.9-6.1,11.5-9.5,16.8c-24.2,37.5-59.9,58.4-97.2,67c-13.8,3.2-27.9,4.7-41.7,4.7
		c-48.4,0-100.3-18.4-133.8-64.2c-1.8-2.4-3.5-4.9-5.2-7.5c-1.3-2-2.5-4-3.7-6.1h0C139.4,665.2,247.2,756.5,430.5,654.4z"/>
	<path opacity="0.34" fill-rule="evenodd" clip-rule="evenodd" fill="#C6C4BD" d="M450.3,570.4c0,2.7,0,5.4-0.2,8.1
		c-0.1,2.3-0.2,4.6-0.4,6.9c-0.3,4.1-0.9,8.2-1.5,12.1c-4.9,29.6-14.5,53.9-27.2,73.7c-24.2,37.5-59.9,58.4-97.2,67
		c137.6-200.9-58.1-396.7-58.1-396.7c5.4-1.1,10.9-1.6,16.3-1.6c40.2,0,81,30.5,112.4,73.5c2.4,3.3,4.7,6.6,7,10
		c11.5,17.3,21.5,36.2,29.4,55.7c0.9,2.3,1.8,4.6,2.7,6.8c2.6,7,5,14,7,21.1c4.9,16.8,8.1,33.6,9.3,49.9
		C450.1,561.6,450.3,566,450.3,570.4z"/>
	<path opacity="0.56" fill="#C6C4BD" d="M378.5,393.6c-113.3,53.7-185.2,25-205,14.7c26.5-34.6,59.1-60.2,92.2-66.7
		c5.4-1.1,10.9-1.6,16.3-1.6C315.7,340,349.9,361.4,378.5,393.6z"/>
	<g>
		<path fill="#FFFFFF" d="M169.3,443.5c-0.6,0-1.2-0.1-1.8-0.4c-2.4-1-3.5-3.8-2.5-6.2c11.8-28,32.2-46.3,33.1-47.1
			c2-1.7,4.9-1.5,6.7,0.4c1.7,2,1.5,4.9-0.4,6.7c-0.2,0.2-19.7,17.7-30.6,43.7C172.9,442.5,171.2,443.5,169.3,443.5z"/>
	</g>
	<path fill-rule="evenodd" clip-rule="evenodd" fill="#2F8982" d="M323.4,632.1c-18.3,64.8-71.5,7.7-71.5,7.7
		c6.1-0.2,12.3-0.5,18.6-1C288.1,637.6,306,635.4,323.4,632.1z"/>
	<path fill-rule="evenodd" clip-rule="evenodd" fill="#2F8982" d="M215,639.4c0,0-30.8,44.8-39.4-5.7
		C187.4,636.3,200.6,638.4,215,639.4z"/>
	<path opacity="0.71" fill="#FFFFFF" d="M208,497.7c0,28.3-23,51.3-51.3,51.3c-0.3,0-0.6,0-0.8,0c-8.9-0.1-17.3-2.6-24.5-6.7
		c-2.4-1.4-4.8-3-6.9-4.7c-7.5-6.1-13.3-14.4-16.4-23.8c-1.7-5-2.6-10.4-2.6-16c0-21.9,13.7-40.5,32.9-47.9
		c5.7-2.2,11.9-3.4,18.3-3.4c3.6,0,7.1,0.4,10.5,1.1c2.8,0.6,5.5,1.4,8,2.4c8.1,3.1,15.2,8.3,20.7,14.8
		C203.4,473.6,208,485.1,208,497.7z"/>
	<circle opacity="0.71" fill="#FFFFFF" cx="299.9" cy="497.7" r="51.3"/>
	<g>
		<polygon fill="#323232" points="123.4,448.4 123.4,448.4 123.4,448.4 		"/>
		<path fill="#323232" d="M435.2,484.1l-3.1-7.6c-0.6-1.4-2-2.4-3.5-2.4h-54.5c0,0-13.7-0.5-20-7.8c-4.3-4.9-12.4-11.3-17.3-15
			c-1.3-1-2.5-2-3.9-2.9c-0.1,0-0.1-0.1-0.1-0.1l0,0c-9.4-6.3-20.8-10-33-10c-16.4,0-31.3,6.7-42,17.5c-5.2,4.9-9.7,10.2-14.3,15.4
			c-5.9,6.6-9.4,3.4-15.2,3.4c-5.9,0-9.3,3.2-15.2-3.4c-4.6-5.2-9.1-10.5-14.3-15.4C188,445,173,438.4,156.5,438.4
			c-12.2,0-24.2,3.7-33.1,10c0,0,0.1,0,0.1,0.1c-1.3,0.9-2.5,1.9-3.8,2.9c-4.9,3.7-13.2,10.1-17.5,15c-6.4,7.3-20.3,7.8-20.3,7.8
			v15.2c0,0,8.3-0.5,11,2.7c1.6,1.9,3.3,10.9,6.1,20.4c0.9,3.4,2.1,6.6,3.5,9.7c1.3,3.1,2.8,6,4.6,8.3l0,0
			c10.6,16.1,28.9,26.7,49.6,26.7c24.1,0,44.7-14.3,54.1-34.9c0,0,0,0,0-0.1c0-0.1,0.1-0.2,0.1-0.2c4.3-7.2,8.6-27,10.5-30.2
			c2-3.2,6.9-3.4,6.9-3.4s4.9,0.2,6.9,3.4c1.9,3.1,6.2,23,10.5,30.2c0,0.1,0.1,0.2,0.1,0.2c0,0,0,0,0,0.1
			c9.3,20.6,30,34.9,54.1,34.9c20.7,0,38.9-10.6,49.6-26.7l0,0c1.8-2.4,3.3-5.2,4.6-8.3c1.4-3.1,2.6-6.4,3.4-9.7
			c2.8-9.5,4.4-18.5,6-20.4c2.7-3.2,10.7-2.7,10.7-2.7v0.1h57.5C434.4,489.3,436.2,486.6,435.2,484.1z M158.4,549
			c-29.6,0.9-53.9-23.3-52.9-52.9c0.9-26.8,22.7-48.7,49.6-49.6c29.6-0.9,53.9,23.3,52.9,52.9C207.1,526.3,185.2,548.1,158.4,549z
			 M301.6,549c-29.6,0.9-53.9-23.3-52.9-52.9c0.9-26.8,22.7-48.7,49.6-49.6c29.6-0.9,53.9,23.3,52.9,52.9
			C350.3,526.3,328.4,548.1,301.6,549z"/>
	</g>
	<path opacity="0.31" fill="#D8D8D8" d="M195.9,464.7L155.9,549c-8.9-0.1-17.3-2.6-24.5-6.7c-2.4-1.4-4.8-3-6.9-4.7l42.8-90
		c2.8,0.6,5.5,1.4,8,2.4C183.3,453,190.4,458.2,195.9,464.7z"/>
	<path opacity="0.31" fill="#D8D8D8" d="M175.2,449.9l-43.9,92.4c-2.4-1.4-4.8-3-6.9-4.7c-7.5-6.1-13.3-14.4-16.4-23.8l30.4-63.9
		c5.7-2.2,11.9-3.4,18.3-3.4c3.6,0,7.1,0.4,10.5,1.1C170,448.1,172.6,448.9,175.2,449.9z"/>
	<path opacity="0.31" fill="#D8D8D8" d="M339.1,464.7L299.1,549c-8.9-0.1-17.3-2.6-24.5-6.7c-2.4-1.4-4.8-3-6.9-4.7l42.8-90
		c2.8,0.6,5.5,1.4,8,2.4C326.5,453,333.6,458.2,339.1,464.7z"/>
	<path opacity="0.31" fill="#D8D8D8" d="M318.4,449.9l-43.9,92.4c-2.4-1.4-4.8-3-6.9-4.7c-7.5-6.1-13.3-14.4-16.4-23.8l30.4-63.9
		c5.7-2.2,11.9-3.4,18.3-3.4c3.6,0,7.1,0.4,10.5,1.1C313.2,448.1,315.9,448.9,318.4,449.9z"/>
	<path fill-rule="evenodd" clip-rule="evenodd" fill="#323232" d="M164.5,573.2c-18.6,11.2-43.3,3.3-49.2-8.7
		c-7.5-15.3,7.5-25.4,21.3-24.4c17.9,1.3,12-10-0.1-11.3c-20.4-2.3-31.5,19.9-27.6,37c1.9,8.4,7.3,16.2,16.6,22.5
		c25.3,17.2,87.3,11.9,103.9-14.1c16.5,26,78.6,31.4,103.9,14.1c9.2-6.3,14.6-14.1,16.6-22.5c3.9-17.1-7.1-39.3-27.6-37
		c-12.1,1.3-18,12.6-0.1,11.3c13.8-1,28.8,9.1,21.3,24.4c-5.9,12-30.6,19.9-49.2,8.7C277,562.8,243,518.3,229.4,544
		C215.8,518.3,181.8,562.8,164.5,573.2z"/>
	<path fill="#444444" d="M334.4,409.5c-2.4,1-4.8,2-7.1,2.9c-78,30.6-145.5,11.6-159.3-7.3c-14.2-19.5,27.8-41,27.8-41c0,0,0,0,0,0
		c5-19.3,85.7-3,119.9-9.2c3.8-0.7,7-1.7,9.5-3c6.9-3.7,17-3.5,26.1-0.6C375.1,358.7,392.8,384.5,334.4,409.5z"/>
	<path fill="#4ABCB9" d="M350.6,380.6c-10.9,9.5-26.4,15-43.1,18c-44.5,8-97.9-1.6-97.9-1.6c-23-6.9-16.4-20.8-16.4-20.8
		s1.1-4.8,2.6-12c0,0,0,0,0,0c0.2-0.8,0.4-1.6,0.5-2.5c3.3-15.2,8.3-38.5,10.7-51.6c3.8-20.5,36.6-27.4,51.4-25.2
		c4.4,0.7,13.6,1.9,24.3,3.3c15.1,1.9,33.2,4.2,45.6,5.7c8.6,1.1,15.4,7.7,16.7,16.3l6.3,41.2l0.3,1.7l2.7,17.4
		C354.9,374.2,353.5,378.1,350.6,380.6z"/>
	<path fill="#444444" d="M351.6,353c-0.1,0.1-0.2,0.2-0.2,0.2c-39.7,34.6-141,16.3-141,16.3c-7.2-2.2-11.5-5-14-7.9
		c3.3-15.2,8.3-38.5,10.7-51.6c0.8-4.1,2.7-7.7,5.4-10.7c0.1-0.1,0.1-0.1,0.1-0.1c10.9-12.1,34-16.1,45.8-14.3
		c10.5,1.6,48.7,6.3,69.9,9c2.1,0.3,4.2,0.9,6.1,1.8h0c5.6,2.7,9.7,8.1,10.7,14.5L351.6,353z"/>
	<path fill="#303030" d="M334.4,295.5c-25.2-4.3-67.5,13.2-101.2,15.7c-31.9,2.4-21.9-10.6-20.7-12c0.1-0.1,0.1-0.1,0.1-0.1
		c10.9-12.1,34-16.1,45.8-14.3c10.5,1.6,48.7,6.3,69.9,9C330.5,294,332.5,294.6,334.4,295.5z"/>
	<path opacity="0.25" fill="#444444" d="M334.4,409.5c-2.4,1-4.8,2-7.1,2.9c-7.8-10.3-19.8-13.9-19.8-13.9
		c4.9-16.9,7.5-31.3,8.2-43.7c2.4-40.2-14.6-58.6-33-66.8c15.1,1.9,33.2,4.2,45.6,5.7c8.6,1.1,15.4,7.7,16.7,16.3l6.3,41.2
		C375.1,358.7,392.8,384.5,334.4,409.5z"/>
	<path fill="#F77FF7" d="M365.6,855.2c-0.9,1.2-2.1,2.6-3.5,4v0c-3,3-7,6-11.2,7c-6.3,1.4-11,2.7-16.1,7c-0.3,0.3-0.8,0.6-1.2,1
		c-6.2,4.7-22,13.8-35,13.8c-13.9,0-23.8-2.5-22.7-11c0,0,0-0.3,0.2-1c0.1-0.3,0.2-0.6,0.3-1c1.2-3.3,5.2-10.3,17.4-18.4
		c0,0,0.4-0.3,1.1-0.7c1.5-1,4.2-2.8,6.1-4.9c0.6-0.6,1.1-1.2,1.5-1.9c0,0,9.5-14.6,16.1-21.2c2.1-2.1,3.9-3.4,5-3.2
		c4.4,1,16.2,2.9,15.3,9.5c-0.9,6.6,23.7-11.8,17.7-19.9c0,0,2.4-1.5,4.2,6.2c0.4,1.9,1.1,3.7,1.9,5.7c0.7,1.9,1.5,3.8,2.2,5.9
		c1.5,4.6,2.4,9.8,0.7,16.5C365.7,848.6,368.3,851.6,365.6,855.2z"/>
	<path fill="#D8D0CA" d="M316.5,855.1c-2.2,2.5-5.8-1.4-8.5-3.9c-1.7-1.6-4.7-0.9-6.8-0.1c0.6-0.6,1.1-1.2,1.5-1.9
		c0,0,9.5-14.6,16.1-21.2c10-0.1,12.2,2.1,14.8,3.6C336.4,833.2,318.7,852.6,316.5,855.1z"/>
	<path fill="#D8D0CA" d="M365.6,855.2c-0.9,1.2-2.1,2.6-3.5,4v0c-3,3-7,6-11.2,7c-6.3,1.4-11,2.7-16.1,7c-0.3,0.3-0.8,0.6-1.2,1
		c-6.2,4.7-22,13.8-35,13.8c-13.9,0-23.8-2.5-22.7-11c0,0,0-0.3,0.2-1c0.1-0.3,0.2-0.6,0.3-1c4,11.6,24.5,3.2,38.6,1.5
		c19.7-2.4,25.4-25.7,39.2-31c6.7-2.6,9.5-8.3,10.7-13.5c1.5,4.6,2.4,9.8,0.7,16.5C365.7,848.6,368.3,851.6,365.6,855.2z"/>
	<path fill="#323232" d="M365.6,855.2c-0.9,1.2-2.1,2.6-3.5,4c-2.2-4-1.6-13.2,0.6-17.2c2.2-3.9,0-15.8,0-15.8
		c2.4,6,5.3,12.7,2.9,22.4C365.7,848.6,368.3,851.6,365.6,855.2z"/>
	<path fill="#323232" d="M333.6,874.2c-6.2,4.7-22,13.8-35,13.8c-13.9,0-23.8-2.5-22.7-11c0,0,0-0.3,0.2-1c0.8-2.6,4-10.3,17.7-19.4
		c0,0,0.4-0.3,1.1-0.7c2-0.7,4-1,5.7-0.7c7.6,1.2,7.5,22.9,25.8,18.9C329.8,873.3,332.1,873.5,333.6,874.2z"/>
	<path fill="#F2F2F2" d="M365.6,855.2c-2.7,3.6-8.4,9.6-14.7,11c-6.3,1.4-11,2.7-16.1,7c-5.1,4.3-22.2,14.8-36.2,14.8
		s-23.8-2.5-22.7-11c0,0,0-0.3,0.2-1c0.3,0.5,5.9,11.4,27.1,7.6c21.8-3.9,27.3-15.6,44.4-21.4c17.1-5.8,18.1-13.6,18.1-13.6
		S368.3,851.6,365.6,855.2z"/>
	<g>
		<path fill="#4ABCB9" d="M317.7,849.5c-0.1,0-0.2,0-0.3,0c-6.1-1.7-15.7,0-15.8,0c-0.5,0.1-1-0.2-1.1-0.8s0.2-1,0.8-1.1
			c0.4-0.1,10.1-1.8,16.7,0c0.5,0.1,0.8,0.7,0.7,1.2C318.5,849.2,318.1,849.5,317.7,849.5z"/>
	</g>
	<g>
		<path fill="#4ABCB9" d="M320.3,845.4c-0.1,0-0.2,0-0.3,0c-6.1-1.7-15.7,0-15.8,0c-0.5,0.1-1-0.2-1.1-0.8c-0.1-0.5,0.2-1,0.8-1.1
			c0.4-0.1,10.1-1.8,16.7,0c0.5,0.1,0.8,0.7,0.7,1.2C321.1,845.2,320.7,845.4,320.3,845.4z"/>
	</g>
	<g>
		<path fill="#4ABCB9" d="M323.2,841.3c-0.1,0-0.2,0-0.3,0c-6.1-1.7-15.7,0-15.8,0c-0.5,0.1-1-0.2-1.1-0.8c-0.1-0.5,0.2-1,0.8-1.1
			c0.4-0.1,10.1-1.8,16.7,0c0.5,0.1,0.8,0.7,0.7,1.2C324,841.1,323.6,841.3,323.2,841.3z"/>
	</g>
	<g>
		<path fill="#4ABCB9" d="M325.3,838c-0.1,0-0.2,0-0.3,0c-6.1-1.7-15.7,0-15.8,0c-0.5,0.1-1-0.2-1.1-0.8c-0.1-0.5,0.2-1,0.8-1.1
			c0.4-0.1,10.1-1.8,16.7,0c0.5,0.1,0.8,0.7,0.7,1.2C326.1,837.7,325.7,838,325.3,838z"/>
	</g>
	<g>
		<path fill="#4ABCB9" d="M328.4,833.2c-0.1,0-0.2,0-0.3,0c-6.1-1.7-15.7,0-15.8,0c-0.5,0.1-1-0.2-1.1-0.8c-0.1-0.5,0.2-1,0.8-1.1
			c0.4-0.1,10.1-1.8,16.7,0c0.5,0.1,0.8,0.7,0.7,1.2C329.2,833,328.9,833.2,328.4,833.2z"/>
	</g>
	<g>
		<path fill="#4ABCB9" d="M322,840c-0.3,0-0.7-0.2-0.8-0.5c-1.6-2.9-8.2-8.7-8.3-8.7c-0.4-0.3-0.4-0.9-0.1-1.3
			c0.3-0.4,0.9-0.4,1.3-0.1c0.3,0.2,7,6.1,8.7,9.2c0.2,0.5,0.1,1-0.4,1.3C322.3,839.9,322.2,840,322,840z"/>
	</g>
	<g>
		<path fill="#4ABCB9" d="M320,845c-0.3,0-0.7-0.2-0.8-0.5c-1.6-2.9-8.2-8.7-8.3-8.7c-0.4-0.3-0.4-0.9-0.1-1.3s0.9-0.4,1.3-0.1
			c0.3,0.2,7,6.1,8.7,9.2c0.2,0.5,0.1,1-0.4,1.3C320.3,845,320.1,845,320,845z"/>
	</g>
	<g>
		<path fill="#4ABCB9" d="M316.5,848.7c-0.3,0-0.7-0.2-0.8-0.5c-1.6-2.9-8.2-8.7-8.3-8.7c-0.4-0.3-0.4-0.9-0.1-1.3s0.9-0.4,1.3-0.1
			c0.3,0.2,7,6.1,8.7,9.2c0.2,0.5,0.1,1-0.4,1.3C316.8,848.7,316.6,848.7,316.5,848.7z"/>
	</g>
	<g>
		<path fill="#4ABCB9" d="M314.3,852.9c-0.3,0-0.7-0.2-0.8-0.5c-1.6-2.9-8.2-8.7-8.3-8.7c-0.4-0.3-0.4-0.9-0.1-1.3s0.9-0.4,1.3-0.1
			c0.3,0.2,7,6.1,8.7,9.2c0.2,0.5,0.1,1-0.4,1.3C314.6,852.9,314.4,852.9,314.3,852.9z"/>
	</g>
</g>
<g>
	<g>
		<path fill="none" stroke="#282828" stroke-width="4" stroke-linecap="round" stroke-linejoin="round" stroke-miterlimit="10" d="
			M969.6,219.5h-537c-14,0-25.3-11.3-25.3-25.3V90.8c0-14,11.3-25.3,25.3-25.3h537c14,0,25.3,11.3,25.3,25.3v103.4
			C994.9,208.1,983.5,219.5,969.6,219.5z"/>
		
			<rect x="426.3" y="83.5" fill="none" stroke="#282828" stroke-width="4" stroke-linecap="round" stroke-linejoin="round" stroke-miterlimit="10" width="549.6" height="118"/>
		
			<line fill="none" stroke="#282828" stroke-width="4" stroke-linecap="round" stroke-linejoin="round" stroke-miterlimit="10" x1="407.2" y1="65.5" x2="426.3" y2="83.5"/>
		
			<line fill="none" stroke="#282828" stroke-width="4" stroke-linecap="round" stroke-linejoin="round" stroke-miterlimit="10" x1="407.2" y1="219.5" x2="426.3" y2="201.5"/>
		
			<line fill="none" stroke="#282828" stroke-width="4" stroke-linecap="round" stroke-linejoin="round" stroke-miterlimit="10" x1="975.8" y1="201.5" x2="994.9" y2="219.5"/>
		
			<line fill="none" stroke="#282828" stroke-width="4" stroke-linecap="round" stroke-linejoin="round" stroke-miterlimit="10" x1="975.8" y1="83.5" x2="994.9" y2="65.5"/>
		
			<rect x="395.2" y="130.5" transform="matrix(0.7071 0.7071 -0.7071 0.7071 220.0057 -246.2237)" fill="none" stroke="#282828" stroke-width="4" stroke-linecap="round" stroke-linejoin="round" stroke-miterlimit="10" width="24" height="24"/>
		
			<rect x="982.9" y="130.5" transform="matrix(0.7071 0.7071 -0.7071 0.7071 392.121 -661.7468)" fill="none" stroke="#282828" stroke-width="4" stroke-linecap="round" stroke-linejoin="round" stroke-miterlimit="10" width="24" height="24"/>
		
			<rect x="689.1" y="53.5" transform="matrix(0.7071 0.7071 -0.7071 0.7071 251.6161 -476.5381)" fill="none" stroke="#282828" stroke-width="4" stroke-linecap="round" stroke-linejoin="round" stroke-miterlimit="10" width="24" height="24"/>
		
			<rect x="689.1" y="207.5" transform="matrix(0.7071 0.7071 -0.7071 0.7071 360.5106 -431.4325)" fill="none" stroke="#282828" stroke-width="4" stroke-linecap="round" stroke-linejoin="round" stroke-miterlimit="10" width="24" height="24"/>
	</g>
	
		<text transform="matrix(1 0 0 1 447.1346 157.8491)" fill="#323232" font-family="'TimesNewRomanPS-BoldMT'" font-size="58.6968px">EASTER HIPSTER</text>
</g>
</svg>
