<svg xmlns="http://www.w3.org/2000/svg" viewBox="0 0 247.6 98.55"><defs><style>.cls-1{isolation:isolate;}.cls-2{fill:#738791;opacity:0.27;}.cls-3{fill:#1c1c1c;}.cls-4{fill:#ededed;}.cls-5{fill:#7afcca;}.cls-6{fill:#d8d0ca;mix-blend-mode:multiply;}.cls-7{fill:#f7883c;}.cls-8{fill:#323232;}</style></defs><title>Asset 7</title><g class="cls-1"><g id="Layer_2" data-name="Layer 2"><g id="Layer_1-2" data-name="Layer 1"><ellipse class="cls-2" cx="123.8" cy="63.05" rx="123.8" ry="35.5"/><path class="cls-3" d="M83.38,9.9s-5.8-2.9-11.23.84S59,21.05,53.28,21.83,63.67,39.39,70.59,35.59,90.8,18.73,83.38,9.9Z"/><path class="cls-4" d="M60.87,6.34l.54,11.36a4.12,4.12,0,0,0,3.13,3.79c3,.73,7.54,1.38,11-.39a4.06,4.06,0,0,0,2.18-3.8L77.16,3.93a4.1,4.1,0,0,0-5.1-3.8l-8.1,2A4.09,4.09,0,0,0,60.87,6.34Z"/><path class="cls-5" d="M91.35,46.55a32.07,32.07,0,0,1-3.12,3.61h0c-2.67,2.68-6.26,5.42-10.08,6.27-5.65,1.28-9.87,2.41-14.47,6.29-.31.27-.68.56-1.09.88C57,67.84,42.9,76,31.26,76c-12.5,0-21.33-2.26-20.34-9.89a5.07,5.07,0,0,1,.2-.86c.08-.26.18-.57.32-.93,1.12-2.94,4.64-9.22,15.58-16.5,0,0,.4-.23,1-.64a32.36,32.36,0,0,0,5.51-4.41,12.24,12.24,0,0,0,1.37-1.67s8.54-13.07,14.41-19c1.88-1.91,3.49-3.08,4.44-2.86,4,.92,14.56,2.61,13.71,8.55S88.74,17.17,83.38,9.9c0,0,2.12-1.35,3.73,5.58a38.35,38.35,0,0,0,1.7,5.08c.66,1.68,1.36,3.41,2,5.26a25.67,25.67,0,0,1,.66,14.8A4.71,4.71,0,0,1,91.35,46.55Z"/><path class="cls-6" d="M47.28,46.44c-2,2.21-5.22-1.22-7.63-3.54-1.5-1.44-4.24-.81-6.09-.13a12.24,12.24,0,0,0,1.37-1.67s8.54-13.07,14.41-19c8.94-.11,11,1.86,13.25,3.22C65.18,26.84,49.27,44.23,47.28,46.44Z"/><path class="cls-6" d="M91.35,46.55a32.07,32.07,0,0,1-3.12,3.61h0c-2.67,2.68-6.26,5.42-10.08,6.27-5.65,1.28-9.87,2.41-14.47,6.29-.31.27-.68.56-1.09.88C57,67.84,42.9,76,31.26,76c-12.5,0-21.33-2.26-20.34-9.89a5.07,5.07,0,0,1,.2-.86c.08-.26.18-.57.32-.93,3.62,10.38,22,2.89,34.56,1.38,17.66-2.12,22.76-23,35.18-27.82,6-2.33,8.56-7.42,9.59-12.06a25.67,25.67,0,0,1,.66,14.8A4.71,4.71,0,0,1,91.35,46.55Z"/><path class="cls-7" d="M91.35,46.55a32.07,32.07,0,0,1-3.12,3.61c-2-3.55-1.4-11.86.58-15.39s0-14.21,0-14.21C90.93,26,93.56,32,91.43,40.62A4.71,4.71,0,0,1,91.35,46.55Z"/><path class="cls-7" d="M62.59,63.6C57,67.84,42.9,76,31.26,76c-12.5,0-21.33-2.26-20.34-9.89a5.07,5.07,0,0,1,.2-.86C11.8,62.89,14.75,56,27,47.82c0,0,.4-.23,1-.64a10.9,10.9,0,0,1,5.12-.65C40,47.62,39.93,67,56.25,63.47,59.25,62.82,61.28,62.94,62.59,63.6Z"/><path class="cls-8" d="M91.35,46.55c-2.4,3.25-7.55,8.61-13.2,9.88s-9.87,2.41-14.47,6.29S43.76,76,31.26,76,9.93,73.74,10.92,66.11a5,5,0,0,1,.2-.87c.24.49,5.27,10.24,24.28,6.8,19.5-3.52,24.44-14,39.78-19.21S91.43,40.62,91.43,40.62A4.71,4.71,0,0,1,91.35,46.55Z"/><path class="cls-7" d="M48.35,41.47a.59.59,0,0,1-.23,0c-5.47-1.54-14.08,0-14.17,0a.83.83,0,0,1-1-.68.85.85,0,0,1,.68-1c.36-.06,9.09-1.63,14.93,0a.85.85,0,0,1-.23,1.67Z"/><path class="cls-7" d="M50.74,37.8l-.24,0c-5.46-1.55-14.07,0-14.16,0A.84.84,0,1,1,36,36.12c.37-.07,9.09-1.64,14.94,0a.85.85,0,0,1,.58,1A.86.86,0,0,1,50.74,37.8Z"/><path class="cls-7" d="M53.28,34.13l-.23,0c-5.46-1.55-14.08,0-14.16,0a.85.85,0,0,1-.31-1.67c.37-.07,9.09-1.64,14.93,0a.84.84,0,0,1,.59,1A.85.85,0,0,1,53.28,34.13Z"/><path class="cls-7" d="M55.18,31.1a1,1,0,0,1-.24,0c-5.46-1.55-14.07,0-14.16,0a.85.85,0,0,1-.31-1.67c.37-.07,9.09-1.64,14.94,0a.85.85,0,0,1-.23,1.66Z"/><path class="cls-7" d="M58,26.86a.85.85,0,0,1-.23,0c-5.47-1.55-14.08,0-14.17,0a.83.83,0,0,1-1-.68.85.85,0,0,1,.68-1c.37-.06,9.09-1.64,14.93,0a.85.85,0,0,1,.58,1.05A.83.83,0,0,1,58,26.86Z"/><path class="cls-7" d="M52.23,32.92a.85.85,0,0,1-.75-.45c-1.39-2.59-7.37-7.76-7.43-7.81a.85.85,0,1,1,1.11-1.28c.25.22,6.28,5.43,7.82,8.29a.86.86,0,0,1-.35,1.15A1,1,0,0,1,52.23,32.92Z"/><path class="cls-7" d="M50.4,37.43a.84.84,0,0,1-.74-.44c-1.4-2.59-7.38-7.76-7.44-7.81a.85.85,0,0,1,1.11-1.29c.26.22,6.28,5.44,7.82,8.3a.84.84,0,0,1-.34,1.14A.86.86,0,0,1,50.4,37.43Z"/><path class="cls-7" d="M47.28,40.74a.84.84,0,0,1-.75-.44c-1.39-2.59-7.38-7.76-7.44-7.81A.85.85,0,0,1,40.2,31.2c.26.22,6.28,5.44,7.82,8.3a.84.84,0,0,1-.74,1.24Z"/><path class="cls-7" d="M45.31,44.49a.84.84,0,0,1-.75-.45c-1.39-2.58-7.37-7.76-7.43-7.81A.84.84,0,1,1,38.23,35c.26.22,6.28,5.43,7.82,8.29a.84.84,0,0,1-.74,1.25Z"/><path class="cls-3" d="M216.2,11s-6.46-3.23-12.53.94-14.67,11.51-21,12.37,11.59,19.59,19.31,15.35S224.48,20.89,216.2,11Z"/><path class="cls-4" d="M191.09,7.07l.61,12.68A4.59,4.59,0,0,0,195.19,24c3.3.82,8.41,1.54,12.26-.43a4.55,4.55,0,0,0,2.43-4.24l-.62-14.91A4.57,4.57,0,0,0,203.58.14l-9,2.28A4.58,4.58,0,0,0,191.09,7.07Z"/><path class="cls-5" d="M225.1,51.93a34.25,34.25,0,0,1-3.48,4h0c-3,3-7,6-11.25,7-6.31,1.41-11,2.68-16.14,7-.35.29-.75.62-1.22,1-6.24,4.74-22,13.84-34.95,13.84-13.94,0-23.79-2.52-22.69-11a6.12,6.12,0,0,1,.23-1c.09-.29.2-.64.35-1,1.25-3.29,5.18-10.3,17.39-18.41,0,0,.44-.26,1.14-.72a36.23,36.23,0,0,0,6.14-4.91,13.74,13.74,0,0,0,1.54-1.87s9.52-14.58,16.08-21.22c2.09-2.13,3.88-3.43,4.95-3.19,4.41,1,16.23,2.92,15.29,9.53s23.71-11.81,17.72-19.92c0,0,2.37-1.51,4.17,6.22a45.4,45.4,0,0,0,1.89,5.67c.74,1.87,1.52,3.8,2.19,5.86a28.62,28.62,0,0,1,.73,16.52A5.25,5.25,0,0,1,225.1,51.93Z"/><path class="cls-6" d="M175.93,51.8c-2.22,2.47-5.81-1.35-8.51-3.94-1.67-1.61-4.73-.91-6.8-.14a13.74,13.74,0,0,0,1.54-1.87s9.52-14.58,16.08-21.22c10-.12,12.23,2.07,14.77,3.59C195.91,29.94,178.15,49.34,175.93,51.8Z"/><path class="cls-6" d="M225.1,51.93a34.25,34.25,0,0,1-3.48,4h0c-3,3-7,6-11.25,7-6.31,1.41-11,2.68-16.14,7-.35.29-.75.62-1.22,1-6.24,4.74-22,13.84-34.95,13.84-13.94,0-23.79-2.52-22.69-11a6.12,6.12,0,0,1,.23-1c.09-.29.2-.64.35-1,4,11.57,24.51,3.21,38.56,1.53,19.69-2.36,25.38-25.68,39.24-31,6.72-2.59,9.55-8.27,10.7-13.45a28.62,28.62,0,0,1,.73,16.52A5.25,5.25,0,0,1,225.1,51.93Z"/><path class="cls-7" d="M225.1,51.93a34.25,34.25,0,0,1-3.48,4c-2.21-4-1.56-13.22.64-17.17s0-15.84,0-15.84c2.37,6,5.31,12.71,2.92,22.38A5.25,5.25,0,0,1,225.1,51.93Z"/><path class="cls-7" d="M193,70.94c-6.24,4.74-22,13.84-34.95,13.84-13.94,0-23.79-2.52-22.69-11a6.12,6.12,0,0,1,.23-1c.76-2.63,4.05-10.34,17.74-19.44,0,0,.44-.26,1.14-.72a12.29,12.29,0,0,1,5.71-.73c7.56,1.22,7.54,22.87,25.75,18.9C189.29,70.07,191.55,70.22,193,70.94Z"/><path class="cls-8" d="M225.1,51.93c-2.68,3.62-8.43,9.6-14.73,11s-11,2.69-16.14,7S172,84.78,158.06,84.78s-23.79-2.52-22.69-11a6.35,6.35,0,0,1,.23-1c.26.54,5.87,11.42,27.08,7.59,21.76-3.94,27.26-15.6,44.38-21.44s18.12-13.62,18.12-13.62A5.27,5.27,0,0,1,225.1,51.93Z"/><path class="cls-7" d="M177.12,46.26a.73.73,0,0,1-.25,0c-6.1-1.72-15.71,0-15.8,0a.93.93,0,0,1-1.1-.76.94.94,0,0,1,.75-1.1c.42-.07,10.14-1.83,16.66,0a.94.94,0,0,1,.65,1.17A.93.93,0,0,1,177.12,46.26Z"/><path class="cls-7" d="M179.79,42.16a1.15,1.15,0,0,1-.26,0c-6.09-1.73-15.7,0-15.8,0a.95.95,0,0,1-.34-1.86c.41-.08,10.14-1.83,16.66,0a.94.94,0,0,1-.26,1.85Z"/><path class="cls-7" d="M182.63,38.07a1.15,1.15,0,0,1-.26,0c-6.1-1.73-15.7,0-15.8,0a.95.95,0,0,1-.34-1.86c.41-.08,10.14-1.83,16.66,0a.94.94,0,0,1-.26,1.85Z"/><path class="cls-7" d="M184.74,34.7a1.27,1.27,0,0,1-.26,0c-6.09-1.73-15.7,0-15.8,0a.95.95,0,0,1-.34-1.86c.41-.08,10.14-1.83,16.66,0a.95.95,0,0,1-.26,1.86Z"/><path class="cls-7" d="M187.9,30a.82.82,0,0,1-.26,0c-6.09-1.73-15.7,0-15.8,0a.94.94,0,0,1-1.1-.76,1,1,0,0,1,.76-1.1c.41-.07,10.14-1.82,16.66,0A.95.95,0,0,1,187.9,30Z"/><path class="cls-7" d="M181.46,36.72a1,1,0,0,1-.84-.5c-1.55-2.88-8.22-8.65-8.29-8.71a.95.95,0,1,1,1.24-1.43c.28.24,7,6.06,8.72,9.25a.94.94,0,0,1-.39,1.28A1,1,0,0,1,181.46,36.72Z"/><path class="cls-7" d="M179.42,41.76a.93.93,0,0,1-.83-.5c-1.56-2.88-8.23-8.65-8.3-8.71a.95.95,0,1,1,1.24-1.43c.28.24,7,6.06,8.72,9.25a.94.94,0,0,1-.38,1.28A1.06,1.06,0,0,1,179.42,41.76Z"/><path class="cls-7" d="M175.93,45.45a.93.93,0,0,1-.83-.5c-1.56-2.88-8.23-8.65-8.3-8.71A.95.95,0,1,1,168,34.81c.28.25,7,6.06,8.72,9.25a.94.94,0,0,1-.83,1.39Z"/><path class="cls-7" d="M173.73,49.63a.94.94,0,0,1-.83-.5c-1.55-2.88-8.23-8.65-8.29-8.71A.94.94,0,1,1,165.84,39c.29.24,7,6.06,8.72,9.25a.94.94,0,0,1-.38,1.28A1,1,0,0,1,173.73,49.63Z"/></g></g></g></svg>