<svg xmlns="http://www.w3.org/2000/svg" viewBox="0 0 247.6 98.55"><defs><style>.cls-1{isolation:isolate;}.cls-2{fill:#738791;opacity:0.27;}.cls-3{fill:#494949;}.cls-4{fill:#f4f4f4;}.cls-5{fill:#f27c7c;}.cls-6{fill:#d8d0ca;mix-blend-mode:multiply;}.cls-7{fill:#ededed;}</style></defs><title>Asset 5</title><g class="cls-1"><g id="Layer_2" data-name="Layer 2"><g id="Layer_1-2" data-name="Layer 1"><ellipse class="cls-2" cx="123.8" cy="63.05" rx="123.8" ry="35.5"/><path class="cls-3" d="M85.4,9.9s-5.79-2.9-11.23.84S61,21.05,55.31,21.83,65.7,39.39,72.62,35.59,92.82,18.73,85.4,9.9Z"/><path class="cls-4" d="M62.89,6.34l.55,11.36a4.11,4.11,0,0,0,3.13,3.79c3,.73,7.53,1.38,11-.39a4.07,4.07,0,0,0,2.17-3.8L79.18,3.93a4.1,4.1,0,0,0-5.1-3.8l-8.1,2A4.1,4.1,0,0,0,62.89,6.34Z"/><path class="cls-5" d="M93.38,46.55a33.14,33.14,0,0,1-3.12,3.61h0c-2.67,2.68-6.27,5.42-10.09,6.27-5.65,1.28-9.86,2.41-14.46,6.29-.32.27-.68.56-1.1.88C59,67.84,44.93,76,33.28,76,20.78,76,12,73.74,12.94,66.11a6.11,6.11,0,0,1,.21-.86c.07-.26.18-.57.31-.93,1.12-2.94,4.65-9.22,15.59-16.5,0,0,.39-.23,1-.64a32.36,32.36,0,0,0,5.51-4.41A11.54,11.54,0,0,0,37,41.1S45.5,28,51.37,22.08c1.87-1.91,3.48-3.08,4.44-2.86,4,.92,14.55,2.61,13.7,8.55S90.77,17.17,85.4,9.9c0,0,2.12-1.35,3.74,5.58a39.77,39.77,0,0,0,1.69,5.08c.66,1.68,1.37,3.41,2,5.26a25.58,25.58,0,0,1,.66,14.8A4.72,4.72,0,0,1,93.38,46.55Z"/><path class="cls-6" d="M49.3,46.44c-2,2.21-5.21-1.22-7.63-3.54-1.5-1.44-4.23-.81-6.09-.13A11.54,11.54,0,0,0,37,41.1S45.5,28,51.37,22.08c8.93-.11,11,1.86,13.24,3.22C67.21,26.84,51.29,44.23,49.3,46.44Z"/><path class="cls-6" d="M93.38,46.55a33.14,33.14,0,0,1-3.12,3.61h0c-2.67,2.68-6.27,5.42-10.09,6.27-5.65,1.28-9.86,2.41-14.46,6.29-.32.27-.68.56-1.1.88C59,67.84,44.93,76,33.28,76,20.78,76,12,73.74,12.94,66.11a6.11,6.11,0,0,1,.21-.86c.07-.26.18-.57.31-.93,3.62,10.38,22,2.89,34.57,1.38,17.65-2.12,22.75-23,35.18-27.82,6-2.33,8.56-7.42,9.58-12.06a25.58,25.58,0,0,1,.66,14.8A4.72,4.72,0,0,1,93.38,46.55Z"/><path class="cls-3" d="M93.38,46.55a33.14,33.14,0,0,1-3.12,3.61c-2-3.55-1.4-11.86.57-15.39s0-14.21,0-14.21C93,26,95.59,32,93.45,40.62A4.72,4.72,0,0,1,93.38,46.55Z"/><path class="cls-7" d="M64.61,63.6C59,67.84,44.93,76,33.28,76,20.78,76,12,73.74,12.94,66.11a6.11,6.11,0,0,1,.21-.86c.68-2.36,3.63-9.27,15.9-17.43,0,0,.39-.23,1-.64a10.92,10.92,0,0,1,5.12-.65C42,47.62,42,67,58.27,63.47,61.27,62.82,63.3,62.94,64.61,63.6Z"/><path class="cls-3" d="M93.38,46.55c-2.4,3.25-7.55,8.61-13.21,9.88s-9.86,2.41-14.46,6.29S45.78,76,33.28,76,12,73.74,12.94,66.11a6,6,0,0,1,.21-.87c.24.49,5.26,10.24,24.28,6.8,19.5-3.52,24.43-14,39.78-19.21S93.45,40.62,93.45,40.62A4.72,4.72,0,0,1,93.38,46.55Z"/><path class="cls-7" d="M50.37,41.47a.62.62,0,0,1-.23,0c-5.46-1.54-14.08,0-14.16,0a.84.84,0,0,1-1-.68.85.85,0,0,1,.68-1c.37-.06,9.09-1.63,14.93,0a.85.85,0,0,1-.23,1.67Z"/><path class="cls-7" d="M52.76,37.8a.85.85,0,0,1-.23,0c-5.46-1.55-14.08,0-14.17,0a.84.84,0,1,1-.3-1.66c.37-.07,9.09-1.64,14.93,0a.85.85,0,0,1-.23,1.67Z"/><path class="cls-7" d="M55.31,34.13a.85.85,0,0,1-.23,0c-5.47-1.55-14.08,0-14.17,0a.85.85,0,0,1-.3-1.67c.36-.07,9.08-1.64,14.93,0a.85.85,0,0,1-.23,1.66Z"/><path class="cls-7" d="M57.2,31.1a.91.91,0,0,1-.23,0c-5.47-1.55-14.08,0-14.17,0a.83.83,0,0,1-1-.68.84.84,0,0,1,.68-1c.37-.07,9.09-1.64,14.93,0a.85.85,0,0,1-.23,1.66Z"/><path class="cls-7" d="M60,26.86l-.23,0c-5.47-1.55-14.08,0-14.16,0a.85.85,0,0,1-.31-1.67c.37-.06,9.09-1.64,14.93,0A.84.84,0,0,1,60,26.86Z"/><path class="cls-7" d="M54.26,32.92a.83.83,0,0,1-.75-.45c-1.39-2.59-7.38-7.76-7.44-7.81A.84.84,0,0,1,46,23.47a.83.83,0,0,1,1.19-.09c.26.22,6.28,5.43,7.82,8.29a.85.85,0,0,1-.34,1.15A1,1,0,0,1,54.26,32.92Z"/><path class="cls-7" d="M52.43,37.43a.85.85,0,0,1-.75-.44c-1.39-2.59-7.37-7.76-7.43-7.81a.85.85,0,0,1,1.1-1.29c.26.22,6.28,5.44,7.82,8.3a.83.83,0,0,1-.34,1.14A.85.85,0,0,1,52.43,37.43Z"/><path class="cls-7" d="M49.3,40.74a.87.87,0,0,1-.75-.44c-1.39-2.59-7.37-7.76-7.43-7.81a.85.85,0,0,1,1.1-1.29c.26.22,6.28,5.44,7.82,8.3a.83.83,0,0,1-.34,1.14A.85.85,0,0,1,49.3,40.74Z"/><path class="cls-7" d="M47.33,44.49a.85.85,0,0,1-.75-.45c-1.39-2.58-7.37-7.76-7.43-7.81A.85.85,0,1,1,40.26,35c.25.22,6.28,5.43,7.82,8.29a.86.86,0,0,1-.35,1.15A.82.82,0,0,1,47.33,44.49Z"/><path class="cls-3" d="M222,11s-6.47-3.23-12.53.94-14.67,11.51-21,12.37S200,43.94,207.75,39.7,230.28,20.89,222,11Z"/><path class="cls-4" d="M196.9,7.07l.61,12.68A4.58,4.58,0,0,0,201,24c3.3.82,8.4,1.54,12.26-.43a4.55,4.55,0,0,0,2.43-4.24l-.62-14.91A4.58,4.58,0,0,0,209.38.14l-9,2.28A4.56,4.56,0,0,0,196.9,7.07Z"/><path class="cls-5" d="M230.9,51.93a34.25,34.25,0,0,1-3.48,4h0c-3,3-7,6-11.25,7-6.3,1.41-11,2.68-16.13,7-.35.29-.76.62-1.22,1-6.24,4.74-22,13.84-34.95,13.84-14,0-23.8-2.52-22.69-11a6.12,6.12,0,0,1,.23-1,9,9,0,0,1,.35-1c1.24-3.29,5.18-10.3,17.38-18.41,0,0,.44-.26,1.14-.72a36.25,36.25,0,0,0,6.15-4.91A12.94,12.94,0,0,0,168,45.85S177.49,31.27,184,24.63c2.09-2.13,3.89-3.43,5-3.19,4.41,1,16.23,2.92,15.28,9.53S228,19.16,222,11.05c0,0,2.36-1.51,4.17,6.22a42.34,42.34,0,0,0,1.89,5.67c.73,1.87,1.52,3.8,2.18,5.86A28.7,28.7,0,0,1,231,45.32,5.24,5.24,0,0,1,230.9,51.93Z"/><path class="cls-6" d="M181.73,51.8c-2.22,2.47-5.81-1.35-8.5-3.94-1.68-1.61-4.73-.91-6.8-.14A12.94,12.94,0,0,0,168,45.85S177.49,31.27,184,24.63c10-.12,12.23,2.07,14.78,3.59C201.71,29.94,184,49.34,181.73,51.8Z"/><path class="cls-6" d="M230.9,51.93a34.25,34.25,0,0,1-3.48,4h0c-3,3-7,6-11.25,7-6.3,1.41-11,2.68-16.13,7-.35.29-.76.62-1.22,1-6.24,4.74-22,13.84-34.95,13.84-14,0-23.8-2.52-22.69-11a6.12,6.12,0,0,1,.23-1,9,9,0,0,1,.35-1c4,11.57,24.51,3.21,38.56,1.53,19.69-2.36,25.38-25.68,39.24-31,6.71-2.59,9.55-8.27,10.69-13.45A28.7,28.7,0,0,1,231,45.32,5.24,5.24,0,0,1,230.9,51.93Z"/><path class="cls-3" d="M230.9,51.93a34.25,34.25,0,0,1-3.48,4c-2.21-4-1.56-13.22.65-17.17s0-15.84,0-15.84c2.36,6,5.3,12.71,2.92,22.38A5.24,5.24,0,0,1,230.9,51.93Z"/><path class="cls-7" d="M198.82,70.94c-6.24,4.74-22,13.84-34.95,13.84-14,0-23.8-2.52-22.69-11a6.12,6.12,0,0,1,.23-1c.75-2.63,4-10.34,17.73-19.44,0,0,.44-.26,1.14-.72A12.3,12.3,0,0,1,166,51.9c7.57,1.22,7.55,22.87,25.76,18.9C195.09,70.07,197.35,70.22,198.82,70.94Z"/><path class="cls-3" d="M230.9,51.93c-2.67,3.62-8.42,9.6-14.73,11s-11,2.69-16.13,7-22.23,14.81-36.17,14.81-23.8-2.52-22.69-11a6.35,6.35,0,0,1,.23-1c.26.54,5.87,11.42,27.08,7.59,21.75-3.94,27.26-15.6,44.38-21.44S231,45.31,231,45.31A5.26,5.26,0,0,1,230.9,51.93Z"/><path class="cls-7" d="M182.93,46.26a.78.78,0,0,1-.26,0c-6.09-1.72-15.7,0-15.8,0a.94.94,0,0,1-1.1-.76,1,1,0,0,1,.76-1.1c.41-.07,10.14-1.83,16.66,0a.95.95,0,0,1-.26,1.86Z"/><path class="cls-7" d="M185.59,42.16a1.07,1.07,0,0,1-.25,0c-6.1-1.73-15.71,0-15.81,0a.95.95,0,0,1-.34-1.86c.41-.08,10.14-1.83,16.66,0a.94.94,0,0,1-.26,1.85Z"/><path class="cls-7" d="M188.44,38.07a1.09,1.09,0,0,1-.26,0c-6.1-1.73-15.71,0-15.8,0A.95.95,0,0,1,172,36.2c.41-.08,10.13-1.83,16.65,0a.94.94,0,0,1-.25,1.85Z"/><path class="cls-7" d="M190.55,34.7a1.17,1.17,0,0,1-.26,0c-6.1-1.73-15.71,0-15.8,0a.95.95,0,0,1-.34-1.86c.41-.08,10.14-1.83,16.65,0a1,1,0,0,1,.66,1.17A1,1,0,0,1,190.55,34.7Z"/><path class="cls-7" d="M193.71,30a.78.78,0,0,1-.26,0c-6.1-1.73-15.7,0-15.8,0a.95.95,0,0,1-.34-1.86c.41-.07,10.14-1.82,16.66,0a.95.95,0,0,1-.26,1.86Z"/><path class="cls-7" d="M187.26,36.72a.94.94,0,0,1-.83-.5c-1.55-2.88-8.23-8.65-8.29-8.71a.94.94,0,0,1,1.23-1.43c.29.24,7,6.06,8.72,9.25a.94.94,0,0,1-.38,1.28A1,1,0,0,1,187.26,36.72Z"/><path class="cls-7" d="M185.22,41.76a.94.94,0,0,1-.83-.5c-1.55-2.88-8.23-8.65-8.29-8.71a.94.94,0,1,1,1.23-1.43c.29.24,7,6.06,8.73,9.25a1,1,0,0,1-.39,1.28A1,1,0,0,1,185.22,41.76Z"/><path class="cls-7" d="M181.73,45.45a.94.94,0,0,1-.83-.5c-1.55-2.88-8.23-8.65-8.29-8.71a.94.94,0,1,1,1.23-1.43c.29.25,7,6.06,8.73,9.25a1,1,0,0,1-.39,1.28A.88.88,0,0,1,181.73,45.45Z"/><path class="cls-7" d="M179.54,49.63a.93.93,0,0,1-.83-.5c-1.56-2.88-8.23-8.65-8.3-8.71A.95.95,0,1,1,171.65,39c.28.24,7,6.06,8.72,9.25a.94.94,0,0,1-.38,1.28A1.06,1.06,0,0,1,179.54,49.63Z"/></g></g></g></svg>