<svg xmlns="http://www.w3.org/2000/svg" viewBox="0 0 247.6 98.55"><defs><style>.cls-1{isolation:isolate;}.cls-2{fill:#738791;opacity:0.27;}.cls-3{fill:#323232;}.cls-4{fill:#bcbcbc;}.cls-5{fill:#f77ff7;}.cls-6{fill:#d8d0ca;mix-blend-mode:multiply;}.cls-7{fill:#f2f2f2;}.cls-8{fill:#4abcb9;}</style></defs><title>Asset 6</title><g class="cls-1"><g id="Layer_2" data-name="Layer 2"><g id="Layer_1-2" data-name="Layer 1"><ellipse class="cls-2" cx="123.8" cy="63.05" rx="123.8" ry="35.5"/><path class="cls-3" d="M87.36,9.9s-5.8-2.9-11.24.84S63,21.05,57.26,21.83,67.65,39.39,74.57,35.59,94.77,18.73,87.36,9.9Z"/><path class="cls-4" d="M64.85,6.34l.54,11.36a4.12,4.12,0,0,0,3.13,3.79c3,.73,7.54,1.38,11-.39a4.08,4.08,0,0,0,2.18-3.8L81.13,3.93A4.08,4.08,0,0,0,76,.13l-8.1,2A4.08,4.08,0,0,0,64.85,6.34Z"/><path class="cls-5" d="M95.33,46.55a32.07,32.07,0,0,1-3.12,3.61h0c-2.67,2.68-6.26,5.42-10.08,6.27-5.66,1.28-9.87,2.41-14.47,6.29-.31.27-.68.56-1.09.88C61,67.84,46.88,76,35.24,76c-12.5,0-21.33-2.26-20.34-9.89a5.07,5.07,0,0,1,.2-.86c.08-.26.18-.57.32-.93,1.11-2.94,4.64-9.22,15.58-16.5,0,0,.4-.23,1-.64a32,32,0,0,0,5.5-4.41,11.63,11.63,0,0,0,1.38-1.67s8.54-13.07,14.41-19c1.87-1.91,3.48-3.08,4.44-2.86,4,.92,14.55,2.61,13.71,8.55S92.72,17.17,87.36,9.9c0,0,2.11-1.35,3.73,5.58a38.35,38.35,0,0,0,1.7,5.08c.66,1.68,1.36,3.41,2,5.26a25.75,25.75,0,0,1,.66,14.8A4.71,4.71,0,0,1,95.33,46.55Z"/><path class="cls-6" d="M51.25,46.44c-2,2.21-5.21-1.22-7.62-3.54-1.5-1.44-4.24-.81-6.1-.13a11.63,11.63,0,0,0,1.38-1.67s8.54-13.07,14.41-19c8.93-.11,11,1.86,13.25,3.22C69.16,26.84,53.25,44.23,51.25,46.44Z"/><path class="cls-6" d="M95.33,46.55a32.07,32.07,0,0,1-3.12,3.61h0c-2.67,2.68-6.26,5.42-10.08,6.27-5.66,1.28-9.87,2.41-14.47,6.29-.31.27-.68.56-1.09.88C61,67.84,46.88,76,35.24,76c-12.5,0-21.33-2.26-20.34-9.89a5.07,5.07,0,0,1,.2-.86c.08-.26.18-.57.32-.93C19,74.7,37.39,67.21,50,65.7c17.66-2.12,22.76-23,35.18-27.82,6-2.33,8.56-7.42,9.59-12.06a25.75,25.75,0,0,1,.66,14.8A4.71,4.71,0,0,1,95.33,46.55Z"/><path class="cls-3" d="M95.33,46.55a32.07,32.07,0,0,1-3.12,3.61c-2-3.55-1.4-11.86.58-15.39s0-14.21,0-14.21C94.91,26,97.54,32,95.41,40.62A4.71,4.71,0,0,1,95.33,46.55Z"/><path class="cls-3" d="M66.57,63.6C61,67.84,46.88,76,35.24,76c-12.5,0-21.33-2.26-20.34-9.89a5.07,5.07,0,0,1,.2-.86C15.78,62.89,18.73,56,31,47.82c0,0,.4-.23,1-.64a10.86,10.86,0,0,1,5.11-.65c6.78,1.09,6.77,20.5,23.09,16.94C63.23,62.82,65.25,62.94,66.57,63.6Z"/><path class="cls-7" d="M95.33,46.55c-2.4,3.25-7.55,8.61-13.2,9.88s-9.87,2.41-14.47,6.29S47.74,76,35.24,76,13.91,73.74,14.9,66.11a5,5,0,0,1,.2-.87c.24.49,5.26,10.24,24.28,6.8,19.5-3.52,24.43-14,39.78-19.21S95.41,40.62,95.41,40.62A4.71,4.71,0,0,1,95.33,46.55Z"/><path class="cls-8" d="M52.33,41.47a.67.67,0,0,1-.24,0c-5.46-1.54-14.07,0-14.16,0a.85.85,0,0,1-.31-1.67c.37-.06,9.09-1.63,14.94,0a.85.85,0,0,1,.58,1.05A.86.86,0,0,1,52.33,41.47Z"/><path class="cls-8" d="M54.71,37.8l-.23,0c-5.46-1.55-14.08,0-14.16,0A.84.84,0,1,1,40,36.12c.37-.07,9.09-1.64,14.93,0a.85.85,0,0,1,.59,1A.86.86,0,0,1,54.71,37.8Z"/><path class="cls-8" d="M57.26,34.13a.91.91,0,0,1-.23,0c-5.47-1.55-14.08,0-14.16,0a.85.85,0,1,1-.31-1.67c.37-.07,9.09-1.64,14.93,0a.85.85,0,0,1-.23,1.66Z"/><path class="cls-8" d="M59.15,31.1l-.23,0c-5.46-1.55-14.08,0-14.16,0a.85.85,0,1,1-.31-1.67c.37-.07,9.09-1.64,14.93,0a.85.85,0,0,1-.23,1.66Z"/><path class="cls-8" d="M62,26.86a.85.85,0,0,1-.23,0c-5.47-1.55-14.08,0-14.17,0a.83.83,0,0,1-1-.68.85.85,0,0,1,.68-1c.36-.06,9.08-1.64,14.93,0a.85.85,0,0,1,.58,1.05A.83.83,0,0,1,62,26.86Z"/><path class="cls-8" d="M56.21,32.92a.85.85,0,0,1-.75-.45c-1.39-2.59-7.37-7.76-7.43-7.81a.83.83,0,0,1-.09-1.19.84.84,0,0,1,1.2-.09c.25.22,6.28,5.43,7.81,8.29a.85.85,0,0,1-.34,1.15A1,1,0,0,1,56.21,32.92Z"/><path class="cls-8" d="M54.38,37.43a.84.84,0,0,1-.74-.44c-1.4-2.59-7.38-7.76-7.44-7.81a.85.85,0,0,1,1.11-1.29c.25.22,6.28,5.44,7.82,8.3a.84.84,0,0,1-.35,1.14A.79.79,0,0,1,54.38,37.43Z"/><path class="cls-8" d="M51.25,40.74a.84.84,0,0,1-.74-.44c-1.4-2.59-7.38-7.76-7.44-7.81a.85.85,0,0,1,1.11-1.29c.25.22,6.28,5.44,7.82,8.3a.84.84,0,0,1-.35,1.14A.79.79,0,0,1,51.25,40.74Z"/><path class="cls-8" d="M49.29,44.49a.83.83,0,0,1-.75-.45c-1.39-2.58-7.38-7.76-7.44-7.81A.85.85,0,0,1,42.21,35c.26.22,6.28,5.43,7.82,8.29a.84.84,0,0,1-.74,1.25Z"/><path class="cls-3" d="M212.62,11s-6.47-3.23-12.53.94-14.67,11.51-21,12.37,11.58,19.59,19.3,15.35S220.89,20.89,212.62,11Z"/><path class="cls-4" d="M187.51,7.07l.61,12.68A4.58,4.58,0,0,0,191.61,24c3.3.82,8.4,1.54,12.26-.43a4.52,4.52,0,0,0,2.42-4.24l-.61-14.91A4.58,4.58,0,0,0,200,.14l-9,2.28A4.56,4.56,0,0,0,187.51,7.07Z"/><path class="cls-5" d="M221.51,51.93A34.25,34.25,0,0,1,218,56h0c-3,3-7,6-11.25,7-6.3,1.41-11,2.68-16.13,7-.35.29-.76.62-1.22,1-6.24,4.74-22,13.84-35,13.84-13.95,0-23.8-2.52-22.69-11a6.12,6.12,0,0,1,.23-1c.08-.29.19-.64.34-1,1.25-3.29,5.19-10.3,17.39-18.41,0,0,.44-.26,1.14-.72A36.25,36.25,0,0,0,157,47.72a12.94,12.94,0,0,0,1.53-1.87s9.53-14.58,16.08-21.22c2.09-2.13,3.89-3.43,4.95-3.19,4.42,1,16.24,2.92,15.29,9.53s23.71-11.81,17.73-19.92c0,0,2.36-1.51,4.17,6.22a42.34,42.34,0,0,0,1.89,5.67c.73,1.87,1.52,3.8,2.18,5.86a28.7,28.7,0,0,1,.74,16.52A5.24,5.24,0,0,1,221.51,51.93Z"/><path class="cls-6" d="M172.34,51.8c-2.22,2.47-5.81-1.35-8.5-3.94-1.68-1.61-4.73-.91-6.8-.14a12.94,12.94,0,0,0,1.53-1.87s9.53-14.58,16.08-21.22c10-.12,12.23,2.07,14.78,3.59C192.32,29.94,174.57,49.34,172.34,51.8Z"/><path class="cls-6" d="M221.51,51.93A34.25,34.25,0,0,1,218,56h0c-3,3-7,6-11.25,7-6.3,1.41-11,2.68-16.13,7-.35.29-.76.62-1.22,1-6.24,4.74-22,13.84-35,13.84-13.95,0-23.8-2.52-22.69-11a6.12,6.12,0,0,1,.23-1c.08-.29.19-.64.34-1,4,11.57,24.52,3.21,38.57,1.53,19.69-2.36,25.38-25.68,39.24-31,6.71-2.59,9.55-8.27,10.69-13.45a28.7,28.7,0,0,1,.74,16.52A5.24,5.24,0,0,1,221.51,51.93Z"/><path class="cls-3" d="M221.51,51.93A34.25,34.25,0,0,1,218,56c-2.21-4-1.56-13.22.65-17.17s0-15.84,0-15.84c2.36,6,5.3,12.71,2.92,22.38A5.24,5.24,0,0,1,221.51,51.93Z"/><path class="cls-3" d="M189.43,70.94c-6.24,4.74-22,13.84-35,13.84-13.95,0-23.8-2.52-22.69-11a6.12,6.12,0,0,1,.23-1c.75-2.63,4-10.34,17.73-19.44,0,0,.44-.26,1.14-.72a12.3,12.3,0,0,1,5.71-.73c7.57,1.22,7.55,22.87,25.76,18.9C185.7,70.07,188,70.22,189.43,70.94Z"/><path class="cls-7" d="M221.51,51.93c-2.67,3.62-8.42,9.6-14.73,11s-11,2.69-16.13,7-22.23,14.81-36.17,14.81-23.8-2.52-22.69-11a6.35,6.35,0,0,1,.23-1c.26.54,5.87,11.42,27.08,7.59,21.75-3.94,27.25-15.6,44.38-21.44S221.6,45.31,221.6,45.31A5.26,5.26,0,0,1,221.51,51.93Z"/><path class="cls-8" d="M173.54,46.26a.78.78,0,0,1-.26,0c-6.09-1.72-15.7,0-15.8,0a.94.94,0,0,1-1.1-.76,1,1,0,0,1,.76-1.1c.41-.07,10.14-1.83,16.66,0a.95.95,0,0,1-.26,1.86Z"/><path class="cls-8" d="M176.2,42.16a1.07,1.07,0,0,1-.25,0c-6.1-1.73-15.71,0-15.81,0a.95.95,0,0,1-.34-1.86c.41-.08,10.14-1.83,16.66,0a.94.94,0,0,1-.26,1.85Z"/><path class="cls-8" d="M179.05,38.07a1.09,1.09,0,0,1-.26,0c-6.1-1.73-15.71,0-15.8,0a.95.95,0,1,1-.34-1.86c.41-.08,10.13-1.83,16.65,0a.94.94,0,0,1-.25,1.85Z"/><path class="cls-8" d="M181.16,34.7a1.09,1.09,0,0,1-.26,0c-6.1-1.73-15.71,0-15.8,0a.95.95,0,0,1-.34-1.86c.41-.08,10.14-1.83,16.65,0a1,1,0,0,1,.66,1.17A1,1,0,0,1,181.16,34.7Z"/><path class="cls-8" d="M184.32,30a.78.78,0,0,1-.26,0c-6.1-1.73-15.7,0-15.8,0a.95.95,0,0,1-.34-1.86c.41-.07,10.14-1.82,16.66,0a.95.95,0,0,1-.26,1.86Z"/><path class="cls-8" d="M177.87,36.72a.94.94,0,0,1-.83-.5c-1.55-2.88-8.23-8.65-8.29-8.71A.94.94,0,1,1,170,26.08c.29.24,7,6.06,8.72,9.25a.94.94,0,0,1-.38,1.28A1,1,0,0,1,177.87,36.72Z"/><path class="cls-8" d="M175.83,41.76a.94.94,0,0,1-.83-.5c-1.55-2.88-8.23-8.65-8.29-8.71a.94.94,0,1,1,1.23-1.43c.29.24,7,6.06,8.73,9.25a1,1,0,0,1-.39,1.28A1,1,0,0,1,175.83,41.76Z"/><path class="cls-8" d="M172.34,45.45a.94.94,0,0,1-.83-.5c-1.55-2.88-8.23-8.65-8.29-8.71a.94.94,0,1,1,1.23-1.43c.29.25,7,6.06,8.72,9.25a.94.94,0,0,1-.38,1.28A.91.91,0,0,1,172.34,45.45Z"/></g></g></g></svg>